<svg xmlns="http://www.w3.org/2000/svg" width="299.557" height="32.685" viewBox="0 0 299.557 32.685">
  <g id="Group_283" data-name="Group 283" transform="translate(0 0)">
    <path id="Path_2510" data-name="Path 2510" d="M17.308,0,0,32.686H15.976L33.285,0Z" fill="#18181b"/>
    <path id="Path_2511" data-name="Path 2511" d="M54.184,0,36.875,32.686H52.852L70.16,0Z" transform="translate(-10.249)" fill="#18181b"/>
    <path id="Path_2512" data-name="Path 2512" d="M91.06,0,73.752,32.686H89.728L107.036,0Z" transform="translate(-20.498)" fill="#18181b"/>
    <path id="Path_2513" data-name="Path 2513" d="M127.935,0,110.628,32.686H126.6L143.912,0Z" transform="translate(-30.746)" fill="#18181b"/>
    <path id="Path_2514" data-name="Path 2514" d="M164.812,0,147.5,32.686H163.48L180.788,0Z" transform="translate(-40.995)" fill="#18181b"/>
    <path id="Path_2515" data-name="Path 2515" d="M201.687,0,184.379,32.686h15.977L217.664,0Z" transform="translate(-51.244)" fill="#18181b"/>
    <path id="Path_2516" data-name="Path 2516" d="M238.563,0,221.255,32.686h15.977L254.54,0Z" transform="translate(-61.492)" fill="#18181b"/>
    <path id="Path_2517" data-name="Path 2517" d="M275.439,0,258.131,32.686h15.977L291.416,0Z" transform="translate(-71.741)" fill="#18181b"/>
    <path id="Path_2518" data-name="Path 2518" d="M312.315,0,295.007,32.686h15.977L328.291,0Z" transform="translate(-81.99)" fill="#18181b"/>
    <path id="Path_2519" data-name="Path 2519" d="M349.191,0,331.883,32.686h15.977L365.168,0Z" transform="translate(-92.238)" fill="#18181b"/>
    <path id="Path_2520" data-name="Path 2520" d="M386.067,0,368.758,32.686h15.977L402.043,0Z" transform="translate(-102.487)" fill="#18181b"/>
  </g>
</svg>
