<svg xmlns="http://www.w3.org/2000/svg" width="142.214" height="15.517" viewBox="0 0 142.214 15.517">
  <g id="Group_125" data-name="Group 125" transform="translate(0 0)">
    <path id="Path_2510" data-name="Path 2510" d="M8.217,0,0,15.518H7.585L15.8,0Z" fill="#18181b"/>
    <path id="Path_2511" data-name="Path 2511" d="M45.092,0,36.875,15.518H44.46L52.677,0Z" transform="translate(-24.235)" fill="#18181b"/>
    <path id="Path_2512" data-name="Path 2512" d="M81.969,0,73.752,15.518h7.585L89.554,0Z" transform="translate(-48.47)" fill="#18181b"/>
    <path id="Path_2513" data-name="Path 2513" d="M118.844,0l-8.217,15.517h7.585L126.429,0Z" transform="translate(-72.704)" fill="#18181b"/>
    <path id="Path_2514" data-name="Path 2514" d="M155.72,0,147.5,15.518h7.585L163.305,0Z" transform="translate(-96.939)" fill="#18181b"/>
    <path id="Path_2515" data-name="Path 2515" d="M192.6,0l-8.217,15.517h7.585L200.181,0Z" transform="translate(-121.173)" fill="#18181b"/>
    <path id="Path_2516" data-name="Path 2516" d="M229.472,0l-8.217,15.517h7.585L237.057,0Z" transform="translate(-145.408)" fill="#18181b"/>
    <path id="Path_2517" data-name="Path 2517" d="M266.348,0l-8.217,15.517h7.585L273.933,0Z" transform="translate(-169.643)" fill="#18181b"/>
    <path id="Path_2518" data-name="Path 2518" d="M303.224,0l-8.217,15.517h7.585L310.809,0Z" transform="translate(-193.877)" fill="#18181b"/>
    <path id="Path_2519" data-name="Path 2519" d="M340.1,0l-8.217,15.517h7.585L347.685,0Z" transform="translate(-218.112)" fill="#18181b"/>
    <path id="Path_2520" data-name="Path 2520" d="M376.976,0l-8.217,15.517h7.585L384.56,0Z" transform="translate(-242.346)" fill="#18181b"/>
  </g>
</svg>
