<svg xmlns="http://www.w3.org/2000/svg" xmlns:xlink="http://www.w3.org/1999/xlink" width="1885" height="610.124" viewBox="0 0 1885 610.124">
  <defs>
    <clipPath id="clip-path">
      <rect y="-3" width="1885" height="610.124" fill="none"/>
    </clipPath>
  </defs>
  <g id="Scroll_Group_11" data-name="Scroll Group 11" transform="translate(0 3)" clip-path="url(#clip-path)" style="isolation: isolate">
    <path id="pattern_square_white" d="M965.41,38.164h40.714v-2.14H965.41V0h-2.431V36.024H881.55V0h-2.431V36.024H797.69V0H795.26V36.024H713.831V0H711.4V36.024H629.971V0H627.54V36.024H546.111V0H543.68V36.024H462.251V0h-2.431V36.024H378.392V0h-2.431V36.024H294.532V0H292.1V36.024H210.672V0h-2.431V36.024H126.813V0h-2.431V36.024H42.943V0H40.512V36.024H0v2.14H40.512v71.692H0V112H40.512v71.692H0v2.14H40.512v71.692H0v2.14H40.512v71.692H0v2.14H40.512v71.693H0v2.14H40.512v71.693H0v2.14H40.512v71.692H0v2.14H40.512v71.692H0v2.14H40.512v71.693H0v2.14H40.512v71.693H0v2.14H40.512v71.692H0v2.14H40.512v71.692H0v2.14H40.512V960h2.431V924.154h81.429V960H126.8V924.154h81.429V960h2.431V924.154h81.429V960h2.431V924.154h81.429V960h2.431V924.154h81.429V960h2.431V924.154h81.429V960H546.1V924.154H627.53V960h2.431V924.154H711.39V960h2.431V924.154H795.25V960h2.431V924.154H879.11V960h2.431V924.154h81.429V960H965.4V924.154h40.714v-2.14H965.4V850.322h40.714v-2.14H965.4V776.489h40.714v-2.14H965.4V702.656h40.714v-2.14H965.4V628.824h40.714v-2.14H965.4V554.991h40.714v-2.14H965.4V481.159h40.714v-2.14H965.4V407.327h40.714v-2.14H965.4V333.494h40.714v-2.14H965.4V259.662h40.714v-2.14H965.4V185.829h40.714v-2.14H965.4V112h40.714v-2.14H965.4V38.164ZM124.372,922.025H42.943V850.333h81.429Zm0-73.833H42.943V776.5h81.429Zm0-73.833H42.943V702.668h81.429Zm0-73.832H42.943V628.835h81.429Zm0-73.832H42.943V555h81.429Zm0-73.833H42.943V481.17h81.429Zm0-73.832H42.943V407.338h81.429Zm0-73.832H42.943V333.505h81.429Zm0-73.832H42.943V259.673h81.429Zm0-73.832H42.943V185.84h81.429Zm0-73.832H42.943V112.008h81.429Zm0-73.832H42.943v-71.7h81.429v71.692Zm83.86,812.166H126.8V850.341h81.429Zm0-73.832H126.8V776.509h81.429Zm0-73.832H126.8V702.677h81.429Zm0-73.833H126.8V628.844h81.429Zm0-73.832H126.8V555.012h81.429Zm0-73.833H126.8V481.179h81.429Zm0-73.832H126.8V407.347h81.429Zm0-73.832H126.8V333.514h81.429Zm0-73.833H126.8V259.682h81.429Zm0-73.832H126.8V185.849h81.429Zm0-73.832H126.8V112.017h81.429Zm0-73.832H126.8V38.164h81.429v71.692Zm83.86,812.166H210.662V850.35h81.429Zm0-73.832H210.662V776.518h81.429Zm0-73.833H210.662V702.686h81.429Zm0-73.832H210.662V628.853h81.429Zm0-73.832H210.662V555.021h81.429Zm0-73.833H210.662V481.188h81.429Zm0-73.832H210.662V407.356h81.429Zm0-73.832H210.662V333.523h81.429Zm0-73.832H210.662V259.691h81.429Zm0-73.832H210.662V185.858h81.429Zm0-73.832H210.662V112.026h81.429Zm0-73.832H210.662V38.164h81.429v71.722Zm83.86,812.166H294.522V850.36h81.429Zm0-73.833H294.522V776.527h81.429Zm0-73.833H294.522V702.695h81.429Zm0-73.832H294.522V628.862h81.429Zm0-73.833H294.522V555.03h81.429Zm0-73.832H294.522V481.2h81.429Zm0-73.832H294.522V407.365h81.429Zm0-73.833H294.522V333.532h81.429Zm0-73.832H294.522V259.7h81.429Zm0-73.832H294.522V185.867h81.429Zm0-73.832H294.522V112.035h81.429Zm0-73.832H294.522V38.164h81.429v71.731Zm83.86,812.166H378.382V850.368h81.429Zm0-73.832H378.382V776.536h81.429Zm0-73.833H378.382V702.7h81.429Zm0-73.833H378.382V628.871h81.429Zm0-73.833H378.382V555.039h81.429Zm0-73.832H378.382V481.206h81.429Zm0-73.832H378.382V407.374h81.429Zm0-73.832H378.382V333.541h81.429Zm0-73.832H378.382V259.709h81.429Zm0-73.833H378.382V185.876h81.429Zm0-73.832H378.382V112.044h81.429Zm0-73.832H378.382V38.164h81.429V109.9Zm83.86,812.166H462.242V850.377h81.429Zm0-73.833H462.242V776.545h81.429Zm0-73.832H462.242V702.713h81.429Zm0-73.832H462.242V628.88h81.429Zm0-73.832H462.242V555.048h81.429Zm0-73.833H462.242V481.215h81.429Zm0-73.832H462.242V407.383h81.429Zm0-73.832H462.242V333.55h81.429Zm0-73.833H462.242V259.718h81.429Zm0-73.832H462.242V185.885h81.429Zm0-73.833H462.242V112.053h81.429Zm0-73.832H462.242V38.164h81.429v71.749Zm83.86,812.166H546.1V850.387H627.53Zm0-73.832H546.1V776.554H627.53Zm0-73.832H546.1V702.722H627.53Zm0-73.833H546.1V628.889H627.53Zm0-73.832H546.1V555.057H627.53Zm0-73.832H546.1V481.224H627.53Zm0-73.833H546.1V407.392H627.53Zm0-73.832H546.1V333.559H627.53Zm0-73.832H546.1V259.727H627.53Zm0-73.832H546.1V185.894H627.53Zm0-73.833H546.1V112.062H627.53Zm0-73.832H546.1V38.164H627.53v71.758Zm83.86,812.166H629.961V850.4H711.39Zm0-73.833H629.961V776.563H711.39Zm0-73.832H629.961V702.731H711.39Zm0-73.832H629.961V628.9H711.39Zm0-73.833H629.961V555.066H711.39Zm0-73.832H629.961V481.233H711.39Zm0-73.832H629.961V407.4H711.39Zm0-73.833H629.961V333.568H711.39Zm0-73.832H629.961V259.736H711.39Zm0-73.833H629.961V185.9H711.39Zm0-73.832H629.961V112.071H711.39Zm0-73.832H629.961V38.164H711.39v71.767ZM795.25,922.1H713.821V850.4H795.25Zm0-73.832H713.821V776.572H795.25Zm0-73.832H713.821V702.74H795.25Zm0-73.833H713.821V628.907H795.25Zm0-73.832H713.821V555.075H795.25Zm0-73.832H713.821V481.242H795.25Zm0-73.832H713.821V407.41H795.25Zm0-73.832H713.821V333.577H795.25Zm0-73.833H713.821V259.745H795.25Zm0-73.832H713.821V185.913H795.25Zm0-73.833H713.821V112.08H795.25Zm0-73.832H713.821V38.164H795.25V109.94Zm83.86,812.166H797.68V850.414h81.429Zm0-73.833H797.68V776.581h81.429Zm0-73.832H797.68V702.749h81.429Zm0-73.832H797.68V628.916h81.429Zm0-73.833H797.68V555.084h81.429Zm0-73.832H797.68V481.251h81.429Zm0-73.833H797.68V407.419h81.429Zm0-73.833H797.68V333.586h81.429Zm0-73.832H797.68V259.754h81.429Zm0-73.832H797.68V185.922h81.429Zm0-73.832H797.68V112.089h81.429Zm0-73.832H797.68V38.164h81.429v71.785Zm83.859,812.166H881.54V850.422h81.429Zm0-73.833H881.54V776.59h81.429Zm0-73.832H881.54V702.758h81.429Zm0-73.832H881.54V628.925h81.429Zm0-73.833H881.54V555.093h81.429Zm0-73.833H881.54V481.26h81.429Zm0-73.832H881.54V407.428h81.429Zm0-73.833H881.54V333.6h81.429Zm0-73.832H881.54V259.763h81.429Zm0-73.832H881.54V185.931h81.429Zm0-73.832H881.54V112.1h81.429Zm0-73.832H881.54V38.164h81.429v71.794Z" transform="translate(0 1006.124) rotate(-90)" fill="#fff" opacity="0.047"/>
  </g>
</svg>
