<svg id="Group_466" data-name="Group 466" xmlns="http://www.w3.org/2000/svg" xmlns:xlink="http://www.w3.org/1999/xlink" width="422.789" height="242.605" viewBox="0 0 422.789 242.605">
  <defs>
    <clipPath id="clip-path">
      <rect id="Rectangle_339" data-name="Rectangle 339" width="422.789" height="242.605" fill="none"/>
    </clipPath>
  </defs>
  <g id="Group_465" data-name="Group 465" clip-path="url(#clip-path)">
    <path id="Path_3544" data-name="Path 3544" d="M422.253,71.829c-.1-2.368-.434-4.7-.68-7.059a21.628,21.628,0,0,1-.232-3.351c.029-.558.111-1.114.137-1.673a14.673,14.673,0,0,0-.107-2,81.893,81.893,0,0,0-2.654-13.869c-.6-2.227-1.2-4.457-1.841-6.673-.623-2.157-1.147-4.338-1.878-6.461a101.557,101.557,0,0,0-5.317-12.781c-1.159-2.294-2.268-4.633-3.522-6.877a42.455,42.455,0,0,0-3.468-5.644,12.028,12.028,0,0,0-4.467-3.749,8.289,8.289,0,0,0-3.085-.655c-1.08-.048-4.824-.288-7.173,1.641a53.5,53.5,0,0,1-10.095,3.65c-3.719.884-7.49,1.636-11.235,2.407-7.759,1.6-15.518,3.209-23.292,4.734-8.355,1.639-16.737,3.127-25.117,4.631-8.457,1.518-16.944,3.029-25.5,3.884-8.081.808-16.308.668-24.15,3.056-7.573,2.307-14.638,6.01-21.838,9.242a65.852,65.852,0,0,1-11.366,4.03,99.7,99.7,0,0,1-11.79,1.988c-7.949.955-15.9,1.553-23.691,3.49a148.053,148.053,0,0,0-22.026,7.5,225.2,225.2,0,0,0-21.146,10.285c-.353.2-.7.4-1.047.609l-.08.013c-3.725.611-7.4,1.3-11.176,1.565-3.684.261-7.361-.205-11.04.1a63.018,63.018,0,0,0-11.176,2.144c-2.033.552-4.05,1.154-6.071,1.747a26.224,26.224,0,0,0-3.653,1.078c-1.478-.051-2.956-.1-4.435-.129-4.838-.1-9.678-.117-14.512.142a111.3,111.3,0,0,0-26.846,4.9c-9.106,2.8-18.116,6-27.035,9.342C30.643,86.466,21.6,89.769,12.623,93.248c-3.25,1.26-6.633,2.382-9.3,4.709a6.031,6.031,0,0,0-2.226,3.532,3.193,3.193,0,0,0,.114,1.379.623.623,0,0,0-.188.6c.785,3.015,3.42,5.8,5.832,7.67a27.958,27.958,0,0,0,8.871,4.558c7.323,2.278,14.837,1.16,22.053-.957,3.729-1.094,7.361-2.482,11.055-3.681a53.1,53.1,0,0,1,5.817-1.69,39.594,39.594,0,0,1,6.183-.6c2.087-.087,4.187-.113,6.262-.375a25.643,25.643,0,0,0,5.62-1.444c3.607-1.322,7.031-3.19,10.964-3.243a33.4,33.4,0,0,1,7.09.92c2.354.479,4.7.9,7.09,1.185a67.76,67.76,0,0,0,14.739.217,1.857,1.857,0,0,0,1.07-.456c.5.97,1.023,1.929,1.6,2.856a25.174,25.174,0,0,0,11.682,10.409,15.855,15.855,0,0,0,4.327,1.133c.244.024.486.036.727.041-8.417,4.88-16.763,9.9-24.651,15.6-6.079,4.389-15.9,11.427-12.868,20.25,1.541,4.483,5.67,7.965,9.881,9.877a27.351,27.351,0,0,0,3.774,1.371,77.69,77.69,0,0,0-5.8,28.924,88.857,88.857,0,0,0,1.387,15.352,77.463,77.463,0,0,0,4.061,15.006,81.459,81.459,0,0,0,3.547,7.775,39.653,39.653,0,0,0,2.244,3.724.753.753,0,0,0-.149.786,5.327,5.327,0,0,0,5.159,3.5,9.217,9.217,0,0,0,5.734-2.641,13.867,13.867,0,0,0,3.709-5.167c.432-1.078.795-2.194,1.124-3.321a7.8,7.8,0,0,0,6.6,1.349,13.326,13.326,0,0,0,6.375-4.2,21.5,21.5,0,0,0,4.087-6.689c1.261-3.289,1.671-6.882,2.451-10.3a56.2,56.2,0,0,1,3.8-10.567,55.447,55.447,0,0,0,3.764-10.1,35.836,35.836,0,0,1,3.358-9.858c1.609-2.842,4.616-4.815,7.224-6.655a72.287,72.287,0,0,0,7.637-5.728,19.5,19.5,0,0,0,3.034-3.512,5.888,5.888,0,0,0,.982-2.092c.034-.183.06-.369.083-.555a34.724,34.724,0,0,0,5.175,2.47,75.44,75.44,0,0,0-5.782,28.3c-.073,7.547.607,15.628,3.542,22.659a19.74,19.74,0,0,0,5.436,7.976,3.515,3.515,0,0,0,2.177,1.992,7.135,7.135,0,0,0,3.975.051c3.2-.787,5.7-3.153,7.5-5.817,4.081-6.039,5.016-14.127,3.238-21.1a26.251,26.251,0,0,0-1.543-4.369c.082-.94.059-1.887.122-2.843a27.089,27.089,0,0,1,.7-4.432,40.466,40.466,0,0,1,3.171-8.5c1.613-3.288,3.028-6.812,5.38-9.664a9.148,9.148,0,0,1,2.047-1.944c.258-.165.5-.347.75-.529,13.318-2.582,25.528-9.12,35.92-17.941,1.628-1.382,3.214-2.818,4.735-4.317a56.438,56.438,0,0,0,3.926-4.74,81.479,81.479,0,0,1,8.04-9.058c3.42-3.117,7.622-5.136,11.688-7.269a102.045,102.045,0,0,1,13.326-5.864c9.291-3.287,19.039-3.338,28.77-2.916,10.054.437,20.065,1.643,30.074,2.635s20.016,1.933,30.055,2.484c5.1.28,10.2.42,15.312.482,3.971.048,8.3.429,12.182-.589,1.321-.346,4.149-2.242,6.153-3.769a.881.881,0,0,0,.325-.159,12.546,12.546,0,0,0,1.361-1.214c.054-.049.114-.1.161-.146.027-.026.031-.038.023-.043,4.226-4.466,4.821-11.527,5.16-17.4.208-3.586.307-7.177.5-10.764.248-4.656.3-9.326.11-13.986" transform="translate(-0.289 -0.289)" fill="#fff"/>
    <path id="Path_3545" data-name="Path 3545" d="M118.158,242.6a6,6,0,0,1-5.691-3.978,1.484,1.484,0,0,1-.012-.99,38.807,38.807,0,0,1-2.042-3.428,82.229,82.229,0,0,1-3.579-7.843,77.17,77.17,0,0,1-4.1-15.143,89.939,89.939,0,0,1-1.4-15.475,77.675,77.675,0,0,1,5.565-28.467,27.349,27.349,0,0,1-3.121-1.182c-4.987-2.264-8.822-6.112-10.259-10.293-3.191-9.278,6.965-16.611,13.034-20.993l.089-.065c7.465-5.391,15.358-10.182,22.877-14.569a18.07,18.07,0,0,1-3.13-.965c-4.762-1.931-8.807-5.528-12.019-10.693-.417-.672-.838-1.409-1.279-2.238a2.742,2.742,0,0,1-.716.171,68.784,68.784,0,0,1-14.894-.219c-2.114-.252-4.385-.631-7.148-1.194a32.786,32.786,0,0,0-6.938-.906c-2.876.039-5.456,1.089-8.188,2.2-.828.337-1.683.685-2.541,1a26.036,26.036,0,0,1-5.776,1.482c-1.681.211-3.389.272-5.04.331-.428.015-.855.03-1.281.048a39.63,39.63,0,0,0-6.072.583,44.254,44.254,0,0,0-4.972,1.419l-.766.25c-1.44.467-2.869.963-4.3,1.459-2.206.766-4.487,1.557-6.776,2.228-5.64,1.654-14.1,3.554-22.465.953a28.552,28.552,0,0,1-9.1-4.676c-1.867-1.451-5.14-4.426-6.083-8.053a1.292,1.292,0,0,1,.106-.923A3.932,3.932,0,0,1,.1,101.1a6.585,6.585,0,0,1,2.464-3.974c2.465-2.147,5.488-3.3,8.412-4.413l1.1-.423c6.345-2.46,12.829-4.87,19.1-7.2q3.972-1.477,7.94-2.959C49.647,78.193,58.25,75.22,66.194,72.78A111.264,111.264,0,0,1,93.21,67.847c4.216-.226,8.709-.27,14.566-.143,1.427.031,2.853.075,4.28.124a16.1,16.1,0,0,1,2.542-.773c.374-.092.731-.178,1.049-.272l.887-.262c1.7-.5,3.456-1.017,5.2-1.489a62.465,62.465,0,0,1,11.3-2.166,53.023,53.023,0,0,1,5.775-.068c1.733.043,3.526.087,5.274-.037,3.129-.221,6.266-.748,9.3-1.257l1.757-.292c.314-.188.628-.373.949-.551a226.676,226.676,0,0,1,21.214-10.318,148.967,148.967,0,0,1,22.131-7.534,143.026,143.026,0,0,1,18.816-2.94c1.654-.183,3.308-.367,4.961-.565a100.286,100.286,0,0,0,11.707-1.973,64.364,64.364,0,0,0,11.243-3.988c1.772-.795,3.536-1.619,5.3-2.444a127.556,127.556,0,0,1,16.62-6.829c5.779-1.761,11.825-2.17,17.671-2.565,2.173-.147,4.421-.3,6.614-.518,8.683-.869,17.587-2.467,25.444-3.877l2.473-.444c7.426-1.332,15.1-2.709,22.633-4.185,6.807-1.335,13.717-2.76,20.4-4.138l4.56-.938c3.139-.643,6.385-1.31,9.54-2.059A52.506,52.506,0,0,0,387.3,1.779C389.788-.2,393.536-.028,394.776.03l.108,0a8.921,8.921,0,0,1,3.34.715,12.486,12.486,0,0,1,4.739,3.959A35.866,35.866,0,0,1,406.021,9.6l.471.85c.917,1.641,1.766,3.351,2.587,5q.475.952.949,1.9a101.492,101.492,0,0,1,5.355,12.87c.5,1.458.913,2.958,1.307,4.408.191.7.381,1.393.581,2.087.658,2.274,1.272,4.549,1.845,6.685A82,82,0,0,1,421.79,57.39l.027.286a12.987,12.987,0,0,1,.082,1.814c-.013.3-.043.6-.073.9-.025.26-.051.52-.065.78a15.584,15.584,0,0,0,.155,2.567l.075.673c.068.652.144,1.3.217,1.951.194,1.679.395,3.415.465,5.153.183,4.51.146,9.238-.111,14.053-.087,1.639-.155,3.279-.223,4.92-.08,1.916-.162,3.9-.275,5.847-.378,6.536-1.1,13.289-5.288,17.777a.82.82,0,0,1-.112.137l-.129.118a13.441,13.441,0,0,1-1.456,1.295,1.643,1.643,0,0,1-.422.234c-2.035,1.542-4.868,3.438-6.3,3.814a36.12,36.12,0,0,1-10.1.664c-.768-.021-1.528-.042-2.276-.051-5.643-.068-10.662-.225-15.342-.483-10.362-.569-20.545-1.54-30.087-2.487q-3.241-.321-6.484-.663c-7.712-.8-15.686-1.628-23.55-1.969-8.78-.381-18.947-.5-28.5,2.876a101.712,101.712,0,0,0-13.232,5.825l-1.333.694c-3.553,1.846-7.227,3.754-10.207,6.47a71.655,71.655,0,0,0-7.154,7.979l-.813,1c-.383.471-.757.955-1.132,1.44a32.909,32.909,0,0,1-2.846,3.358c-1.457,1.435-3.063,2.9-4.774,4.353-11.013,9.347-23.486,15.592-36.087,18.066-.215.16-.434.317-.661.461a8.551,8.551,0,0,0-1.882,1.8,35.521,35.521,0,0,0-4.342,7.542c-.314.666-.626,1.329-.948,1.983a39.759,39.759,0,0,0-3.117,8.347,26.3,26.3,0,0,0-.683,4.315c-.028.422-.039.841-.049,1.259-.012.461-.024.936-.058,1.412a27.045,27.045,0,0,1,1.508,4.319c1.912,7.5.632,15.8-3.337,21.675-2.206,3.265-4.945,5.377-7.92,6.11a7.8,7.8,0,0,1-4.374-.069,4.2,4.2,0,0,1-2.524-2.217c-2.192-1.8-3.947-4.4-5.514-8.15-2.546-6.1-3.69-13.389-3.6-22.94a76.726,76.726,0,0,1,5.559-27.9,35.589,35.589,0,0,1-3.729-1.76,7.4,7.4,0,0,1-.987,1.932,20.278,20.278,0,0,1-3.143,3.641,54.653,54.653,0,0,1-6.125,4.683c-.53.367-1.06.733-1.585,1.1l-.584.411c-2.468,1.731-5.02,3.521-6.431,6.014a35.393,35.393,0,0,0-3.285,9.67,56.54,56.54,0,0,1-3.808,10.226,55.979,55.979,0,0,0-3.756,10.433c-.237,1.039-.444,2.121-.645,3.166a42.44,42.44,0,0,1-1.834,7.231,22.067,22.067,0,0,1-4.224,6.911,13.952,13.952,0,0,1-6.729,4.415,8.407,8.407,0,0,1-6.365-.923c-.286.918-.568,1.718-.87,2.47a14.628,14.628,0,0,1-3.9,5.434,9.82,9.82,0,0,1-6.188,2.82l-.156,0m-4.782-138.026a.677.677,0,0,1,.125.011.711.711,0,0,1,.508.375c.551,1.073,1.064,1.991,1.57,2.805,3.049,4.9,6.867,8.311,11.345,10.126a15.152,15.152,0,0,0,4.132,1.084c.225.023.448.033.67.038a.71.71,0,0,1,.342,1.325c-8.03,4.657-16.567,9.764-24.591,15.558l-.09.065c-6.12,4.419-15.369,11.1-12.522,19.377,1.313,3.819,4.866,7.355,9.5,9.461a26.645,26.645,0,0,0,3.675,1.335.711.711,0,0,1,.464.948,76.523,76.523,0,0,0-5.75,28.658,88.444,88.444,0,0,0,1.376,15.229,75.829,75.829,0,0,0,4.022,14.869,81.309,81.309,0,0,0,3.516,7.707,38.9,38.9,0,0,0,2.2,3.656.71.71,0,0,1-.058.869c-.021.025-.026.03-.009.077a4.583,4.583,0,0,0,4.471,3.029,8.466,8.466,0,0,0,5.28-2.462,13.2,13.2,0,0,0,3.52-4.9c.38-.948.729-1.982,1.1-3.255a.711.711,0,0,1,1.1-.375,7.091,7.091,0,0,0,6,1.233,12.832,12.832,0,0,0,6.02-3.989,20.673,20.673,0,0,0,3.951-6.468,41.466,41.466,0,0,0,1.767-6.99c.2-1.057.412-2.151.654-3.214a57.166,57.166,0,0,1,3.847-10.7,54.608,54.608,0,0,0,3.719-9.966,36.552,36.552,0,0,1,3.432-10.047c1.57-2.772,4.376-4.741,6.852-6.477l.581-.409c.528-.373,1.063-.742,1.6-1.112a53.749,53.749,0,0,0,5.969-4.556,18.888,18.888,0,0,0,2.924-3.384,5.315,5.315,0,0,0,.877-1.827c.031-.171.055-.343.077-.515a.711.711,0,0,1,1.066-.524,33.956,33.956,0,0,0,5.068,2.419.711.711,0,0,1,.4.938,75.225,75.225,0,0,0-5.727,28.036c-.09,9.223,1.051,16.544,3.487,22.378,1.5,3.6,3.163,6.045,5.223,7.695a.711.711,0,0,1,.208.272,2.8,2.8,0,0,0,1.755,1.6,6.513,6.513,0,0,0,3.574.034c3.32-.818,5.683-3.456,7.081-5.526,3.749-5.548,4.952-13.414,3.138-20.528a25.646,25.646,0,0,0-1.5-4.251.71.71,0,0,1-.061-.355c.043-.495.056-.989.069-1.512.012-.437.023-.876.053-1.317a27.64,27.64,0,0,1,.717-4.548,41.241,41.241,0,0,1,3.226-8.646c.317-.648.627-1.3.938-1.964a36.543,36.543,0,0,1,4.53-7.84,9.813,9.813,0,0,1,2.214-2.091c.243-.156.476-.328.709-.5a.722.722,0,0,1,.289-.127c12.415-2.406,24.724-8.557,35.6-17.785,1.685-1.43,3.265-2.871,4.7-4.282a31.932,31.932,0,0,0,2.719-3.215c.382-.493.763-.986,1.154-1.467l.813-1a72.437,72.437,0,0,1,7.3-8.136c3.118-2.841,6.875-4.793,10.509-6.681l1.327-.692a103.206,103.206,0,0,1,13.419-5.906c9.8-3.465,20.125-3.343,29.039-2.955,7.906.343,15.9,1.173,23.635,1.976q3.24.336,6.478.662c9.526.945,19.69,1.914,30.024,2.482,4.66.256,9.658.413,15.281.481.755.009,1.522.031,2.3.052a35.072,35.072,0,0,0,9.7-.618c1.17-.307,3.88-2.105,5.9-3.646a.712.712,0,0,1,.267-.127,10.81,10.81,0,0,0,1.344-1.18c.009-.011.068-.064.08-.074l.028-.025a.7.7,0,0,1,.065-.08c3.918-4.14,4.6-10.643,4.967-16.95.113-1.938.194-3.913.273-5.824.068-1.646.137-3.292.225-4.937.253-4.77.29-9.453.109-13.919-.068-1.684-.266-3.394-.457-5.047-.075-.655-.151-1.31-.22-1.966L420.5,63.9a16.784,16.784,0,0,1-.162-2.8c.015-.282.042-.563.07-.845s.054-.549.067-.824a11.551,11.551,0,0,0-.077-1.616l-.027-.291a80.639,80.639,0,0,0-2.633-13.748c-.571-2.129-1.184-4.4-1.837-6.659-.2-.7-.395-1.4-.586-2.107-.39-1.428-.793-2.9-1.28-4.32a100.223,100.223,0,0,0-5.278-12.691c-.321-.634-.637-1.271-.955-1.909-.813-1.638-1.655-3.332-2.554-4.942l-.476-.855a34.627,34.627,0,0,0-2.931-4.7,11.146,11.146,0,0,0-4.2-3.537,7.575,7.575,0,0,0-2.829-.6l-.111,0c-1.118-.052-4.516-.21-6.58,1.486a.694.694,0,0,1-.151.095,53.993,53.993,0,0,1-10.23,3.7c-3.176.755-6.433,1.423-9.583,2.068l-4.558.938c-6.686,1.379-13.6,2.8-20.414,4.14-7.539,1.479-15.223,2.857-22.654,4.189l-2.473.444c-7.883,1.415-16.816,3.019-25.553,3.893-2.217.222-4.476.374-6.661.522-5.766.39-11.729.793-17.353,2.507a126.67,126.67,0,0,0-16.433,6.757c-1.772.828-3.542,1.655-5.32,2.453a65.775,65.775,0,0,1-11.488,4.072,101.611,101.611,0,0,1-11.874,2c-1.66.2-3.319.383-4.976.567a142.176,142.176,0,0,0-18.629,2.908,147.585,147.585,0,0,0-21.918,7.462A225.311,225.311,0,0,0,156.782,61.9c-.347.193-.687.395-1.027.6a.711.711,0,0,1-.25.091l-.08.013-1.8.3c-3.068.515-6.24,1.047-9.436,1.273-1.817.129-3.643.084-5.41.04a52.25,52.25,0,0,0-5.621.064A61.092,61.092,0,0,0,122.1,66.4c-1.728.469-3.478.984-5.169,1.482l-.889.262c-.338.1-.715.191-1.113.288a14.2,14.2,0,0,0-2.443.754.768.768,0,0,1-.321.065c-1.475-.051-2.95-.1-4.425-.129-5.82-.126-10.279-.082-14.46.141a109.873,109.873,0,0,0-26.674,4.871c-7.916,2.432-16.493,5.4-26.994,9.329q-3.969,1.487-7.943,2.96c-6.267,2.329-12.746,4.738-19.082,7.194l-1.11.426C8.674,95.116,5.771,96.222,3.5,98.2a5.243,5.243,0,0,0-1.988,3.09,2.463,2.463,0,0,0,.088,1.075.71.71,0,0,1-.163.7c.894,3.312,4.184,6.152,5.563,7.224a27.157,27.157,0,0,0,8.645,4.441c7.993,2.486,16.18.642,21.642-.96,2.255-.662,4.52-1.447,6.71-2.207,1.439-.5,2.878-1,4.327-1.469l.761-.249a45.659,45.659,0,0,1,5.135-1.462,40.1,40.1,0,0,1,6.294-.609c.429-.018.859-.033,1.289-.048,1.621-.058,3.3-.117,4.914-.321A24.625,24.625,0,0,0,72.179,106c.835-.306,1.678-.649,2.495-.981,2.733-1.113,5.56-2.263,8.7-2.305a34.168,34.168,0,0,1,7.241.935c2.725.555,4.959.928,7.032,1.175a67.4,67.4,0,0,0,14.586.216,1.15,1.15,0,0,0,.66-.275.712.712,0,0,1,.48-.186" transform="translate(0 0)"/>
    <path id="Path_3546" data-name="Path 3546" d="M222.189,116.27l6.063-6.064c-1.914.409-3.825.834-5.737,1.26l-2.565,2.566Z" transform="translate(-63.584 -31.859)"/>
    <path id="Path_3547" data-name="Path 3547" d="M231.636,121.865l15.538-15.538q-2.588.283-5.161.682L229.4,119.627Z" transform="translate(-66.315 -30.738)"/>
    <path id="Path_3548" data-name="Path 3548" d="M112.548,119.191,90.66,141.078a42.988,42.988,0,0,0,5.114-.636L117.4,118.814c-1.622.091-3.241.213-4.854.377" transform="translate(-26.208 -34.347)"/>
    <path id="Path_3549" data-name="Path 3549" d="M15.392,147.708l-4.535,4.535a18.669,18.669,0,0,0,2.662,1.816l6.263-6.262a36.506,36.506,0,0,1-4.39-.088" transform="translate(-3.139 -42.7)"/>
    <path id="Path_3550" data-name="Path 3550" d="M37.711,143.964c-1.169.352-2.421.692-3.726,1L23.778,155.175a32.159,32.159,0,0,0,3.872.606l12.623-12.623c-.851.277-1.7.548-2.561.806" transform="translate(-6.874 -41.385)"/>
    <path id="Path_3551" data-name="Path 3551" d="M59.782,134.5,41.991,152.292c1.782-.189,3.549-.463,5.275-.8L67.256,131.5c-2.495.99-4.983,2-7.475,3" transform="translate(-12.139 -38.016)"/>
    <path id="Path_3552" data-name="Path 3552" d="M88.472,123.692,66.909,145.255c2.1-.666,4.16-1.269,6.242-1.764l21.517-21.517c-2.087.507-4.15,1.085-6.2,1.718" transform="translate(-19.342 -35.261)"/>
    <path id="Path_3553" data-name="Path 3553" d="M3.143,143.355a20.478,20.478,0,0,0,1.3,2.673l1.305-1.3a17.132,17.132,0,0,1-2.6-1.369" transform="translate(-0.909 -41.442)"/>
    <path id="Path_3554" data-name="Path 3554" d="M166.637,143.539c.063.074.134.151.2.225l28.35-28.35c-1.821.358-3.645.7-5.475,1l-24.865,24.866c.617.837,1.223,1.6,1.789,2.262" transform="translate(-47.655 -33.364)"/>
    <path id="Path_3555" data-name="Path 3555" d="M174.322,148.1a23.5,23.5,0,0,0,2.79,1.688l31.7-31.7-2.239-2.239Z" transform="translate(-50.394 -33.491)"/>
    <path id="Path_3556" data-name="Path 3556" d="M189.461,153.5c.482-.109.965-.215,1.447-.326q4.273-2.337,8.348-4.991L219.9,127.539l-2.239-2.239Z" transform="translate(-54.77 -36.222)"/>
    <path id="Path_3557" data-name="Path 3557" d="M133.7,118.5l-18.426,18.426a34.272,34.272,0,0,1,4.821-.343l18.041-18.041q-2.219-.036-4.435-.043" transform="translate(-33.323 -34.256)"/>
    <path id="Path_3558" data-name="Path 3558" d="M152.268,118.824l-18.425,18.425c1.324.156,2.652.328,3.98.5l18.841-18.841q-2.2-.029-4.4-.081" transform="translate(-38.692 -34.35)"/>
    <path id="Path_3559" data-name="Path 3559" d="M170.593,118.773,150.865,138.5c1.478.085,2.95.116,4.411.065l20.019-20.019q-2.344.158-4.7.225" transform="translate(-43.613 -34.27)"/>
    <path id="Path_3560" data-name="Path 3560" d="M480.019,61.088l2.239,2.239,12.577-12.576q-2.628.373-5.25.772Z" transform="translate(-138.766 -14.671)"/>
    <path id="Path_3561" data-name="Path 3561" d="M489.467,66.946l2.239,2.239,21.407-21.406-3.379.451-1.791.24Z" transform="translate(-141.497 -13.812)"/>
    <path id="Path_3562" data-name="Path 3562" d="M475.875,54.438q-2.63.492-5.249,1.039l2.105,2.105Z" transform="translate(-136.051 -15.737)"/>
    <path id="Path_3563" data-name="Path 3563" d="M558.106,132.865l23.745-23.745c-.066-1.447-.113-2.9-.129-4.349l-25.855,25.855Z" transform="translate(-160.693 -30.288)"/>
    <path id="Path_3564" data-name="Path 3564" d="M567.554,144.827l17.476-17.476c.028-1.473.007-2.952-.041-4.436l-19.673,19.673Z" transform="translate(-163.424 -35.533)"/>
    <path id="Path_3565" data-name="Path 3565" d="M577,157.519l7-7c.266-.764.567-1.651,1.043-2.778a31.3,31.3,0,0,0,1.417-4.16l-11.695,11.695Z" transform="translate(-166.155 -41.509)"/>
    <path id="Path_3566" data-name="Path 3566" d="M520.182,87.65l43.286-43.286q-.471-1.371-.969-2.741l-.823.055L517.943,85.411Z" transform="translate(-149.729 -12.033)"/>
    <path id="Path_3567" data-name="Path 3567" d="M529.63,98.244l39.707-39.707q-.464-1.753-.979-3.5L527.391,96Z" transform="translate(-152.461 -15.91)"/>
    <path id="Path_3568" data-name="Path 3568" d="M539.078,109.332l35.411-35.411c-.218-1.258-.461-2.51-.717-3.761l-36.932,36.933Z" transform="translate(-155.192 -20.282)"/>
    <path id="Path_3569" data-name="Path 3569" d="M548.525,120.776,578.67,90.631q-.142-2.068-.359-4.119l-32.025,32.025Z" transform="translate(-157.923 -25.009)"/>
    <path id="Path_3570" data-name="Path 3570" d="M501.154,75.1,531.25,45q-2.544.3-5.106.628L498.915,72.86Z" transform="translate(-144.229 -13.01)"/>
    <path id="Path_3571" data-name="Path 3571" d="M510.6,81.171l38.4-38.4q-2.493.223-4.949.471L508.362,78.933Z" transform="translate(-146.96 -12.365)"/>
    <path id="Path_3572" data-name="Path 3572" d="M434.233,65.558,322.289,177.5l.848.847c1.928-.9,3.822-1.873,5.68-2.9L436.471,67.8Z" transform="translate(-93.169 -18.952)"/>
    <path id="Path_3573" data-name="Path 3573" d="M294.974,176.474c-1.693.171-3.384.363-5.069.591l-5.539,5.54,2.239,2.239Z" transform="translate(-82.206 -51.016)"/>
    <path id="Path_3574" data-name="Path 3574" d="M312.629,174.376c-1.681.22-3.365.406-5.05.573l-13.766,13.766,2.239,2.239Z" transform="translate(-84.937 -50.409)"/>
    <path id="Path_3575" data-name="Path 3575" d="M401.845,78.567l-3.673,3.673a54.539,54.539,0,0,0-7.809,12.287L414.384,70.5a55.349,55.349,0,0,0-12.539,8.062" transform="translate(-112.848 -20.382)"/>
    <path id="Path_3576" data-name="Path 3576" d="M424.151,61.907l-45.25,45.25c-1.049,2.455-2.141,4.873-3.349,7.2a2.655,2.655,0,0,1-.946,1.051c-.238.422-.491.838-.736,1.258l56.606-56.607c-2.069.569-4.187,1.182-6.325,1.848" transform="translate(-108.08 -17.362)"/>
    <path id="Path_3577" data-name="Path 3577" d="M333.966,167.1a46.136,46.136,0,0,1-7.346,2.869l-23.359,23.359,2.239,2.239Z" transform="translate(-87.668 -48.306)"/>
    <path id="Path_3578" data-name="Path 3578" d="M426.891,58.22l-2.227-2.227-.03.006L312.709,167.925l2.239,2.239Z" transform="translate(-90.399 -16.187)"/>
    <path id="Path_3579" data-name="Path 3579" d="M548.563,141.4l-17.308,17.308c1.34.081,2.747.158,4.247.231l15.3-15.3Z" transform="translate(-153.578 -40.878)"/>
    <path id="Path_3580" data-name="Path 3580" d="M560.486,150.853l-11.221,11.221c1.426.05,2.9.082,4.395.083l9.065-9.066Z" transform="translate(-158.784 -43.609)"/>
    <path id="Path_3581" data-name="Path 3581" d="M575.121,162.54l-2.239-2.239-3.972,3.972a29.709,29.709,0,0,0,5.955-1.478Z" transform="translate(-164.463 -46.341)"/>
    <path id="Path_3582" data-name="Path 3582" d="M501.839,103.481l-38.947,38.947q1.976.225,3.988.49l37.2-37.2Z" transform="translate(-133.815 -29.915)"/>
    <path id="Path_3583" data-name="Path 3583" d="M513.382,112.929l-33.8,33.8q1.938.263,3.957.52l32.079-32.079Z" transform="translate(-138.64 -32.646)"/>
    <path id="Path_3584" data-name="Path 3584" d="M524.98,122.377l-28.51,28.51c1.423.151,2.763.3,4.044.434l26.7-26.7Z" transform="translate(-143.522 -35.377)"/>
    <path id="Path_3585" data-name="Path 3585" d="M536.632,131.825l-23.088,23.088c1.365.139,2.714.269,4.086.392l21.241-21.242Z" transform="translate(-148.458 -38.109)"/>
    <path id="Path_3586" data-name="Path 3586" d="M461.523,75l-68.066,68.066q4.157-1.96,7.935-3.457l62.37-62.37Z" transform="translate(-113.742 -21.683)"/>
    <path id="Path_3587" data-name="Path 3587" d="M476.818,84.453l-53.685,53.685c1.914-.451,3.768-.813,5.572-1.095l50.352-50.352Z" transform="translate(-122.321 -24.414)"/>
    <path id="Path_3588" data-name="Path 3588" d="M489.786,93.9l-45.031,45.031c1.489-.025,2.961,0,4.425.053L492.024,96.14Z" transform="translate(-128.572 -27.145)"/>
    <path id="Path_3589" data-name="Path 3589" d="M275.258,261.06l-22.116,22.116c.27,1.149.594,2.313.975,3.5l19.512-19.512a57.858,57.858,0,0,1,1.629-6.106" transform="translate(-73.18 -75.468)"/>
    <path id="Path_3590" data-name="Path 3590" d="M321.987,224.064l-.777-.777-2,2q1.4-.587,2.78-1.226" transform="translate(-92.278 -64.549)"/>
    <path id="Path_3591" data-name="Path 3591" d="M245.993,185.363,152.28,279.076c.4,1.077.833,2.143,1.273,3.206l48.826-48.827c1.3-3.395,2.627-3.864,6.218-6.217L248.231,187.6Z" transform="translate(-44.022 -53.586)"/>
    <path id="Path_3592" data-name="Path 3592" d="M159.19,316.379c.015.022.033.042.048.064L196.683,279c.207-.7.42-1.394.651-2.084a20.978,20.978,0,0,1,2.3-4.919,3.816,3.816,0,0,0,.306-.734l-42.189,42.189a15.324,15.324,0,0,0,1.437,2.928" transform="translate(-45.604 -78.418)"/>
    <path id="Path_3593" data-name="Path 3593" d="M282.668,194.811l-24.96,24.96a9.219,9.219,0,0,0,1.316.673,27.468,27.468,0,0,0-3.112,5.6l28.995-28.995Z" transform="translate(-73.98 -56.317)"/>
    <path id="Path_3594" data-name="Path 3594" d="M173.2,332.5a16.53,16.53,0,0,0,3-4.061l-6.432,6.432A7.957,7.957,0,0,0,173.2,332.5" transform="translate(-49.077 -94.947)"/>
    <path id="Path_3595" data-name="Path 3595" d="M287.941,204.258,251.39,240.809c-.218,1.658-.378,3.316-.473,4.951L290.179,206.5Z" transform="translate(-72.536 -59.048)"/>
    <path id="Path_3596" data-name="Path 3596" d="M186.869,317.547l12.489-12.489c.645-2.03,1.182-4.091,1.682-6.16l-17.987,17.987a29.156,29.156,0,0,0,3.815.663" transform="translate(-52.918 -86.407)"/>
    <path id="Path_3597" data-name="Path 3597" d="M294.659,213.706l-43.738,43.738c.027.461.053.923.087,1.367.072.941.151,1.865.241,2.782l30.974-30.973a33.93,33.93,0,0,1,3.694-3.953c.108-.02.215-.045.323-.065L296.9,215.945Z" transform="translate(-72.537 -61.779)"/>
    <path id="Path_3598" data-name="Path 3598" d="M155.847,234.152l-6.834,6.835c-.314.981-.624,1.964-.916,2.952-.325,1.1-.622,2.208-.884,3.325l13.37-13.37c-1.519.159-3.11.247-4.736.259" transform="translate(-42.557 -67.615)"/>
    <path id="Path_3599" data-name="Path 3599" d="M171.681,228.839,145.5,255.017c-.092,1.569-.173,3.139-.232,4.709l33.965-33.965a77.629,77.629,0,0,1-7.555,3.078" transform="translate(-41.996 -65.264)"/>
    <path id="Path_3600" data-name="Path 3600" d="M212.834,197.407c-4.017,2.4-8.029,5.019-12.083,7.646L145.5,260.308c.121,1.333.277,2.662.492,3.985l66.945-66.946-.1.06" transform="translate(-42.061 -57.05)"/>
    <path id="Path_3601" data-name="Path 3601" d="M148.942,270.769,239.011,180.7c-2.349.7-4.652,1.523-6.914,2.436l-83.806,83.8a30.488,30.488,0,0,0,.651,3.827" transform="translate(-42.869 -52.238)"/>
    <path id="Path_3602" data-name="Path 3602" d="M277.222,279.217l-19.1,19.1c.459.955.975,1.943,1.526,2.952l18.1-18.1a33.037,33.037,0,0,0-.519-3.958" transform="translate(-74.618 -80.717)"/>
    <path id="Path_3603" data-name="Path 3603" d="M278.5,302.151a19.051,19.051,0,0,0,1.267-3.867l-12.436,12.435c4.829.23,9.588-5.189,11.169-8.569" transform="translate(-77.28 -86.229)"/>
    <path id="Path_3604" data-name="Path 3604" d="M234.038,90.838c-9.883,9.068-19.5,18.467-29.081,27.85-8.548,8.367-17.085,16.805-27.532,22.811-10.972,6.309-22.02,12.582-32.293,20-6.078,4.389-15.9,11.427-12.868,20.25,1.541,4.483,5.671,7.965,9.882,9.877a31.135,31.135,0,0,0,13.988,2.563c11.254-.468,21.412-5.705,30.54-11.939,9.867-6.739,19.225-14.378,30.081-19.539,11.255-5.35,23.833-8.3,36.193-9.546,5.684-.574,11.372-.809,17.02-1.728a50.369,50.369,0,0,0,15.206-4.753,41.634,41.634,0,0,0,12.692-10.194,43.332,43.332,0,0,0,7.992-13.588,57.7,57.7,0,0,0,1.707-7.687c.016-.084-.112-.119-.128-.035a33.043,33.043,0,0,1-2.76,7.526,58.359,58.359,0,0,1-3.722,6.914,47.5,47.5,0,0,1-10.646,11.422,40.828,40.828,0,0,1-14.265,7.145,74,74,0,0,1-15.813,2.3,161.043,161.043,0,0,0-17.948,1.767,107.38,107.38,0,0,0-17.74,4.693c-11.2,3.98-21.279,10.024-30.874,16.963-9.265,6.7-18.609,13.813-29.917,16.6-8.559,2.109-19.215,2.008-26.051-4.337-3.2-2.972-5.127-7.043-3.225-11.274,1.745-3.882,5.275-6.847,8.583-9.376,9.307-7.113,19.446-12.964,29.576-18.8a134.321,134.321,0,0,0,15.165-9.614c4.625-3.556,8.919-7.5,13.174-11.491Q215,112.485,228.762,99.059c2.283-2.217,4.56-4.435,6.8-6.693.985-.991-.505-2.464-1.527-1.527" transform="translate(-38.072 -26.173)"/>
    <path id="Path_3605" data-name="Path 3605" d="M325.821,148.283a22.162,22.162,0,0,0,8.158-3.352,39.174,39.174,0,0,0,6.905-5.537,32.491,32.491,0,0,0,8.865-15.4,24.148,24.148,0,0,0,.32-10.109c-.06-.3-.466-.192-.5.068-.687,5.659-1.765,11.364-4.338,16.507a34.612,34.612,0,0,1-10.954,13.005,39.809,39.809,0,0,1-4.07,2.491c-1.451.776-3,1.334-4.45,2.106-.1.053-.06.239.06.223" transform="translate(-94.156 -32.869)"/>
    <path id="Path_3606" data-name="Path 3606" d="M153.9,131.012c-.148,2.593,1.01,5.219,1.952,7.6a45.559,45.559,0,0,0,3.613,7.3,25.178,25.178,0,0,0,11.682,10.409,15.829,15.829,0,0,0,4.327,1.132,12.4,12.4,0,0,0,2.453-.037,3.27,3.27,0,0,0,1.985-.695.2.2,0,0,0,0-.283,3.55,3.55,0,0,0-1.547-.507c-.639-.131-1.305-.227-1.948-.321a24.03,24.03,0,0,1-3.83-.837,17.96,17.96,0,0,1-6.326-3.686,34.566,34.566,0,0,1-8.486-12.428c-.559-1.3-1.056-2.621-1.509-3.958a17.316,17.316,0,0,0-1.622-3.885.4.4,0,0,0-.745.2" transform="translate(-44.485 -37.76)"/>
    <path id="Path_3607" data-name="Path 3607" d="M197.077,147.529a2.783,2.783,0,0,0,.516.592c.227.16.464.308.7.451a13.779,13.779,0,0,0,1.388.736,14.139,14.139,0,0,0,3.151.985,15.745,15.745,0,0,0,3.189.3c.8-.009,2.183.061,2.694-.7a.137.137,0,0,0-.048-.183c-.663-.488-1.878-.191-2.646-.2a14.352,14.352,0,0,1-3.059-.384,16.962,16.962,0,0,1-2.812-.963,14.718,14.718,0,0,1-1.339-.66c-.215-.12-.422-.259-.637-.378a5.131,5.131,0,0,0-.722-.242c-.4-.148-.594.38-.376.646" transform="translate(-56.946 -42.454)"/>
    <path id="Path_3608" data-name="Path 3608" d="M3.994,131.5c-.693-.8-1.378-1.762-.93-2.837a7.073,7.073,0,0,1,2.374-2.615c2.587-1.952,5.667-2.8,8.694-3.838,8.708-2.977,17.385-6.034,26.061-9.1,8.531-3.016,16.9-6.552,25.514-9.317a109.813,109.813,0,0,1,25.586-5.252c5.117-.373,10.254-.432,15.382-.34,2.566.046,5.132.146,7.7.258,1.28.056,2.564.155,3.845.168.639.007,1.282.011,1.922-.006a5.138,5.138,0,0,0,1.841-.5.365.365,0,0,0,.086-.658,6.512,6.512,0,0,0-1.337-.631,11.217,11.217,0,0,0-1.638-.176c-1.28-.127-2.56-.173-3.845-.225-2.389-.1-4.779-.178-7.171-.23-4.838-.105-9.678-.117-14.512.142a111.265,111.265,0,0,0-26.846,4.9c-9.106,2.8-18.116,6-27.035,9.342-9.014,3.375-18.059,6.678-27.033,10.157-3.25,1.26-6.633,2.382-9.3,4.709a6.028,6.028,0,0,0-2.226,3.531,3.273,3.273,0,0,0,2.116,3.5.63.63,0,0,0,.759-.984" transform="translate(-0.314 -27.792)"/>
    <path id="Path_3609" data-name="Path 3609" d="M155.77,94.638c1.411.737,3.386-.052,4.813-.423,1.821-.473,3.637-.96,5.461-1.417a67.858,67.858,0,0,1,11.066-2.029c3.69-.293,7.347.27,11.036.052a67.927,67.927,0,0,0,10.968-1.744c2.062-.468,4.054-1.146,6.1-1.678a61.879,61.879,0,0,0,6.062-1.894c.253-.095.237-.5-.067-.5a33.2,33.2,0,0,0-5.3.554c-1.863.35-3.73.612-5.6.919-3.725.611-7.4,1.3-11.175,1.565-3.685.261-7.362-.205-11.041.1a62.9,62.9,0,0,0-11.176,2.144c-2.033.552-4.05,1.153-6.071,1.747-1.6.471-4.148.765-5.165,2.232a.269.269,0,0,0,.1.365" transform="translate(-44.992 -24.574)"/>
    <path id="Path_3610" data-name="Path 3610" d="M213.263,66.024c7.323-2.751,14.134-6.7,21.225-9.98a140.933,140.933,0,0,1,22.036-8.426,132.616,132.616,0,0,1,23.716-3.748c8-.691,16.05-1.584,23.62-4.415,7.4-2.768,14.248-6.772,21.554-9.756a56.077,56.077,0,0,1,11.745-3.481c4.075-.7,8.208-.958,12.322-1.312,8.308-.714,16.579-2.067,24.823-3.3,8.5-1.27,16.979-2.706,25.409-4.374,7.952-1.573,15.881-3.275,23.806-4.98A90.7,90.7,0,0,0,434.638,9.41c3.469-1.226,6.924-2.6,10.31-4.04,1.745-.74,7.125-2.9,9.356-3.04.173-.011-4.211.3-4.364.37a55.159,55.159,0,0,1-10.868,4.01c-3.719.884-7.491,1.636-11.235,2.407-7.76,1.6-15.518,3.208-23.292,4.733-8.355,1.639-16.736,3.127-25.117,4.631-8.457,1.519-16.944,3.029-25.5,3.885-8.081.808-16.308.667-24.15,3.056-7.573,2.308-14.638,6.011-21.837,9.243a65.85,65.85,0,0,1-11.366,4.029,99.886,99.886,0,0,1-11.791,1.989c-7.949.955-15.9,1.552-23.691,3.49a148.094,148.094,0,0,0-22.025,7.5,225.2,225.2,0,0,0-21.146,10.286,58.719,58.719,0,0,0-5.022,3.214c-.4.279-.17,1.051.36.852" transform="translate(-61.488 -0.673)"/>
    <path id="Path_3611" data-name="Path 3611" d="M572.292,115.379c5.651-4.265,6.327-12.275,6.7-18.8.208-3.585.307-7.177.5-10.764.248-4.655.3-9.326.11-13.986-.1-2.368-.434-4.7-.68-7.059a21.625,21.625,0,0,1-.232-3.351c.029-.558.111-1.114.137-1.672a14.907,14.907,0,0,0-.107-2,81.983,81.983,0,0,0-2.655-13.869c-.6-2.227-1.2-4.457-1.841-6.673-.623-2.156-1.147-4.338-1.878-6.461a101.547,101.547,0,0,0-5.316-12.78c-1.16-2.295-2.269-4.634-3.523-6.877a42.462,42.462,0,0,0-3.468-5.645,12.032,12.032,0,0,0-4.467-3.748,8.276,8.276,0,0,0-3.085-.655c-1.081-.048-4.836-.289-7.184,1.649-.088.073,3.948-1.253,4.94-.139a3.961,3.961,0,0,0,.706.624,2.875,2.875,0,0,0,1.2.361,6.96,6.96,0,0,1,2.087.923,13.943,13.943,0,0,1,3.594,3.192,32.71,32.71,0,0,1,3.021,4.418c1.1,1.89,2.254,3.76,3.194,5.737q2.792,5.866,5.126,11.943a93.967,93.967,0,0,1,4.217,12.418c1.011,4.371,1.8,8.824,2.424,13.267.156,1.107.374,2.2.556,3.306s.609,2.12.85,3.213a20.236,20.236,0,0,1,.279,3.325c.059,1.181.08,2.346.03,3.528-.094,2.234.09,4.5.1,6.733s-.043,4.5-.117,6.742c-.123,3.764-.49,7.5-.739,11.257-.463,6.971-1.063,14.752-5.549,20.464-.552.7.192,2.042,1.066,1.382" transform="translate(-157.64 -0.289)"/>
    <path id="Path_3612" data-name="Path 3612" d="M239.109,198.979c3.082,5.947,9.518,9.513,15.7,11.476a55.291,55.291,0,0,0,20.382,2.058c16.459-1.125,31.516-8.438,43.972-19.011,1.628-1.382,3.213-2.818,4.735-4.317a56.572,56.572,0,0,0,3.926-4.74,81.409,81.409,0,0,1,8.039-9.059c3.42-3.117,7.622-5.136,11.688-7.268a102.144,102.144,0,0,1,13.326-5.865c9.291-3.286,19.039-3.338,28.77-2.915,10.055.437,20.065,1.642,30.074,2.635s20.016,1.933,30.055,2.484c5.1.28,10.2.42,15.312.481,3.971.048,8.3.429,12.182-.589a10.934,10.934,0,0,0,4.815-2.707c.4-.377-.107-.968-.565-.733-3.614,1.855-7.9,2.072-11.881,2.047-4.718-.028-9.423-.156-14.133-.434-9.905-.587-19.771-1.67-29.637-2.7-9.844-1.029-19.7-1.948-29.585-2.476-9.47-.506-19.161-1.144-28.535.659a59.275,59.275,0,0,0-13.128,4.334,76.718,76.718,0,0,0-12.4,6.71,57.8,57.8,0,0,0-9.556,7.739c-2.731,2.935-5.046,6.41-8.08,9.04-3.134,2.716-6.1,5.593-9.459,8.042a93.98,93.98,0,0,1-10.572,6.637,76.764,76.764,0,0,1-23.49,8.247,60.656,60.656,0,0,1-19.5.294c-6.444-1.007-12.978-3.107-17.881-7.588-1.172-1.071-2.325-2.217-3.386-3.4-.6-.665-1.577.181-1.194.921" transform="translate(-69.098 -45.33)"/>
    <path id="Path_3613" data-name="Path 3613" d="M256.007,229.758a75.375,75.375,0,0,0-6.12,29.113c-.073,7.547.607,15.628,3.542,22.659,1.565,3.751,3.8,7.517,7.6,9.352a.214.214,0,0,0,.259-.335c-.545-.7-1.149-1.34-1.624-2.091-.454-.717-.857-1.466-1.31-2.191a27.791,27.791,0,0,1-2.329-4.688,48.283,48.283,0,0,1-2.657-10.557,77.613,77.613,0,0,1,.085-24.8,69.869,69.869,0,0,1,4.605-15.267c.6-1.387-1.445-2.6-2.049-1.2" transform="translate(-72.237 -66.24)"/>
    <path id="Path_3614" data-name="Path 3614" d="M262.1,298.956a3.655,3.655,0,0,0,2.473,2.945,7.133,7.133,0,0,0,3.974.052c3.2-.788,5.7-3.154,7.5-5.818,4.081-6.038,5.016-14.126,3.238-21.1a26.357,26.357,0,0,0-2.1-5.526,23.2,23.2,0,0,0-1.552-2.593,6.532,6.532,0,0,0-.931-1.2,3.31,3.31,0,0,0-1.324-.573c-.395-.126-.66.26-.607.606a4.009,4.009,0,0,0,.8,2.054,22.988,22.988,0,0,1,3.152,6.222,25.115,25.115,0,0,1,1.216,9.223,24.1,24.1,0,0,1-2.34,9.114c-1.286,2.646-3.112,5.448-5.743,6.914a6.46,6.46,0,0,1-7.487-.478.161.161,0,0,0-.267.156" transform="translate(-75.768 -76.642)"/>
    <path id="Path_3615" data-name="Path 3615" d="M282.955,262.3a21.639,21.639,0,0,0,.376-4.359,27.165,27.165,0,0,1,.7-4.432,40.5,40.5,0,0,1,3.171-8.5c1.613-3.288,3.028-6.812,5.38-9.664a9.144,9.144,0,0,1,2.047-1.944,20.269,20.269,0,0,1,2.118-1.416.389.389,0,0,0,0-.668c-1.841-.976-3.515.062-4.853,1.372a22.85,22.85,0,0,0-3.8,5.318c-.964,1.739-1.8,3.542-2.66,5.333a50.867,50.867,0,0,0-3.343,8.3,29.047,29.047,0,0,0-.98,5.34c-.161,1.852-.274,3.8.647,5.472a.66.66,0,0,0,1.194-.156" transform="translate(-81.234 -66.76)"/>
    <path id="Path_3616" data-name="Path 3616" d="M149.842,232.692a78.133,78.133,0,0,0-6.3,30.15,88.857,88.857,0,0,0,1.387,15.352,77.4,77.4,0,0,0,4.06,15.006,81.378,81.378,0,0,0,3.548,7.775,39.694,39.694,0,0,0,2.285,3.788,30.177,30.177,0,0,0,2.774,3.212c.1.109.241-.029.188-.145-.518-1.14-.9-2.334-1.421-3.471-.538-1.169-1.144-2.31-1.691-3.476-1.076-2.293-2.166-4.562-3.081-6.926a92.444,92.444,0,0,1-4.3-14.346A81.946,81.946,0,0,1,147,249.5a74.487,74.487,0,0,1,4.593-16.323c.447-1.078-1.3-1.543-1.748-.482" transform="translate(-41.497 -67.095)"/>
    <path id="Path_3617" data-name="Path 3617" d="M159.124,304.027a5.326,5.326,0,0,0,5.158,3.5,9.217,9.217,0,0,0,5.734-2.641,13.867,13.867,0,0,0,3.709-5.167,39.926,39.926,0,0,0,2.357-8.911,57.247,57.247,0,0,0,.592-9.462c-.061-3.37-.525-6.7-.714-10.064a32.973,32.973,0,0,1,1.1-10.239c.872-3.39,1.983-6.718,2.976-10.074,1.113-3.764,2.168-7.546,3.245-11.321l1.64-5.746a60.072,60.072,0,0,0,1.321-6.017.68.68,0,0,0-1.311-.362,50.351,50.351,0,0,0-1.781,4.8q-.682,2.364-1.364,4.729-1.388,4.814-2.778,9.627c-.916,3.174-1.8,6.357-2.711,9.531a61.437,61.437,0,0,0-2.179,9.441c-.779,6.313.75,12.571.683,18.887a40,40,0,0,1-1.122,9.066,18.076,18.076,0,0,1-2.9,6.893,13.609,13.609,0,0,1-4.912,4.172,4.132,4.132,0,0,1-2.545.393,6.129,6.129,0,0,1-2.687-1.915c-.618-.58-1.833-.016-1.514.882" transform="translate(-45.985 -65.638)"/>
    <path id="Path_3618" data-name="Path 3618" d="M180.314,295.09a7.881,7.881,0,0,0,7.2,1.821,13.323,13.323,0,0,0,6.375-4.2,21.493,21.493,0,0,0,4.087-6.689c1.261-3.289,1.671-6.883,2.451-10.3a56.2,56.2,0,0,1,3.8-10.567,55.436,55.436,0,0,0,3.764-10.1,35.835,35.835,0,0,1,3.358-9.858c1.609-2.842,4.616-4.815,7.224-6.655a72.215,72.215,0,0,0,7.637-5.728,19.5,19.5,0,0,0,3.035-3.512,5.9,5.9,0,0,0,.982-2.092c.151-.821.174-1.668.291-2.494a.454.454,0,0,0-.874-.241,17.779,17.779,0,0,1-2,3.333,16.206,16.206,0,0,1-2.445,3.127,49.814,49.814,0,0,1-6.273,5.088,49.612,49.612,0,0,0-6.737,5.734,19.62,19.62,0,0,0-2.93,3.785,23.236,23.236,0,0,0-1.873,4.572c-.988,3.224-1.757,6.476-3.033,9.609-1.333,3.271-2.954,6.416-4.237,9.709a68.577,68.577,0,0,0-2.8,10.644,26.081,26.081,0,0,1-2.738,7.964,16.458,16.458,0,0,1-5.686,6.071,7.078,7.078,0,0,1-7.61-.277c-.761-.464-1.664.648-.969,1.256" transform="translate(-52.054 -64.799)"/>
    <path id="Path_3619" data-name="Path 3619" d="M167.136,280.464c.11,0,.237.111.345.139s.234.026.348.053a3.981,3.981,0,0,0,.635.111c.439.034.878.071,1.313.136a23.815,23.815,0,0,1,2.742.461c.876.238,1.7.606,2.544.929a10.334,10.334,0,0,0,1.3.46,3.938,3.938,0,0,0,1.2.307.262.262,0,0,0,.253-.254c.023-.408-.351-.878-.557-1.214a4.263,4.263,0,0,0-1.056-1.1,7.872,7.872,0,0,0-3.062-1.376,8.64,8.64,0,0,0-3.285-.257,7.5,7.5,0,0,0-1.519.378,2.512,2.512,0,0,0-.65.334c-.1.074-.218.132-.312.21-.112.092-.215.3-.325.36a.174.174,0,0,0,.087.323" transform="translate(-48.267 -80.595)"/>
    <path id="Path_3620" data-name="Path 3620" d="M198.41,288.069c.189.1.375.211.559.323l-.289-.5c.092.829,1.022,1.018,1.659,1.312a12.947,12.947,0,0,1,1.792,1.011,16.168,16.168,0,0,1,1.506,1.14,4.453,4.453,0,0,0,.938.644c.308.153.62.245.924.4a.216.216,0,0,0,.314-.241,6.293,6.293,0,0,0-.256-.974,2.986,2.986,0,0,0-.658-1.012,10.876,10.876,0,0,0-1.772-1.44,12.971,12.971,0,0,0-1.862-1,10.749,10.749,0,0,0-1.139-.452,1.308,1.308,0,0,0-1.275.2l.413-.171q-.322-.01-.645,0a.416.416,0,0,0-.208.77" transform="translate(-57.299 -83.025)"/>
    <path id="Path_3621" data-name="Path 3621" d="M210.363,249.889l.111.073-.32-.416a1.255,1.255,0,0,0,.966.87c.316.11.628.186.953.265q.894.218,1.769.5c.583.191,1.161.4,1.727.638a5.265,5.265,0,0,0,1.953.737l-.5-.134a3.269,3.269,0,0,0,.877.321,1.043,1.043,0,0,0,.965-.434,1.063,1.063,0,0,0-.043-.942,2.121,2.121,0,0,0-.805-.643l.353.353a4.207,4.207,0,0,0-1.983-1.171c-.609-.255-1.227-.489-1.855-.7s-1.264-.387-1.906-.54c-.707-.169-1.769-.467-2.294.195l.307-.179-.124.031a.648.648,0,0,0-.153,1.169" transform="translate(-60.725 -71.825)"/>
    <path id="Path_3622" data-name="Path 3622" d="M136.017,200.689c-.78.507-.7,1.44-.65,2.3a8.754,8.754,0,0,0,.7,2.952,11.806,11.806,0,0,0,4.027,4.851c3.789,2.706,8.89,2.7,13.17,1.29a20.608,20.608,0,0,0,6.117-3.22,11.4,11.4,0,0,0,3.877-5.431c1.366-3.907-.166-7.984-2.229-11.329-1.68-2.722-4.149-6.25-7.578-6.743a4.541,4.541,0,0,0-2.662.363c-.667.332-1.622,1.115-1.285,1.974.284.724,1.239.417,1.782.219a3.691,3.691,0,0,1,2.015-.331c1.6.3,2.917,1.616,3.953,2.781a40.886,40.886,0,0,1,2.875,4.006,9.615,9.615,0,0,1,1.761,6.116c-.227,2.21-1.443,3.73-2.982,5.222a17.541,17.541,0,0,1-12.374,5.055c-4.418-.136-8.7-3.021-9.769-7.454-.214-.893,0-1.873-.606-2.6a.12.12,0,0,0-.145-.018" transform="translate(-39.123 -53.567)"/>
    <path id="Path_3623" data-name="Path 3623" d="M267.9,269.046a5.788,5.788,0,0,0,1.413-.153,11.81,11.81,0,0,1,1.287-.328,10.287,10.287,0,0,1,2.485-.145c.888.048,1.733.264,2.62.348.417.039.837.086,1.254.109a4.855,4.855,0,0,0,.627-.008c.159-.08.2-.1.127-.045q.187.02.372.051a.256.256,0,0,0,.247-.424,6.939,6.939,0,0,0-.842-1.046,6.339,6.339,0,0,0-1.27-.84,8.139,8.139,0,0,0-3.134-.64,13.159,13.159,0,0,0-2.978.228,10.664,10.664,0,0,0-1.447.37,3.4,3.4,0,0,0-.74.33,4.554,4.554,0,0,0-.67.621.929.929,0,0,0,.65,1.57" transform="translate(-77.183 -76.872)"/>
    <path id="Path_3624" data-name="Path 3624" d="M370.605,84.475c1.814.712,4.174.245,6.048-.045a25.647,25.647,0,0,0,5.946-1.636,19.266,19.266,0,0,0,5.22-3.1,26.761,26.761,0,0,0,2.117-2.1c.732-.779,1.3-1.664,2-2.465a.147.147,0,0,0-.207-.208,21.266,21.266,0,0,1-5.067,3.037c-1.659.8-3.342,1.614-5.064,2.272a33.3,33.3,0,0,1-5.366,1.59,24.774,24.774,0,0,1-2.782.392,11.6,11.6,0,0,0-2.844.384.983.983,0,0,0,0,1.877" transform="translate(-106.937 -21.647)"/>
    <path id="Path_3625" data-name="Path 3625" d="M106.054,128.18a10.1,10.1,0,0,0-.186,1.352,5.86,5.86,0,0,0,.333,1.654,18.771,18.771,0,0,0,1.4,2.965c1.066,1.811,2.557,3.663,4.715,4.12a.271.271,0,0,0,.3-.392c-.813-1.789-2.2-3.2-3.245-4.853a16.9,16.9,0,0,1-1.321-2.51,13.255,13.255,0,0,0-.682-1.391c-.234-.412-.573-.67-.8-1.086a.282.282,0,0,0-.522.141" transform="translate(-30.604 -36.974)"/>
    <path id="Path_3626" data-name="Path 3626" d="M67.563,142.636c0,.021-.031.26-.018.154.008-.074,0-.043-.014.093a.694.694,0,0,0-.017.171,2.685,2.685,0,0,0,.085.582,6.424,6.424,0,0,0,.212.824,9.022,9.022,0,0,0,.829,1.73,5.448,5.448,0,0,0,1.149,1.464c.149.116.3.232.451.343s.162.116.333.245c.313.237.657.515,1.076.358l-.545-.071a1.163,1.163,0,0,0,.952.251.553.553,0,0,0,.394-.518c0-.37-.259-.591-.49-.843q.091.343.182.687a.868.868,0,0,0-.135-.726c-.085-.115-.191-.215-.286-.322a2.038,2.038,0,0,1-.189-.227c-.07-.1-.136-.205-.2-.31a4.578,4.578,0,0,0-.279-.417c.022.029-.191-.24-.118-.149s-.053-.071-.063-.085q-.254-.342-.472-.709c-.138-.23-.265-.466-.382-.708-.055-.114-.108-.228-.157-.345.041.1.024.056,0-.018s-.055-.147-.085-.22c-.1-.25-.2-.5-.284-.755a6.222,6.222,0,0,0-.394-.894.83.83,0,0,0-.928-.378.862.862,0,0,0-.6.793" transform="translate(-19.517 -40.997)"/>
    <path id="Path_3627" data-name="Path 3627" d="M3.467,136.076q.215.079.431.161l-.46-.46a1.053,1.053,0,0,0,.128.306,1.024,1.024,0,0,0,.9.515c3.822-.306,7.688-.286,11.464-1.016,3.654-.707,7.8-1.9,10.473-4.645a8.327,8.327,0,0,0,2.316-5.377c.066-1.077-1.628-1.08-1.68,0-.164,3.41-2.962,5.439-5.969,6.433a53.99,53.99,0,0,1-11.132,1.931c-1.823.2-3.653.355-5.473.594a1.1,1.1,0,0,0-1,.764.984.984,0,0,0-.046.321l.326-.568c-.126.087-.251.173-.375.262a.433.433,0,0,0,.1.78" transform="translate(-0.914 -36.064)"/>
    <path id="Path_3628" data-name="Path 3628" d="M1.018,144.016c.785,3.016,3.42,5.8,5.832,7.67a27.958,27.958,0,0,0,8.871,4.558c7.323,2.278,14.838,1.16,22.053-.957,3.729-1.094,7.361-2.482,11.055-3.681a52.945,52.945,0,0,1,5.817-1.689,39.518,39.518,0,0,1,6.183-.6c2.087-.087,4.187-.113,6.262-.375a25.593,25.593,0,0,0,5.62-1.444c3.607-1.322,7.031-3.19,10.964-3.243a33.394,33.394,0,0,1,7.09.92c2.354.48,4.7.9,7.09,1.185a67.8,67.8,0,0,0,14.739.218,1.59,1.59,0,0,0,1.546-1.546,1.56,1.56,0,0,0-1.546-1.546,94.684,94.684,0,0,1-12.86-.121c-4.184-.346-8.234-1.34-12.386-1.878a22.889,22.889,0,0,0-6.246-.042,26.054,26.054,0,0,0-5.593,1.6c-3.55,1.366-6.881,2.874-10.716,3.22-4.075.368-8.211.178-12.2,1.248-3.692.99-7.266,2.49-10.874,3.742a65,65,0,0,1-10.845,2.974,36.745,36.745,0,0,1-10.866.139A26.908,26.908,0,0,1,9.8,150.828a22.2,22.2,0,0,1-4.288-3.265c-1.275-1.284-2.266-2.791-3.444-4.155-.424-.492-1.2.036-1.047.609" transform="translate(-0.289 -40.834)"/>
  </g>
</svg>
