<svg id="Group_464" data-name="Group 464" xmlns="http://www.w3.org/2000/svg" xmlns:xlink="http://www.w3.org/1999/xlink" width="407.814" height="156.094" viewBox="0 0 407.814 156.094">
  <defs>
    <clipPath id="clip-path">
      <rect id="Rectangle_338" data-name="Rectangle 338" width="407.814" height="156.094" fill="none"/>
    </clipPath>
  </defs>
  <g id="Group_463" data-name="Group 463" clip-path="url(#clip-path)">
    <path id="Path_3455" data-name="Path 3455" d="M407.35,93.7a.534.534,0,0,0-.051-.11c-.375-3.092-2.416-6.117-4.309-8.359-3.22-3.814-6.448-7.622-9.619-11.478-3.564-4.335-7.183-8.633-10.988-12.759-3.629-3.935-7.486-7.622-11.438-11.229-2.226-2.031-4.465-4.035-6.8-5.941a42.658,42.658,0,0,0-5.919-4.187,11.192,11.192,0,0,0-2.43-1.509,36.494,36.494,0,0,0-5.818-1.9c-4.535-1.128-9.144-1.974-13.7-3-7.536-1.694-14.968-3.714-22.337-5.99-.671-.642-1.4-1.227-2.054-1.888a18.3,18.3,0,0,0-2.951-2.134c-2.084-1.385-4.126-2.832-6.214-4.211a89.722,89.722,0,0,0-13.181-7.479,45.223,45.223,0,0,0-14.466-3.924c-5.516-.431-11.067.089-16.581.314-3.095.127-6.193.213-9.289.08a40.066,40.066,0,0,1-4.717-.459c-.732-.119-1.453-.283-2.181-.424-.834-.162-1.727-.077-2.578-.209-.228-.035-.4.266-.167.4l.073.043c-.641-.119-1.282-.243-1.924-.355-9.074-1.591-18.3-2.552-27.467-3.437C192,1.8,173.557.445,155.23,1.229a76.742,76.742,0,0,0-24.089,4.7C123.535,8.788,116.4,12.656,109.2,16.393c-7.669,3.984-15.449,7.873-23.335,11.409a143.72,143.72,0,0,1-25.45,8.348C51.465,38.3,42.449,40.191,33.4,41.906c-7.891,1.5-16.219,2.224-23.623,5.53A25.941,25.941,0,0,0,5.26,50.03a.58.58,0,0,0-.788.01,4.315,4.315,0,0,0-1.251,2.1,25.9,25.9,0,0,0-.73,2.555c-.368,1.727-.665,3.467-.9,5.216a68.606,68.606,0,0,0-.574,10.48,88.248,88.248,0,0,0,3,20.839C7.537,104.6,13.64,117.347,20.77,129.154c3.277,5.426,7.444,10.831,13.687,12.834a.935.935,0,0,0,.924.377,108.568,108.568,0,0,0,13.771-3.327q6.63-1.887,13.148-4.145A255.9,255.9,0,0,0,88.072,124.36c8.6-4.068,17.207-8.333,25-13.813,3.908-2.747,8-5.261,11.988-7.892,3.792-2.5,7.667-4.894,11.524-7.3a123.145,123.145,0,0,1,12.6-7.2,51.19,51.19,0,0,1,6.79-2.687,33.026,33.026,0,0,1,3.434-.875c.626-.12,1.258-.235,1.871-.409a3.635,3.635,0,0,0,.441-.159c1.4,1.569,2.828,3.11,4.312,4.6a67.275,67.275,0,0,0,16.051,12.26,57.54,57.54,0,0,0,18.765,6.115,53.62,53.62,0,0,0,11.227.422c1.836-.124,3.667-.343,5.482-.643a14.322,14.322,0,0,0,4.044-1.3,77.638,77.638,0,0,0,8.86,3.761c6.665,2.418,13.644,3.642,20.448,5.575,3.418.971,6.8,2.023,10.15,3.215,3.822,1.359,7.579,2.9,11.349,4.4,2.05.814,4.116,1.591,6.144,2.456,1.191.508,2.366,1.052,3.537,1.6a4.527,4.527,0,0,0-.05,1.878c.044.731.035,1.462.05,2.195a31.821,31.821,0,0,1-.249,4.387,48.837,48.837,0,0,0-.591,8.91c.31,4.63,2.555,9.425,7.054,11.284a7.717,7.717,0,0,0,3.5.638,4.034,4.034,0,0,0,1.781-.578c.113-.065.226-.124.339-.184,1.173-.08,2.206-1.835,2.615-2.707a27.117,27.117,0,0,0,1.327-4.63c.468-1.74,1.071-3.416,1.681-5.112.425-1.181.866-2.357,1.3-3.535l.651-1.767c.258-.7.381-1.394.6-2.105a.394.394,0,0,0,.007-.082c1.716.531,3.452.994,5.228,1.357,1.036.212,2.092.4,3.153.526a18.693,18.693,0,0,0,6.43.425,10.637,10.637,0,0,0,6.779-3.363.227.227,0,0,0,.288-.129c.055-.134.093-.269.138-.4a8.3,8.3,0,0,0,1.323-2.72c1.032-3.713-.146-7.547-1.942-10.817a32.672,32.672,0,0,0-7.5-8.931,45.826,45.826,0,0,0-5.216-3.839,7.44,7.44,0,0,0,.386-1.976c.124-.866.219-1.735.295-2.606a41.879,41.879,0,0,0,.136-5.657,21.9,21.9,0,0,0-.807-5.1c.513.357,1.026.714,1.546,1.061a37.089,37.089,0,0,0,4.238,2.586c.119.124.234.247.345.374a35.541,35.541,0,0,1,2.326,2.987c1.387,1.971,2.65,4.028,3.967,6.045a98.272,98.272,0,0,0,9.5,12.218c.368.406.741.809,1.115,1.211.019.068.036.135.062.2.135.363.264.728.4,1.093.267.743.587,1.464.89,2.193.613,1.474,1.229,2.942,1.9,4.394a55.65,55.65,0,0,0,4.6,8.463c2.828,4.106,7,8.1,12.128,8.917a7.4,7.4,0,0,0,3.85-.285,4.928,4.928,0,0,0,2.727-2.115,9.652,9.652,0,0,0,5.987.808,8.2,8.2,0,0,0,3.714-1.915,6.788,6.788,0,0,0,1.584-1.859,3.656,3.656,0,0,0,.395-1.414,8.8,8.8,0,0,0,.665-2.253c.243-1.222.377-2.457.592-3.682a34.6,34.6,0,0,0,.372-7.045,83.291,83.291,0,0,0-1.855-14.365c-.943-4.523-2.353-8.95-3.528-13.415a108.377,108.377,0,0,0-4.127-12.714,61.662,61.662,0,0,0-3.128-6.767c-.039-.071-.079-.144-.118-.216,3.572,3.607,7.27,7.1,10.917,10.625,4.091,3.955,8.15,8.267,13.161,11.073a23.238,23.238,0,0,0,13.458,3.045c3.752-.365,10.185-2.4,8.87-7.406" transform="translate(-0.356 -0.356)" fill="#fff"/>
    <path id="Path_3456" data-name="Path 3456" d="M290.984,156.094a8.6,8.6,0,0,1-3.277-.705c-5.048-2.085-7.158-7.481-7.451-11.836a42.285,42.285,0,0,1,.457-7.887l.137-1.141a31.025,31.025,0,0,0,.244-4.3c0-.231-.007-.462-.009-.694-.005-.492-.01-.983-.04-1.475-.008-.14-.021-.277-.033-.41a5.093,5.093,0,0,1-.017-1.146c-.933-.438-1.986-.922-3.046-1.374-1.415-.6-2.878-1.175-4.293-1.728q-.919-.359-1.837-.722l-2.188-.873c-2.983-1.192-6.068-2.425-9.139-3.518-3.089-1.1-6.4-2.146-10.111-3.2-2.517-.715-5.107-1.345-7.611-1.953a122.486,122.486,0,0,1-12.88-3.636,78.556,78.556,0,0,1-8.649-3.648,14.84,14.84,0,0,1-3.93,1.218c-1.857.308-3.722.527-5.543.651a54.545,54.545,0,0,1-11.362-.428,57.89,57.89,0,0,1-18.975-6.184A67.421,67.421,0,0,1,165.226,88.73c-1.289-1.3-2.615-2.705-4.044-4.3l-.078.023c-.593.168-1.2.283-1.781.394l-.144.027a32.058,32.058,0,0,0-3.367.858,50.454,50.454,0,0,0-6.7,2.653,118.4,118.4,0,0,0-12.05,6.862L135.4,96.278c-3.411,2.121-6.936,4.315-10.339,6.558-1.369.9-2.75,1.792-4.131,2.681-2.6,1.672-5.283,3.4-7.842,5.2-7.991,5.617-16.781,9.931-25.1,13.868a257.632,257.632,0,0,1-25.837,10.561c-4.349,1.5-8.784,2.9-13.183,4.156l-.84.24a102.142,102.142,0,0,1-13.014,3.1,1.583,1.583,0,0,1-1.391-.458c-6.629-2.207-10.889-8.129-13.864-13.057C11.755,115.705,6.25,103.244,3.032,91.036A88.8,88.8,0,0,1,.013,70.045a68.741,68.741,0,0,1,.58-10.579c.246-1.8.553-3.575.913-5.263A26.43,26.43,0,0,1,2.248,51.6a4.946,4.946,0,0,1,1.428-2.383,1.235,1.235,0,0,1,1.17-.287,26.36,26.36,0,0,1,4.316-2.435c5.735-2.561,12.044-3.6,18.147-4.6,1.852-.3,3.767-.62,5.619-.971,9.711-1.842,18.536-3.722,26.982-5.749a141.582,141.582,0,0,0,25.336-8.31c6.828-3.061,14.231-6.681,23.3-11.393l2.441-1.273a178.56,178.56,0,0,1,19.568-9.222A77.423,77.423,0,0,1,154.846.229c18.86-.807,37.629.642,55.1,2.328,8.859.855,18.281,1.824,27.516,3.443q.6.105,1.193.218a.884.884,0,0,1,.813-.305A9.769,9.769,0,0,0,240.6,6a9.379,9.379,0,0,1,1.471.13q.365.071.73.147c.476.1.952.2,1.432.274A39.268,39.268,0,0,0,248.874,7c3.134.134,6.29.041,9.235-.08,1.3-.053,2.593-.122,3.892-.192a97.615,97.615,0,0,1,12.766-.121,45.756,45.756,0,0,1,14.674,3.976,90.942,90.942,0,0,1,13.277,7.531c1.1.726,2.189,1.472,3.277,2.219.976.669,1.953,1.338,2.938,1.993.222.148.448.292.676.438a13.542,13.542,0,0,1,2.374,1.777c.358.36.75.708,1.13,1.045.27.24.54.479.8.726,7.692,2.372,14.937,4.313,22.144,5.933,1.767.4,3.542.767,5.317,1.137,2.761.576,5.615,1.171,8.4,1.864A36.75,36.75,0,0,1,355.7,37.18a11.6,11.6,0,0,1,2.532,1.563,43.512,43.512,0,0,1,5.967,4.225c2.438,1.991,4.722,4.044,6.826,5.965,4.745,4.331,8.285,7.806,11.477,11.268,4.063,4.406,7.847,8.937,11.012,12.787,2.771,3.37,5.635,6.761,8.4,10.04l1.209,1.431c2.6,3.078,4.092,5.965,4.442,8.584a.922.922,0,0,1,.049.138,4.9,4.9,0,0,1-.685,4.219c-1.732,2.486-5.794,3.7-8.747,3.991a23.977,23.977,0,0,1-13.835-3.124c-4.4-2.464-8.068-6.058-11.615-9.534q-.841-.824-1.679-1.638-1.425-1.377-2.857-2.75c-1.733-1.665-3.5-3.367-5.259-5.089.49,1.07.981,2.224,1.49,3.495a108.649,108.649,0,0,1,4.152,12.789c.39,1.484.806,2.963,1.223,4.443.825,2.933,1.678,5.966,2.312,9a83.742,83.742,0,0,1,1.868,14.476,35.525,35.525,0,0,1-.381,7.176c-.089.513-.165,1.028-.241,1.544-.1.7-.21,1.434-.354,2.153a9.752,9.752,0,0,1-.662,2.3,4.417,4.417,0,0,1-.453,1.535,7.1,7.1,0,0,1-1.734,2.054,8.85,8.85,0,0,1-4.007,2.062,10.067,10.067,0,0,1-5.851-.621,6.466,6.466,0,0,1-2.763,1.9,7.929,7.929,0,0,1-4.184.32c-6.09-.975-10.482-6.175-12.556-9.187a56.222,56.222,0,0,1-4.656-8.56c-.674-1.47-1.311-2.987-1.9-4.415l-.223-.53c-.232-.548-.471-1.115-.679-1.693l-.088-.244c-.1-.281-.2-.563-.305-.843-.013-.034-.024-.068-.035-.1q-.511-.551-1.016-1.105a99.293,99.293,0,0,1-9.565-12.3q-.61-.933-1.209-1.875c-.882-1.376-1.793-2.8-2.745-4.15a34.881,34.881,0,0,0-2.284-2.934c-.08-.091-.164-.182-.249-.271a36.343,36.343,0,0,1-3.977-2.423l-.232-.155-.162-.109a24.378,24.378,0,0,1,.425,3.584,42.225,42.225,0,0,1-.138,5.744c-.082.948-.18,1.812-.3,2.641-.021.149-.039.3-.057.451a8.07,8.07,0,0,1-.194,1.166,45.553,45.553,0,0,1,4.861,3.619,33.323,33.323,0,0,1,7.644,9.11c2.264,4.123,2.936,7.924,2,11.3a8.986,8.986,0,0,1-1.363,2.845l-.012.035c-.034.106-.068.211-.111.314a.868.868,0,0,1-.585.517,11.329,11.329,0,0,1-7,3.372,19.289,19.289,0,0,1-6.65-.436q-1.4-.168-3.141-.524c-1.5-.305-3.021-.692-4.644-1.176q-.039.149-.077.3a13.029,13.029,0,0,1-.384,1.3l-1.037,2.812c-.306.828-.612,1.655-.911,2.485-.62,1.725-1.2,3.349-1.665,5.061-.122.455-.227.913-.331,1.369a16.274,16.274,0,0,1-1.035,3.368c-.315.672-1.442,2.828-3.005,3.06-.07.037-.14.074-.208.114a4.685,4.685,0,0,1-2.055.663q-.256.02-.517.02m-69.734-51.61a.641.641,0,0,1,.293.071,76.163,76.163,0,0,0,8.787,3.729,121.35,121.35,0,0,0,12.745,3.595c2.516.612,5.118,1.244,7.659,1.966,3.742,1.063,7.075,2.119,10.19,3.228,3.095,1.1,6.191,2.338,9.185,3.535l2.186.872q.914.363,1.831.719c1.423.556,2.9,1.132,4.329,1.743,1.262.538,2.507,1.119,3.559,1.615a.643.643,0,0,1,.332.8,2.7,2.7,0,0,0-.05,1.175c.013.146.026.3.036.45.031.513.036,1.027.042,1.54,0,.227,0,.453.009.68a32.352,32.352,0,0,1-.252,4.476l-.137,1.146a41.225,41.225,0,0,0-.451,7.646c.266,3.969,2.155,8.872,6.657,10.731a7.008,7.008,0,0,0,3.2.592,3.4,3.4,0,0,0,1.507-.493c.12-.07.24-.133.361-.2a.658.658,0,0,1,.258-.073c.664-.046,1.547-1.211,2.076-2.338a15.08,15.08,0,0,0,.945-3.108c.108-.473.216-.947.343-1.417.475-1.763,1.095-3.488,1.695-5.157.3-.84.61-1.671.918-2.5l1.036-2.81a11.915,11.915,0,0,0,.344-1.175c.071-.276.142-.554.227-.833l0-.019a.644.644,0,0,1,.831-.552c1.826.565,3.516,1,5.166,1.341,1.127.23,2.142.4,3.1.518a18.25,18.25,0,0,0,6.274.425,9.96,9.96,0,0,0,6.372-3.146.642.642,0,0,1,.257-.179l.046-.141a.632.632,0,0,1,.091-.173,7.693,7.693,0,0,0,1.22-2.51c.845-3.04.211-6.517-1.886-10.335a32.045,32.045,0,0,0-7.354-8.752,44.905,44.905,0,0,0-5.143-3.785.644.644,0,0,1-.242-.8,4.676,4.676,0,0,0,.277-1.321c.019-.162.037-.323.061-.484.115-.806.209-1.647.29-2.571a41.144,41.144,0,0,0,.135-5.57,21.343,21.343,0,0,0-.782-4.952.644.644,0,0,1,.986-.71c.529.368,1.029.715,1.535,1.055l.232.155a34.4,34.4,0,0,0,3.931,2.387.657.657,0,0,1,.183.134c.124.13.247.261.363.394a36.087,36.087,0,0,1,2.369,3.042c.967,1.375,1.886,2.81,2.775,4.2.4.623.8,1.247,1.2,1.866a98.1,98.1,0,0,0,9.441,12.138c.366.4.737.806,1.11,1.206a.638.638,0,0,1,.149.267c.017.06.028.1.045.151.106.284.208.571.31.856l.087.243c.2.544.428,1.095.653,1.627l.225.537c.614,1.476,1.22,2.921,1.886,4.373a55.006,55.006,0,0,0,4.546,8.366c1.958,2.843,6.083,7.747,11.7,8.646a6.676,6.676,0,0,0,3.517-.251,4.375,4.375,0,0,0,2.367-1.768.644.644,0,0,1,.861-.331,8.959,8.959,0,0,0,5.586.762,7.562,7.562,0,0,0,3.42-1.767,6.018,6.018,0,0,0,1.433-1.665,3.008,3.008,0,0,0,.327-1.155.654.654,0,0,1,.067-.258,8.155,8.155,0,0,0,.61-2.092c.137-.687.242-1.4.342-2.088.077-.527.155-1.054.247-1.579a34.3,34.3,0,0,0,.363-6.913,82.461,82.461,0,0,0-1.842-14.254c-.625-2.995-1.472-6.006-2.291-8.919-.418-1.487-.837-2.973-1.228-4.464a107.411,107.411,0,0,0-4.1-12.638,60.115,60.115,0,0,0-3.095-6.7l-.118-.217a.644.644,0,0,1,1.023-.762c2.635,2.662,5.386,5.305,8.047,7.862q1.433,1.376,2.86,2.754c.562.543,1.122,1.093,1.686,1.644,3.487,3.417,7.092,6.95,11.342,9.33a22.67,22.67,0,0,0,13.081,2.966c2.891-.281,6.429-1.455,7.815-3.445a3.608,3.608,0,0,0,.5-3.119.926.926,0,0,1-.077-.232c-.291-2.4-1.691-5.095-4.161-8.021l-1.209-1.432c-2.772-3.282-5.639-6.676-8.416-10.053-3.154-3.836-6.923-8.349-10.964-12.732-3.167-3.434-6.682-6.885-11.4-11.19-2.091-1.909-4.359-3.947-6.773-5.918a42.191,42.191,0,0,0-5.829-4.126.682.682,0,0,1-.081-.054,10.462,10.462,0,0,0-2.29-1.426,35.618,35.618,0,0,0-5.716-1.864c-2.762-.687-5.6-1.28-8.352-1.853-1.781-.372-3.563-.743-5.336-1.142-7.285-1.637-14.608-3.6-22.386-6a.651.651,0,0,1-.255-.149c-.286-.274-.583-.537-.879-.8-.393-.35-.8-.712-1.186-1.1a12.565,12.565,0,0,0-2.155-1.6c-.234-.15-.468-.3-.7-.451-.99-.659-1.972-1.332-2.953-2-1.082-.741-2.164-1.483-3.259-2.206a89.823,89.823,0,0,0-13.086-7.426,44.45,44.45,0,0,0-14.256-3.87,96.562,96.562,0,0,0-12.6.122c-1.3.07-2.607.14-3.908.193-2.973.122-6.162.216-9.343.08a40.461,40.461,0,0,1-4.793-.467c-.5-.081-.991-.182-1.484-.283-.239-.049-.477-.1-.717-.145a8.352,8.352,0,0,0-1.271-.108c-.241-.008-.486-.017-.734-.035a.606.606,0,0,1-.663.375l-.537-.1c-.46-.086-.919-.173-1.38-.254-9.19-1.611-18.583-2.578-27.418-3.43C192.4,2.158,173.682.713,154.9,1.516a76.173,76.173,0,0,0-23.89,4.661,177.549,177.549,0,0,0-19.425,9.158l-2.443,1.274c-9.093,4.722-16.518,8.353-23.369,11.425A142.8,142.8,0,0,1,60.21,36.421c-8.466,2.031-17.312,3.916-27.043,5.762-1.868.354-3.79.67-5.65.976-6.022.991-12.249,2.016-17.831,4.509a25.155,25.155,0,0,0-4.41,2.53.644.644,0,0,1-.759-.008A3.718,3.718,0,0,0,3.477,51.98a25.025,25.025,0,0,0-.713,2.492c-.353,1.656-.654,3.4-.9,5.167A67.336,67.336,0,0,0,1.3,70.021,87.549,87.549,0,0,0,4.277,90.707c3.187,12.088,8.645,24.439,16.688,37.757,2.886,4.779,7.01,10.525,13.332,12.554a.644.644,0,0,1,.327.239.3.3,0,0,0,.307.115A101.234,101.234,0,0,0,47.778,138.3l.841-.24c4.377-1.246,8.788-2.636,13.115-4.134a256.227,256.227,0,0,0,25.707-10.508c8.267-3.913,17-8.2,24.909-13.757,2.58-1.814,5.277-3.55,7.886-5.229,1.377-.887,2.754-1.774,4.119-2.673,3.416-2.253,6.95-4.451,10.367-6.577l1.657-1.031a119.463,119.463,0,0,1,12.182-6.934,51.734,51.734,0,0,1,6.875-2.72,33.11,33.11,0,0,1,3.5-.891l.146-.028c.556-.106,1.131-.216,1.671-.368a3.046,3.046,0,0,0,.363-.131.643.643,0,0,1,.734.164c1.526,1.714,2.929,3.21,4.288,4.577a66.156,66.156,0,0,0,15.9,12.145,56.611,56.611,0,0,0,18.554,6.047,53.247,53.247,0,0,0,11.093.418c1.78-.121,3.6-.336,5.42-.637a13.661,13.661,0,0,0,3.866-1.244.643.643,0,0,1,.283-.066m185.145-10.91h0" transform="translate(0 0)"/>
    <path id="Path_3457" data-name="Path 3457" d="M445.874,130.769q1.359.629,2.731,1.235l34.288-36.782c-.376-.094-.751-.191-1.124-.292-.656-.178-1.306-.373-1.957-.567Z" transform="translate(-158.739 -33.595)"/>
    <path id="Path_3458" data-name="Path 3458" d="M458.7,135.515q1.381.6,2.758,1.207L497.88,97.649c-.256-.006-.511-.01-.766-.017-.989-.027-1.974-.076-2.956-.155Z" transform="translate(-163.304 -34.703)"/>
    <path id="Path_3459" data-name="Path 3459" d="M405.234,112.546c.124.146.255.285.38.43l14.747-15.819c-2.886,1.72-5.754,3.459-8.639,5.1l-7.69,8.251c.408.773.9,1.508,1.2,2.038" transform="translate(-143.842 -34.589)"/>
    <path id="Path_3460" data-name="Path 3460" d="M412.514,116.819q1.007,1,2.051,1.965l21.014-22.543c-1.329.067-2.656.113-3.98.1Z" transform="translate(-146.862 -34.264)"/>
    <path id="Path_3461" data-name="Path 3461" d="M422.428,122.144q1.125.878,2.288,1.71L451.3,95.336l-.095.015a34.445,34.445,0,0,1-4.025.238Z" transform="translate(-150.392 -33.941)"/>
    <path id="Path_3462" data-name="Path 3462" d="M433.492,124.944c.041.024.08.051.122.075.8.469,1.612.918,2.428,1.355l33.225-35.641c-.721-.226-1.443-.451-2.168-.663a.322.322,0,0,1-.165-.5c-.234.084-.468.171-.7.255Z" transform="translate(-154.331 -31.888)"/>
    <path id="Path_3463" data-name="Path 3463" d="M560.495,167.929,533.861,196.5c.094.167.184.336.281.5.324.292.65.574.981.839.252.2.522.405.806.607l25.313-27.154q-.343-1.7-.748-3.364" transform="translate(-190.064 -59.786)"/>
    <path id="Path_3464" data-name="Path 3464" d="M566.379,184.3l-21.1,22.633a10.4,10.4,0,0,0,3.415.5l17.889-19.19c-.013-1.309-.086-2.627-.205-3.945" transform="translate(-194.129 -65.615)"/>
    <path id="Path_3465" data-name="Path 3465" d="M572.051,207.248q.351-.974.624-1.971l-7.067,7.581c3.5-.156,6.666-1.754,6.443-5.61" transform="translate(-201.366 -73.082)"/>
    <path id="Path_3466" data-name="Path 3466" d="M537.913,110.915l-.153-.18L504.905,145.98c.475.867.965,1.73,1.478,2.58l32.45-34.81q-.5-1.407-.92-2.835" transform="translate(-179.755 -39.424)"/>
    <path id="Path_3467" data-name="Path 3467" d="M543.913,124.324l-31.532,33.825c.351.412.711.815,1.092,1.2.29.292.569.589.847.887l31-33.249q-.737-1.309-1.4-2.661" transform="translate(-182.416 -44.261)"/>
    <path id="Path_3468" data-name="Path 3468" d="M550.3,137.96l-29.7,31.86c.419.754.822,1.518,1.218,2.284.064.123.129.245.194.367l29.221-31.346q-.451-1.576-.933-3.165" transform="translate(-185.344 -49.116)"/>
    <path id="Path_3469" data-name="Path 3469" d="M556.331,155.949c-.125-.419-.249-.837-.374-1.248-.19-.627-.379-1.266-.565-1.911l-28.21,30.263q.71,1.32,1.418,2.644Z" transform="translate(-187.686 -54.396)"/>
    <path id="Path_3470" data-name="Path 3470" d="M471.4,158.057l.087.043c.825.408,1.674.852,2.533,1.312l4.659-5a36.4,36.4,0,0,0-.075-4.084Z" transform="translate(-167.825 -53.52)"/>
    <path id="Path_3471" data-name="Path 3471" d="M489.965,129.766l.036.026L519.51,98.137c-.1-.01-.2-.025-.307-.033-1.134-.089-2.273-.122-3.413-.142l-28.232,30.285c.806.5,1.622.986,2.407,1.519" transform="translate(-173.579 -34.876)"/>
    <path id="Path_3472" data-name="Path 3472" d="M498.687,136.4c.231.337.445.683.661,1.028l31.757-34.067c-.254-.206-.512-.409-.766-.616-.482-.393-.975-.777-1.481-1.14l-31.166,33.432q.516.665.994,1.363" transform="translate(-177.187 -36.175)"/>
    <path id="Path_3473" data-name="Path 3473" d="M231.24,83.452l3.034-3.034a24.547,24.547,0,0,0-2.761-.135c-.455.061-.911.134-1.368.207l-.933.934Z" transform="translate(-81.603 -28.582)"/>
    <path id="Path_3474" data-name="Path 3474" d="M418.337,173.753l-6.641,6.641c.968.383,1.936.765,2.9,1.16l6.2-6.2q-1.211-.826-2.454-1.6" transform="translate(-146.571 -61.859)"/>
    <path id="Path_3475" data-name="Path 3475" d="M355.966,162.915l8.84-8.84c-.885-.461-1.75-.948-2.6-1.454L353,161.828q1.465.571,2.969,1.087" transform="translate(-125.673 -54.336)"/>
    <path id="Path_3476" data-name="Path 3476" d="M370.488,167.836l8-8c-1.008-.325-2.01-.674-3-1.053l-8.213,8.213q1.6.437,3.214.843" transform="translate(-130.756 -56.528)"/>
    <path id="Path_3477" data-name="Path 3477" d="M385.667,171.8l7.7-7.7q-1.6-.433-3.2-.858l-7.77,7.77q1.645.391,3.27.786" transform="translate(-136.14 -58.117)"/>
    <path id="Path_3478" data-name="Path 3478" d="M400.576,175.927l7.312-7.312c-.878-.393-1.772-.755-2.689-1.072-.073-.026-.149-.047-.223-.072l-7.515,7.515c1.057.3,2.1.613,3.115.942" transform="translate(-141.503 -59.623)"/>
    <path id="Path_3479" data-name="Path 3479" d="M297.64,142.5,313.3,126.842q-1.629-.394-3.245-.811l-14.441,14.441Z" transform="translate(-105.243 -44.869)"/>
    <path id="Path_3480" data-name="Path 3480" d="M307.088,149.964l18.989-18.989c-.978-.4-1.979-.75-2.991-1.065L305.06,147.936Z" transform="translate(-108.607 -46.25)"/>
    <path id="Path_3481" data-name="Path 3481" d="M320.6,155l17.1-17.1c-.74-.621-1.493-1.22-2.269-1.788l-18.641,18.641c1.244.121,2.52.209,3.81.246" transform="translate(-112.784 -48.46)"/>
    <path id="Path_3482" data-name="Path 3482" d="M340.427,155.878c.336.189.686.359,1.027.54l9.931-9.932q-1.149-.86-2.276-1.781l-12.548,12.548a19.234,19.234,0,0,0,3.865-1.376" transform="translate(-119.822 -51.518)"/>
    <path id="Path_3483" data-name="Path 3483" d="M259.716,108.343l7.812-7.812q-1.106-.909-2.215-1.842l-7.625,7.626Z" transform="translate(-91.741 -35.135)"/>
    <path id="Path_3484" data-name="Path 3484" d="M269.164,117.431l8.512-8.512c-.757-.6-1.51-1.2-2.262-1.794l-8.278,8.278Z" transform="translate(-95.105 -38.138)"/>
    <path id="Path_3485" data-name="Path 3485" d="M278.612,126.426l9.521-9.521q-1.25-.762-2.455-1.6l-9.094,9.095Z" transform="translate(-98.469 -41.05)"/>
    <path id="Path_3486" data-name="Path 3486" d="M288.06,134.892l11.878-11.878c-1.023-.3-2.034-.634-3.034-1.022l-10.872,10.872Z" transform="translate(-101.832 -43.431)"/>
    <path id="Path_3487" data-name="Path 3487" d="M240.688,90.528l6.106-6.106c-.627-.352-1.259-.69-1.9-1-.263-.126-.533-.238-.8-.354L238.66,88.5Z" transform="translate(-84.967 -29.574)"/>
    <path id="Path_3488" data-name="Path 3488" d="M250.136,99.132l7.225-7.225q-1.136-.9-2.3-1.76L248.108,97.1Z" transform="translate(-88.331 -32.094)"/>
    <path id="Path_3489" data-name="Path 3489" d="M441.357,224.258l16.85-16.85c.089-.359.185-.718.258-1.081.212.064.426.124.639.184l1.783-1.783q-1.417-.588-2.808-1.249l-18.18,18.18a19.335,19.335,0,0,0,1.457,2.6" transform="translate(-156.612 -72.442)"/>
    <path id="Path_3490" data-name="Path 3490" d="M453.7,234.965a1.394,1.394,0,0,0,.434-.01c2.8-.49,3.447-4.226,3.957-6.485.008-.032.017-.062.024-.093l-7.258,7.258a6.656,6.656,0,0,0,2.842-.669" transform="translate(-160.514 -81.306)"/>
    <path id="Path_3491" data-name="Path 3491" d="M481.413,209.85c.77.171,1.545.307,2.318.41l.739-.739c-1.091-.242-2.173-.508-3.24-.816l-1.036,1.036c.407.044.813.082,1.219.11" transform="translate(-170.957 -74.302)"/>
    <path id="Path_3492" data-name="Path 3492" d="M431.579,182.455l-1.306-.96-5.228,5.227c.943.409,1.886.816,2.826,1.231l4.747-4.747c-.346-.251-.694-.5-1.039-.752" transform="translate(-151.323 -64.615)"/>
    <path id="Path_3493" data-name="Path 3493" d="M441.873,189.34l-4.079,4.079c0,1.405-.068,2.808-.154,4.21l6.67-6.669q-1.226-.8-2.437-1.62" transform="translate(-155.807 -67.408)"/>
    <path id="Path_3494" data-name="Path 3494" d="M449.032,196.7l-12.14,12.14a34.331,34.331,0,0,0,.171,3.885L451.592,198.2q-1.287-.736-2.56-1.5" transform="translate(-155.54 -70.03)"/>
    <path id="Path_3495" data-name="Path 3495" d="M159.51,86.971,78.688,167.793c1.908-.523,3.814-1.07,5.715-1.659l81.348-81.349c-2.094.676-4.178,1.414-6.241,2.186" transform="translate(-28.014 -30.185)"/>
    <path id="Path_3496" data-name="Path 3496" d="M74.455,118.615q-1.309.22-2.61.424L26.292,164.592q.724,1.3,1.468,2.588l48.964-48.964c-.756.135-1.512.272-2.269.4" transform="translate(-9.36 -42.087)"/>
    <path id="Path_3497" data-name="Path 3497" d="M89.434,114.432,33.559,170.307l2.029,2.028,59.1-59.1q-2.622.629-5.257,1.2" transform="translate(-11.948 -40.312)"/>
    <path id="Path_3498" data-name="Path 3498" d="M109.047,107.819l-66.04,66.04,2.028,2.028L114.8,106.121q-2.869.877-5.754,1.7" transform="translate(-15.311 -37.781)"/>
    <path id="Path_3499" data-name="Path 3499" d="M130.863,98.647,54.142,175.368a1.352,1.352,0,0,0,.254-.005c1.556-.259,3.112-.551,4.67-.863l78.18-78.18q-3.179,1.2-6.383,2.327" transform="translate(-19.275 -34.292)"/>
    <path id="Path_3500" data-name="Path 3500" d="M17.681,116.546,6.02,128.208q.351,1.672.712,3.344l14.117-14.117q-1.589-.41-3.167-.889" transform="translate(-2.143 -41.492)"/>
    <path id="Path_3501" data-name="Path 3501" d="M29.153,120.239l-.374-.068L9.57,139.38q.422,1.592.883,3.174l21.832-21.832c-1.041-.143-2.085-.3-3.132-.482" transform="translate(-3.407 -42.783)"/>
    <path id="Path_3502" data-name="Path 3502" d="M41.3,122.117,14.074,149.341q.549,1.465,1.147,2.91l30-30q-1.96-.024-3.926-.131" transform="translate(-5.011 -43.476)"/>
    <path id="Path_3503" data-name="Path 3503" d="M55.583,121.767,19.741,157.608c.44.909.88,1.818,1.338,2.719L60,121.408q-2.211.218-4.415.359" transform="translate(-7.028 -43.223)"/>
    <path id="Path_3504" data-name="Path 3504" d="M7.673,111.185l-4.8,4.8c.146,1.177.348,2.343.57,3.487l7.025-7.025q-1.416-.594-2.791-1.265" transform="translate(-1.022 -39.584)"/>
    <path id="Path_3505" data-name="Path 3505" d="M286.813,154.216q1.41.639,2.853,1.2l4.67-4.671-2.028-2.028Z" transform="translate(-102.11 -52.947)"/>
    <path id="Path_3506" data-name="Path 3506" d="M300.733,160.783q1.629.435,3.282.774l1.362-1.361-2.028-2.029Z" transform="translate(-107.066 -56.31)"/>
    <path id="Path_3507" data-name="Path 3507" d="M251.108,112.824,249.08,110.8l-15.092,15.092c2.058-.77,4.147-1.434,6.207-2.152Z" transform="translate(-83.304 -39.445)"/>
    <path id="Path_3508" data-name="Path 3508" d="M264.276,122.272l-2.028-2.028-8.363,8.362q1.016,1.018,2.051,2.005Z" transform="translate(-90.387 -42.809)"/>
    <path id="Path_3509" data-name="Path 3509" d="M273.855,131.72l-2.028-2.028-8.126,8.125c.738.623,1.485,1.227,2.237,1.819Z" transform="translate(-93.882 -46.173)"/>
    <path id="Path_3510" data-name="Path 3510" d="M283.772,141.167l-2.028-2.028-7.278,7.278q1.229.812,2.5,1.557Z" transform="translate(-97.715 -49.536)"/>
    <path id="Path_3511" data-name="Path 3511" d="M185.477,82.32l-78.632,78.632q3.409-1.3,6.773-2.718L187.5,84.348Z" transform="translate(-38.039 -29.307)"/>
    <path id="Path_3512" data-name="Path 3512" d="M205.593,93.8l-2.028-2.028-63,63q4.261-2.112,8.386-4.33Z" transform="translate(-50.042 -32.671)"/>
    <path id="Path_3513" data-name="Path 3513" d="M228.075,103.243l-2.028-2.028L186.622,140.64c3.707-2.49,7.421-4.97,11.218-7.3l.357-.222Z" transform="translate(-66.441 -36.034)"/>
    <path id="Path_3514" data-name="Path 3514" d="M33.65,202.481q.731,1.072,1.513,2.083l.285-.285Z" transform="translate(-11.98 -72.087)"/>
    <path id="Path_3515" data-name="Path 3515" d="M44.542,213.6l-2.028-2.028-.412.412a21.439,21.439,0,0,0,2.317,1.738Z" transform="translate(-14.989 -75.324)"/>
    <path id="Path_3516" data-name="Path 3516" d="M216.385,87.568c2.059,2.669,4.246,5.226,6.365,7.848,2.19,2.711,4.314,5.476,6.473,8.212a180.581,180.581,0,0,0,13.483,15.7,67.29,67.29,0,0,0,16.051,12.259,57.557,57.557,0,0,0,18.765,6.116,53.706,53.706,0,0,0,11.227.422c1.836-.125,3.667-.343,5.482-.644a14.9,14.9,0,0,0,5.242-1.941.219.219,0,0,0-.109-.405,27.8,27.8,0,0,0-4.915.191c-1.587.24-3.186.4-4.787.487a59.286,59.286,0,0,1-9.745-.3,55.866,55.866,0,0,1-18.362-5.352,62.532,62.532,0,0,1-15.937-11.449,191.116,191.116,0,0,1-13.508-15.1c-2.431-2.906-4.863-5.8-7.407-8.613a61.714,61.714,0,0,0-8-7.737c-.178-.137-.451.135-.314.314" transform="translate(-77.024 -31.051)"/>
    <path id="Path_3517" data-name="Path 3517" d="M328.993,151.923a26.981,26.981,0,0,0,4.03,3.639,45.441,45.441,0,0,0,4.512,2.763,74.307,74.307,0,0,0,9.627,4.145c6.665,2.418,13.645,3.642,20.448,5.575,3.418.971,6.8,2.023,10.15,3.215,3.822,1.36,7.579,2.9,11.349,4.4,2.05.814,4.116,1.591,6.144,2.456,2,.853,3.955,1.8,5.921,2.736s3.935,1.844,5.912,2.744c1.658.755,3.288,1.591,4.975,2.278a67.586,67.586,0,0,0,11.971,3.8c3.922.8,8.108,1.224,11.912-.26a.109.109,0,0,0-.057-.209,22.833,22.833,0,0,1-11.156-.045,57.289,57.289,0,0,1-10.5-4.323c-3.441-1.688-6.992-3.143-10.518-4.643-2.007-.853-4.023-1.689-6.018-2.569-1.893-.835-3.724-1.792-5.588-2.687-3.76-1.8-7.588-3.516-11.511-4.937a98.334,98.334,0,0,0-10.081-2.932c-6.724-1.652-13.4-3.365-20-5.473a60.043,60.043,0,0,1-10.579-4.4,54.487,54.487,0,0,1-5.034-3.085c-1.641-1.14-3.348-2.236-4.928-3.454-.745-.575-1.6.632-.98,1.271" transform="translate(-117.052 -53.581)"/>
    <path id="Path_3518" data-name="Path 3518" d="M383.513,94.872a36.691,36.691,0,0,0,4.087,5.8c1.413,1.845,2.823,3.7,4.31,5.486,3.015,3.622,6.157,7.144,9.514,10.454a69.265,69.265,0,0,0,10.634,8.783,101.905,101.905,0,0,0,11.61,6.5c4.037,1.944,8.142,3.747,12.252,5.531a79.166,79.166,0,0,1,10.23,5.2c6.095,3.772,12.208,9.3,13.184,16.843.478,3.7-1.2,7.165-4.851,8.41-5.051,1.726-10.282-.783-15.427-.438a.072.072,0,0,0-.019.142c4.477,1.674,9.161,3.506,14.037,2.906,3.883-.478,7.438-2.691,8.529-6.616,1.032-3.713-.146-7.547-1.942-10.817a32.671,32.671,0,0,0-7.5-8.931c-6.343-5.438-14.032-8.652-21.64-11.885-4.259-1.811-8.5-3.68-12.573-5.9a63.22,63.22,0,0,1-11.53-8.134,116.612,116.612,0,0,1-11.37-11.7q-2.656-3.1-5.258-6.245c-1.707-2.065-3.272-4.406-5.312-6.146a.618.618,0,0,0-.967.746" transform="translate(-136.51 -33.451)"/>
    <path id="Path_3519" data-name="Path 3519" d="M402.066,107.558c.648-.583.517-1.462.747-2.226a4.39,4.39,0,0,1,1.032-1.692A13.425,13.425,0,0,1,407.9,100.9c1.457-.711,2.978-1.276,4.45-1.951,2.352-1.079,4.69-2.195,6.941-3.476a24.2,24.2,0,0,0,3.532-2.352,16.283,16.283,0,0,0,2.733-3.329c.187-.267-.172-.578-.43-.43-1.173.676-2.435,1.159-3.606,1.843s-2.3,1.458-3.464,2.155c-2.3,1.374-4.7,2.58-7.112,3.74-3,1.444-6.628,2.517-8.858,5.14-.946,1.113-2.758,4.406-.769,5.412a.642.642,0,0,0,.747-.1" transform="translate(-142.558 -31.801)"/>
    <path id="Path_3520" data-name="Path 3520" d="M429.231,92.424a5.282,5.282,0,0,0,.86.435,4.83,4.83,0,0,0,1.13.028c.893,0,1.782-.006,2.675-.033q2.6-.078,5.2-.147c3.461-.1,6.94-.107,10.395-.351A37.86,37.86,0,0,0,458.425,91c2.689-.855,5.289-1.964,7.989-2.785a25.855,25.855,0,0,1,4.179-.99,31.594,31.594,0,0,1,4.459-.484.6.6,0,0,0,.3-1.1,9.039,9.039,0,0,0-3.8-1.3,13.779,13.779,0,0,0-4.125.431,68.27,68.27,0,0,0-8.139,2.687,37.166,37.166,0,0,1-8.223,1.886c-3.46.394-6.918.815-10.387,1.127-2,.18-3.994.35-5.99.524-.946.082-1.892.158-2.834.28-.518.068-1.061.1-1.572.207a3.066,3.066,0,0,0-1.046.587.207.207,0,0,0,0,.354" transform="translate(-152.778 -30.014)"/>
    <path id="Path_3521" data-name="Path 3521" d="M484.208,90.274a6.05,6.05,0,0,0,3.055,1.906c1.239.455,2.486.9,3.747,1.291a46.522,46.522,0,0,0,7.82,1.67,55.465,55.465,0,0,0,8.287.255c2.873-.059,5.748-.053,8.618.084,1.564.075,3.125.188,4.682.349a12.766,12.766,0,0,0,4.832.073.527.527,0,0,0,.124-.949,8.249,8.249,0,0,0-3.862-1.185q-2.1-.273-4.215-.433c-2.81-.216-5.63-.3-8.448-.3-2.758,0-5.521.181-8.275-.034a44.114,44.114,0,0,1-7.7-1.368c-1.461-.381-2.92-.768-4.369-1.2-1.369-.4-2.7-.933-4.132-.571a.279.279,0,0,0-.166.408" transform="translate(-172.371 -31.951)"/>
    <path id="Path_3522" data-name="Path 3522" d="M538.735,97.885c.41.363.752.8,1.177,1.135.547.431,1.1.851,1.661,1.269a36.941,36.941,0,0,1,2.967,2.516c1.933,1.8,3.727,3.738,5.552,5.647,4.257,4.453,8.772,8.673,13.2,12.954,4.091,3.955,8.15,8.267,13.161,11.073a23.238,23.238,0,0,0,13.458,3.045c3.752-.365,10.185-2.4,8.87-7.406a.66.66,0,0,0-1.192-.156,8.147,8.147,0,0,1-2.879,3.722,11.649,11.649,0,0,1-4.89,1.509,21.3,21.3,0,0,1-12.6-2.755c-4.857-2.719-8.66-6.952-12.607-10.8-4.216-4.108-8.522-8.153-12.57-12.428a70.242,70.242,0,0,0-6.113-5.974,25.916,25.916,0,0,0-3.464-2.472,11.953,11.953,0,0,0-1.724-.791,6.635,6.635,0,0,0-1.917-.3.122.122,0,0,0-.086.206" transform="translate(-191.787 -34.775)"/>
    <path id="Path_3523" data-name="Path 3523" d="M53.779,187.369a108.539,108.539,0,0,0,13.771-3.327q6.63-1.887,13.149-4.145a255.864,255.864,0,0,0,25.772-10.534c8.6-4.068,17.207-8.332,25-13.813,3.908-2.747,8-5.261,11.988-7.891,3.793-2.5,7.667-4.895,11.524-7.3a123.154,123.154,0,0,1,12.6-7.2,51.177,51.177,0,0,1,6.789-2.686,32.9,32.9,0,0,1,3.434-.875c.626-.119,1.258-.234,1.871-.408a9.019,9.019,0,0,0,1.6-.751.391.391,0,0,0-.093-.706,7.04,7.04,0,0,0-3.112-.254c-1.078.146-2.161.393-3.219.641a43.726,43.726,0,0,0-6.224,1.919,74.72,74.72,0,0,0-11.454,5.921c-3.834,2.363-7.478,5.013-11.138,7.633-3.894,2.786-7.886,5.445-11.938,8-4.127,2.6-8.4,5-12.66,7.38-4.1,2.291-8.219,4.525-12.42,6.617a252.815,252.815,0,0,1-25.605,10.989q-7.3,2.676-14.749,4.894c-2.54.755-5.094,1.454-7.651,2.145s-5.17,1.269-7.709,2.052a.882.882,0,0,0,.469,1.7" transform="translate(-18.755 -45.36)"/>
    <path id="Path_3524" data-name="Path 3524" d="M7.691,52.2c6.6-4.415,14.574-5.45,22.219-6.835q13.45-2.437,26.784-5.445A187.647,187.647,0,0,0,82.142,32.8c8.17-3.1,15.908-7.122,23.655-11.131,14.253-7.375,28.641-16.1,44.949-17.736a193.954,193.954,0,0,1,27.042-.4c9.094.364,18.17,1.092,27.236,1.877q13.7,1.187,27.332,3.078c9.066,1.271,18.181,2.22,27.237,3.533,2.263.328,4.516.72,6.768,1.112.09.015.131-.118.039-.14-8.925-2.137-17.807-4.415-26.854-6-9.073-1.591-18.3-2.552-27.467-3.437C193.842,1.8,175.394.445,157.066,1.229a76.742,76.742,0,0,0-24.089,4.7c-7.6,2.857-14.745,6.726-21.939,10.463C103.369,20.377,95.589,24.266,87.7,27.8a143.7,143.7,0,0,1-25.45,8.348C53.3,38.3,44.286,40.191,35.241,41.906c-7.891,1.5-16.219,2.224-23.623,5.53a25.886,25.886,0,0,0-5,2.931c-1.068.8-.088,2.611,1.072,1.835" transform="translate(-2.193 -0.356)"/>
    <path id="Path_3525" data-name="Path 3525" d="M453.78,32.891a9.785,9.785,0,0,0,2.865,1.412q1.756.652,3.517,1.287c2.25.811,4.5,1.618,6.785,2.328q6.845,2.13,13.765,4.006c4.65,1.261,9.3,2.526,13.978,3.68,4.53,1.118,9.085,2.124,13.622,3.21a48.994,48.994,0,0,1,6.592,1.97c1.054.415,2.1.856,3.154,1.256a16.687,16.687,0,0,1,3.171,1.381c.3.188.594-.229.366-.475-.36-.387-.752-.744-1.1-1.14a8.462,8.462,0,0,0-.927-1.065,11.611,11.611,0,0,0-2.65-1.68,36.517,36.517,0,0,0-5.818-1.9c-4.535-1.128-9.144-1.974-13.7-3-9.4-2.111-18.631-4.724-27.783-7.717q-3.851-1.26-7.709-2.5-1.927-.619-3.848-1.26a12.886,12.886,0,0,0-3.79-.976c-.553-.008-.966.791-.487,1.175" transform="translate(-161.479 -11.291)"/>
    <path id="Path_3526" data-name="Path 3526" d="M552.9,59.956c3.589,3.716,7.827,6.792,11.675,10.24,3.877,3.474,7.409,7.284,10.988,11.057,3.738,3.941,7.379,7.98,10.95,12.073,3.338,3.826,6.493,7.81,9.891,11.582a38.837,38.837,0,0,1,4.42,5.814,16.25,16.25,0,0,1,2.3,6.744.206.206,0,0,0,.4.055c1.218-4.062-1.562-8.423-4.076-11.4-3.221-3.814-6.448-7.622-9.619-11.478-3.564-4.335-7.183-8.632-10.988-12.759-3.629-3.935-7.486-7.622-11.438-11.229-2.226-2.032-4.465-4.035-6.8-5.941a37.388,37.388,0,0,0-7.506-5.021.17.17,0,0,0-.2.265" transform="translate(-196.825 -21.245)"/>
    <path id="Path_3527" data-name="Path 3527" d="M371.382,10.568c.594.337,1.177.686,1.761,1.038a6.993,6.993,0,0,0,1.852.639,38.8,38.8,0,0,0,4.018.831,54.158,54.158,0,0,0,8.193.585c5.536.011,11.059-.556,16.6-.4a56.288,56.288,0,0,1,7.883.675A35.666,35.666,0,0,1,418.7,16a80.3,80.3,0,0,1,13.218,7.01c2.347,1.481,4.688,2.978,6.983,4.54a25.439,25.439,0,0,0,3.535,2.294c.6.272,1.227.45,1.815.743a12.17,12.17,0,0,0,1.83.775.207.207,0,0,0,.2-.343c-.8-.862-1.741-1.572-2.573-2.408a18.364,18.364,0,0,0-2.951-2.133c-2.084-1.386-4.125-2.833-6.214-4.212a89.627,89.627,0,0,0-13.181-7.478A45.207,45.207,0,0,0,406.9,10.869c-5.517-.432-11.068.088-16.581.314-3.095.126-6.193.212-9.289.08a40.08,40.08,0,0,1-4.717-.46c-.732-.118-1.453-.283-2.181-.424-.833-.162-1.727-.077-2.578-.209-.228-.035-.4.266-.167.4" transform="translate(-132.179 -3.62)"/>
    <path id="Path_3528" data-name="Path 3528" d="M552.021,109.811c.753,2.043,2.2,3.8,3.265,5.7q1.562,2.782,2.867,5.7a99.608,99.608,0,0,1,4.292,12.118c1.282,4.3,2.278,8.676,3.2,13.066a105.928,105.928,0,0,1,2.343,13.653,59.246,59.246,0,0,1-.01,7.734,25.682,25.682,0,0,1-.511,4.058,12.73,12.73,0,0,0-.658,3.863c.039.4.585.769.907.376a6.476,6.476,0,0,0,1.186-3.069c.243-1.222.377-2.457.592-3.682a34.6,34.6,0,0,0,.371-7.045,83.285,83.285,0,0,0-1.855-14.365c-.943-4.523-2.353-8.95-3.528-13.416a108.534,108.534,0,0,0-4.127-12.713,61.638,61.638,0,0,0-3.128-6.767c-1.149-2.094-2.327-4.467-4.245-5.943-.445-.343-1.145.227-.958.736" transform="translate(-196.518 -38.795)"/>
    <path id="Path_3529" data-name="Path 3529" d="M480.652,91.918a3.569,3.569,0,0,0,.471,1.4,13.076,13.076,0,0,0,1.439,1.512c.941.951,1.882,1.9,2.847,2.828l5.791,5.56c3.9,3.743,7.788,7.5,11.731,11.2q1.64,1.538,3.279,3.078a9.537,9.537,0,0,0,3.631,2.365.462.462,0,0,0,.564-.564c-.868-2.384-3.207-4.086-4.992-5.771q-2.92-2.757-5.863-5.487l-11.929-11c-1.1-1.017-2.214-2.023-3.344-3.013-.565-.494-1.119-1-1.7-1.474a3.321,3.321,0,0,0-1.833-.715.074.074,0,0,0-.089.089" transform="translate(-171.12 -32.692)"/>
    <path id="Path_3530" data-name="Path 3530" d="M511.723,121.214a5.221,5.221,0,0,0,.883,1.866c.426.685.817,1.4,1.178,2.124a24.194,24.194,0,0,1,1.577,4.2c.849,2.973,1.394,6.013,2.1,9.02a32.32,32.32,0,0,0,3.164,8.515,59.944,59.944,0,0,0,5.481,7.674c1.051,1.329,2.08,2.677,3.136,4a24.887,24.887,0,0,0,1.629,1.978,11.6,11.6,0,0,1,1.9,2.076c.106.182.435.061.353-.149-.267-.681-.35-1.408-.549-2.114a9.148,9.148,0,0,0-.965-2.228,34.7,34.7,0,0,0-2.785-3.843c-1.949-2.447-4.062-4.758-5.784-7.38a27.006,27.006,0,0,1-3.548-8.582c-.745-3.036-1.229-6.146-2.143-9.139a27.7,27.7,0,0,0-1.891-4.733c-.695-1.333-1.752-3.3-3.3-3.732a.367.367,0,0,0-.446.446" transform="translate(-182.18 -42.991)"/>
    <path id="Path_3531" data-name="Path 3531" d="M536.185,173.374c-.1,1.84.706,3.61,1.263,5.33.592,1.828,1.171,3.657,1.822,5.464a83.769,83.769,0,0,0,4.541,10.488c1.439,2.747,3.067,5.283,5.742,6.968a10.1,10.1,0,0,0,7.357,1.54,8.2,8.2,0,0,0,3.714-1.915,6.788,6.788,0,0,0,1.584-1.859,2.8,2.8,0,0,0,.247-2.271.354.354,0,0,0-.4-.161,3.4,3.4,0,0,0-1.413,1.062c-.48.469-.83,1.061-1.32,1.533a6.049,6.049,0,0,1-2.729,1.522,8.04,8.04,0,0,1-6.2-1.265,15.679,15.679,0,0,1-5.144-6.3,62.59,62.59,0,0,1-3.794-9.8q-.907-2.806-1.851-5.6c-.6-1.777-1.079-3.765-2.414-5.153a.6.6,0,0,0-1.01.419" transform="translate(-190.888 -61.513)"/>
    <path id="Path_3532" data-name="Path 3532" d="M441.589,99.338a14.177,14.177,0,0,0,2.312,4.224c.969,1.356,1.963,2.7,3,4a93.1,93.1,0,0,0,6.745,7.471A101.824,101.824,0,0,0,469.2,127.8a32.058,32.058,0,0,0,4.772,2.851,40.956,40.956,0,0,0,5.358,1.954c.185.053.365-.21.2-.343-1.267-1.017-2.533-2.012-3.834-2.985s-2.694-1.851-4.076-2.732c-2.782-1.773-5.484-3.677-8.076-5.717a106.067,106.067,0,0,1-14.4-13.648c-1.186-1.361-2.369-2.726-3.507-4.128a23.013,23.013,0,0,0-3.663-4.015c-.19-.146-.451.095-.39.3" transform="translate(-157.21 -35.243)"/>
    <path id="Path_3533" data-name="Path 3533" d="M488.425,144.032a9.216,9.216,0,0,0,2.029,2.58,35.542,35.542,0,0,1,2.326,2.987c1.387,1.971,2.65,4.028,3.967,6.044a98.286,98.286,0,0,0,9.5,12.218c.983,1.086,1.977,2.172,3.037,3.183a20.929,20.929,0,0,0,3.747,2.529c.126.078.311-.085.214-.214-.75-1.009-1.309-2.141-2.158-3.081-.918-1.015-1.914-1.959-2.853-2.953q-2.719-2.88-5.188-5.979c-3.121-3.922-5.61-8.25-8.59-12.267-.782-1.054-1.6-2.087-2.472-3.064-.829-.927-1.791-2.191-3.059-2.488-.279-.066-.621.2-.5.5" transform="translate(-173.879 -51.095)"/>
    <path id="Path_3534" data-name="Path 3534" d="M517.545,181.566a10.075,10.075,0,0,0,.255,1.118c.135.363.265.728.4,1.093.267.743.587,1.465.89,2.193.613,1.474,1.229,2.943,1.9,4.394a55.7,55.7,0,0,0,4.6,8.463c2.829,4.106,7,8.1,12.128,8.917a7.4,7.4,0,0,0,3.85-.285c1.131-.435,2.82-1.382,2.875-2.732a.561.561,0,0,0-.7-.535,3.461,3.461,0,0,0-1.316.882,4.609,4.609,0,0,1-1.493.775,6.278,6.278,0,0,1-2.929.125,14.592,14.592,0,0,1-6.113-2.964c-4.252-3.284-6.844-8.472-9.159-13.195-.728-1.486-1.446-2.975-2.188-4.454-.354-.708-.695-1.424-1.1-2.106-.22-.374-.439-.75-.668-1.118a10.121,10.121,0,0,0-.717-.864c-.2-.251-.572.025-.5.294" transform="translate(-184.252 -64.501)"/>
    <path id="Path_3535" data-name="Path 3535" d="M403.217,113.191c1.31.73,2.725,1.182,4.009,1.989,1.347.847,2.617,1.83,4.029,2.57a43.87,43.87,0,0,0,5.158,2.28c1.756.65,3.559,1.444,5.456,1.155a.594.594,0,0,0,.261-.989c-1.486-1.182-3.409-1.528-5.161-2.185a42.405,42.405,0,0,1-5.2-2.226c-1.392-.749-2.679-1.679-4.058-2.452-1.252-.7-2.891-1.62-4.366-1.115a.538.538,0,0,0-.127.971" transform="translate(-143.461 -39.9)"/>
    <path id="Path_3536" data-name="Path 3536" d="M427.519,123.8c-.21.506.236,1.274.547,1.655.486.592.991,1.166,1.473,1.761a34.947,34.947,0,0,1,2.774,3.966,46.106,46.106,0,0,1,2.215,4.152c.645,1.368,1,3.1,2.232,4.062a.453.453,0,0,0,.746-.2c.5-1.651-.513-3.431-1.178-4.917a30.989,30.989,0,0,0-2.537-4.554,38.564,38.564,0,0,0-3.176-4.127,6.707,6.707,0,0,0-1.821-1.687c-.254-.126-1.086-.572-1.277-.113" transform="translate(-152.185 -44.003)"/>
    <path id="Path_3537" data-name="Path 3537" d="M437.064,195.388a3.963,3.963,0,0,0-.111,2.041c.044.731.035,1.463.05,2.194a31.83,31.83,0,0,1-.249,4.388,48.826,48.826,0,0,0-.591,8.91c.31,4.63,2.555,9.426,7.054,11.284a7.707,7.707,0,0,0,3.5.639,4.034,4.034,0,0,0,1.781-.578,6.7,6.7,0,0,0,1.576-.99.147.147,0,0,0-.1-.248c-.5-.039-1.005.075-1.5.017-.551-.063-1.088-.221-1.644-.281a11.545,11.545,0,0,1-2.733-.551,9.657,9.657,0,0,1-4.454-3.49c-2.918-4.251-1.859-9.959-1.228-14.711.193-1.458.415-2.923.546-4.388a15.772,15.772,0,0,0,.006-2.34,3.241,3.241,0,0,0-.553-2.068.86.86,0,0,0-1.345.173" transform="translate(-155.264 -69.411)"/>
    <path id="Path_3538" data-name="Path 3538" d="M454.77,228.823c1.366.48,2.635-1.652,3.1-2.643a27.124,27.124,0,0,0,1.327-4.631c.468-1.739,1.071-3.416,1.681-5.111.425-1.182.866-2.358,1.3-3.535q.326-.883.65-1.767c.259-.7.382-1.394.6-2.1.147-.473-.609-.814-.817-.345-.233.529-.554.993-.762,1.531-.226.586-.447,1.174-.671,1.761l-1.286,3.376c-.659,1.731-1.4,3.432-1.938,5.206a28.835,28.835,0,0,1-1.582,4.091,9.523,9.523,0,0,1-1.036,1.859c-.388.486-.9.685-1.149,1.288a.846.846,0,0,0,.582,1.025" transform="translate(-161.682 -74.216)"/>
    <path id="Path_3539" data-name="Path 3539" d="M479.949,155.75a4.571,4.571,0,0,0,.73-2.524c.124-.866.219-1.735.295-2.606a41.984,41.984,0,0,0,.136-5.657,21.7,21.7,0,0,0-.855-5.285,7.673,7.673,0,0,0-1.118-2.4c-.417-.558-.941-1.339-1.675-1.426a.327.327,0,0,0-.314.239c-.189.635.249,1.5.439,2.109.249.8.589,1.574.843,2.374a20.467,20.467,0,0,1,.876,4.908,35.277,35.277,0,0,1-.125,5.138c-.073.879-.167,1.757-.253,2.635a4.227,4.227,0,0,0,.093,2.376.6.6,0,0,0,.929.12" transform="translate(-169.856 -48.365)"/>
    <path id="Path_3540" data-name="Path 3540" d="M298.8,57.157a67.487,67.487,0,0,0,6.153,4.427q3.259,2.231,6.325,4.73c2.02,1.649,4.033,3.3,5.954,5.06.96.882,1.925,1.761,2.913,2.611a34.427,34.427,0,0,0,2.834,2.4c.236.163.512-.151.38-.38a21.157,21.157,0,0,0-2.375-3.052,35.075,35.075,0,0,0-2.823-2.9,76.224,76.224,0,0,0-5.892-5.021q-3.112-2.352-6.41-4.444a28.989,28.989,0,0,0-7.012-3.508.049.049,0,0,0-.047.08" transform="translate(-106.373 -20.32)"/>
    <path id="Path_3541" data-name="Path 3541" d="M474.708,199.09c-.988-1.143-2.733-1.478-4.034-2.211a10.23,10.23,0,0,1-3.78-3.264c-1.67-2.676.107-6.234,1.473-8.658a12.089,12.089,0,0,1,2.911-3.69,3.977,3.977,0,0,1,3.447-.525c3.077.721,6.017,2.729,8.417,4.725a15.362,15.362,0,0,1,5.572,11.768.218.218,0,0,0,.427.057c1.779-4.363-.876-9.21-4.047-12.2a24.335,24.335,0,0,0-9.213-5.635,5.846,5.846,0,0,0-4.616.131,11.225,11.225,0,0,0-3.471,3.552,19.33,19.33,0,0,0-2.407,5.107,7.72,7.72,0,0,0-.206,4.722,9.565,9.565,0,0,0,3.8,4.683,15.909,15.909,0,0,0,2.8,1.489,3.753,3.753,0,0,0,2.835.289.209.209,0,0,0,.091-.343" transform="translate(-165.509 -63.745)"/>
    <path id="Path_3542" data-name="Path 3542" d="M610.51,116.581c-1.565,1.224-.922,3.958-.3,5.52a26.7,26.7,0,0,0,3.077,5.273c2.321,3.326,4.787,6.975,8.643,8.616a.735.735,0,0,0,.839-.108l.108-.048a.256.256,0,0,0,.117-.286c-.008-.052-.015-.1-.023-.155a.689.689,0,0,0-.343-.6c-3.288-2-5.641-4.936-7.856-8.019a20.374,20.374,0,0,1-2.811-4.771,8.671,8.671,0,0,1-.524-2.5,22.406,22.406,0,0,0,.062-2.661c-.085-.489-.679-.5-.989-.261" transform="translate(-217.005 -41.45)"/>
    <path id="Path_3543" data-name="Path 3543" d="M4.472,77.063a4.311,4.311,0,0,0-1.251,2.1,25.958,25.958,0,0,0-.73,2.555c-.368,1.726-.665,3.466-.9,5.215a68.614,68.614,0,0,0-.574,10.481,88.253,88.253,0,0,0,3,20.839c3.526,13.374,9.629,26.118,16.759,37.925,3.367,5.576,7.667,11.14,14.2,13a.667.667,0,0,0,.512-1.214c-4.971-2.827-8.712-7.034-11.8-11.781a177.446,177.446,0,0,1-9.571-16.933A95.152,95.152,0,0,1,3.828,99.908a89.579,89.579,0,0,1,.389-11.437q.258-2.746.744-5.464c.175-.974.325-1.949.479-2.928a13.292,13.292,0,0,0,.24-1.469,3.952,3.952,0,0,0-.26-1.3.574.574,0,0,0-.949-.251" transform="translate(-0.356 -27.379)"/>
  </g>
</svg>
