<svg xmlns="http://www.w3.org/2000/svg" width="77.805" height="98.07" viewBox="0 0 77.805 98.07">
  <g id="Group_497" data-name="Group 497" transform="translate(-262 -1172)">
    <path id="Path_3899" data-name="Path 3899" d="M715.556,574.948v-17a24.617,24.617,0,0,0-49.234,0v17a12.8,12.8,0,0,0-12.224,12.78V627.9H727.78V587.729A12.8,12.8,0,0,0,715.556,574.948ZM690.939,542a15.967,15.967,0,0,1,15.948,15.949v16.971h-31.9V557.948A15.967,15.967,0,0,1,690.939,542Z" transform="translate(-388.474 641.668)" fill="none" stroke="#1ecece" stroke-width="1"/>
    <path id="Path_3633" data-name="Path 3633" d="M715.556,574.948v-17a24.617,24.617,0,0,0-49.234,0v17a12.8,12.8,0,0,0-12.224,12.78V627.9H727.78V587.729A12.8,12.8,0,0,0,715.556,574.948ZM690.939,542a15.967,15.967,0,0,1,15.948,15.949v16.971h-31.9V557.948A15.967,15.967,0,0,1,690.939,542Z" transform="translate(-392.098 638.668)" fill="#fff"/>
    <path id="Path_3634" data-name="Path 3634" d="M690.571,582.1a6.623,6.623,0,1,0-10.349,5.473v14.4h7.45v-14.4a6.614,6.614,0,0,0,2.9-5.473Z" transform="translate(-385.106 643.414)" fill="#18181b"/>
  </g>
</svg>
