<svg id="Layer_2" data-name="Layer 2" xmlns="http://www.w3.org/2000/svg" width="91.01" height="77.912" viewBox="0 0 91.01 77.912">
  <g id="Layer_2-2" data-name="Layer 2">
    <path id="Path_3115" data-name="Path 3115" d="M91.01,12.685h0L69.043,0,0,39.861V65.23L20.4,77.007h0l1.569.9,1.569-.9h0L91.01,38.051h0ZM69.043,3.626l15.681,9.059L21.967,48.923,6.276,39.861Zm-65.9,59.8V41.684L20.4,51.651V73.394ZM87.862,36.238,23.536,73.384V51.641L87.872,14.495V36.238Z"/>
    <path id="Path_3116" data-name="Path 3116" d="M123.262,126.376l-.017-6.683,3.5-2.023.041,14.678-7.249-2.369.017,6.344-3.487,2.016L116.03,124Z" transform="translate(-76.708 -77.792)"/>
    <path id="Path_3117" data-name="Path 3117" d="M163.182,97.89l.01,3.687-3.145,1.816.027,10.685-3.589,2.074-.031-10.685-3.145,1.816-.01-3.691Z" transform="translate(-101.347 -64.716)"/>
    <path id="Path_3118" data-name="Path 3118" d="M196.349,80.28l.01,3.8-4.667,2.694,0,1.884,4-2.308.007,3.24-4,2.308.007,2.1,4.921-2.84.01,3.457-8.5,4.9-.037-14.481Z" transform="translate(-124.361 -53.074)"/>
    <path id="Path_3119" data-name="Path 3119" d="M226.812,66.586,226.8,59.9l3.5-2.023.037,15.064-7.249-2.752.02,6.344-3.487,2.013-.041-14.339Z" transform="translate(-145.166 -38.265)"/>
    <g id="Group_250" data-name="Group 250" transform="translate(25.526 49.716)" style="isolation: isolate">
      <path id="Path_3120" data-name="Path 3120" d="M81.179,146.7,75.32,165.593l4.009-2.335,2.41-8.293,2.579,5.436,3.138-1.813Z" transform="translate(-75.32 -146.7)"/>
    </g>
    <path id="Path_3121" data-name="Path 3121" d="M30.5,145.92l-4.846,3.464,4.514,10.828-4.06-2.342-2.772-6.791L22,152l-.017,3.487L18.53,153.5V139.01l3.45,1.983.037,6.439,5.029-3.514Z" transform="translate(-12.25 -91.9)"/>
  </g>
</svg>
