<svg xmlns="http://www.w3.org/2000/svg" xmlns:xlink="http://www.w3.org/1999/xlink" width="370" height="369.747" viewBox="0 0 370 369.747">
  <defs>
    <clipPath id="clip-path">
      <rect id="Rectangle_154" data-name="Rectangle 154" width="370" height="369.747" fill="#fff"/>
    </clipPath>
  </defs>
  <g id="Group_156" data-name="Group 156" opacity="0.1">
    <g id="Group_155" data-name="Group 155" clip-path="url(#clip-path)">
      <path id="Path_2621" data-name="Path 2621" d="M184.725,129.456h0a122.01,122.01,0,0,1-11.146,10.554c-51.6,44.364-126.552,27.418-173.5-15.838C.03,125.947,0,127.725,0,129.512a186.724,186.724,0,0,0,1.219,21.227,134.976,134.976,0,0,0,120.3,23.3c25.789-7.487,47.421-23.29,63.21-44.578l-.007.009.007-.012" transform="translate(0 55.4)" fill="#fff"/>
      <path id="Path_2622" data-name="Path 2622" d="M183.847,145.5h0a122.818,122.818,0,0,1-13.657,6.982C107.911,180.357,41.1,143.04,8.2,88.209a183.966,183.966,0,0,0-6.239,24.916c22.729,28.521,53.467,50.344,91.215,56.151a119.209,119.209,0,0,0,90.67-23.772l-.014.009.016-.013" transform="translate(0.875 39.355)" fill="#fff"/>
      <path id="Path_2623" data-name="Path 2623" d="M178.838,160.041l.017-.006h-.009a123.052,123.052,0,0,1-15.065,2.848C96.381,172.228,42.541,117.442,26.444,55.63a184.985,184.985,0,0,0-13.3,22.721c8.566,22.167,23.834,42.74,41.341,58.857,33.694,30.781,82.774,39.522,124.369,22.829h0l-.019,0" transform="translate(5.863 24.82)" fill="#fff"/>
      <path id="Path_2624" data-name="Path 2624" d="M169.832,172h0l-.007,0a122.459,122.459,0,0,1-15.261-1.511C87.248,160.442,51.031,92.672,53.033,28.817a186.159,186.159,0,0,0-19.66,18.631c7.5,68.338,63.611,132.825,136.449,124.55h.01" transform="translate(14.89 12.857)" fill="#fff"/>
      <path id="Path_2625" data-name="Path 2625" d="M157.942,180.454l-.019-.006.022,0h0a121.863,121.863,0,0,1-14.227-5.753C82.661,146.67,64.921,69.622,86.693,9.855A184.419,184.419,0,0,0,62.328,22.276c-11.961,67.7,23.052,144.9,95.607,158.176h.007" transform="translate(26.78 4.397)" fill="#fff"/>
      <path id="Path_2626" data-name="Path 2626" d="M147.517,184.51h0a121.577,121.577,0,0,1-12.051-9.548C84.18,129.747,90.541,53.387,126.865.759a184.407,184.407,0,0,0-25.519,4.7c-10.864,20.906-17.29,43.438-17.87,67.183-1.665,45.769,22.883,91.124,64.039,111.87h0" transform="translate(37.208 0.339)" fill="#fff"/>
      <path id="Path_2627" data-name="Path 2627" d="M138.8,184.849h0l-.014-.017.013.012,0-.007a122.785,122.785,0,0,1-8.853-12.525C94.153,115.947,120.45,41.113,171.2,2.7A185.838,185.838,0,0,0,144.57,0C95.244,48.257,85.383,135.777,138.8,184.848h0" transform="translate(45.925)" fill="#fff"/>
      <path id="Path_2628" data-name="Path 2628" d="M132.541,182.051l-.009-.02.009.017v-.012a122.551,122.551,0,0,1-4.965-14.5C109.011,102.737,155.757,39.051,215.092,16.39A183.841,183.841,0,0,0,190.37,6.261c-60.6,32.531-95.425,113.6-57.835,175.782l0,.007h0" transform="translate(52.183 2.793)" fill="#fff"/>
      <path id="Path_2629" data-name="Path 2629" d="M127.74,127.827v0Z" transform="translate(56.992 57.031)" fill="#fff"/>
      <path id="Path_2630" data-name="Path 2630" d="M127.742,127.833h0" transform="translate(56.993 57.033)" fill="#fff"/>
      <path id="Path_2631" data-name="Path 2631" d="M128.922,174.667v-.017a123.046,123.046,0,0,1-.677-15.316c.255-68.471,62.646-113.71,126.261-120.682a186.018,186.018,0,0,0-19.733-15.837c-25.042,6.428-48.513,17.821-68.781,35.406-33.276,29.115-48.672,74.448-37.077,116.43l0,.012,0,0" transform="translate(55.807 10.179)" fill="#fff"/>
      <path id="Path_2632" data-name="Path 2632" d="M127.738,127.829v0" transform="translate(56.991 57.03)" fill="#fff"/>
      <path id="Path_2633" data-name="Path 2633" d="M127.739,127.826v0h0v0" transform="translate(56.991 57.03)" fill="#fff"/>
      <path id="Path_2634" data-name="Path 2634" d="M127.738,163.641v0l0-.016a123.153,123.153,0,0,1,3.666-14.892c18.991-65.968,92.278-91.6,155.217-80.279a185.416,185.416,0,0,0-14.541-20.787,170.335,170.335,0,0,0-60.672,8.263c-46.589,15.391-82.366,58.227-83.676,107.691v.017" transform="translate(56.991 21.205)" fill="#fff"/>
      <path id="Path_2635" data-name="Path 2635" d="M127.74,127.826h0l-.006.012,0-.007v0Z" transform="translate(56.989 57.029)" fill="#fff"/>
      <path id="Path_2636" data-name="Path 2636" d="M127.739,127.825h0v.006l0-.007" transform="translate(56.99 57.03)" fill="#fff"/>
      <path id="Path_2637" data-name="Path 2637" d="M127.739,153.114h0l.006-.01a122.323,122.323,0,0,1,7.718-13.267C172.389,82.073,249.82,77.8,307.09,106.594a183.442,183.442,0,0,0-8.169-24.326,136.87,136.87,0,0,0-86.259-7.32c-40.766,9.568-72.8,39.512-84.918,78.15l0,.016" transform="translate(56.991 31.735)" fill="#fff"/>
      <path id="Path_2638" data-name="Path 2638" d="M127.741,127.826h0l0,0-.007.012.007-.009,0,0h0" transform="translate(56.987 57.029)" fill="#fff"/>
      <path id="Path_2639" data-name="Path 2639" d="M127.74,143.577l.013-.012a122.826,122.826,0,0,1,11.14-10.551c51.966-44.879,127.217-27.194,174.016,16.454.061-1.936.1-3.877.1-5.828a186.842,186.842,0,0,0-1.028-19.543c-29.448-24.307-67.494-36.148-106.81-29.974-32.028,4.992-59.483,23.289-77.424,49.444l-.007.01" transform="translate(56.992 41.272)" fill="#fff"/>
      <path id="Path_2640" data-name="Path 2640" d="M127.738,127.825Z" transform="translate(56.991 57.03)" fill="#fff"/>
      <path id="Path_2641" data-name="Path 2641" d="M303.755,194.059a183.6,183.6,0,0,0,6.366-25.154c-11.757-16.765-28.16-30.444-46.277-41.9a116.448,116.448,0,0,0-136.09,9.079l-.013.01h0l.02-.009a122.929,122.929,0,0,1,13.65-6.982c62.254-28.6,129.344,10,162.345,64.954" transform="translate(56.991 48.753)" fill="#fff"/>
      <path id="Path_2642" data-name="Path 2642" d="M127.745,127.825h0l-.007,0-.016.013.016-.01h0l0,0" transform="translate(56.984 57.029)" fill="#fff"/>
      <path id="Path_2643" data-name="Path 2643" d="M127.738,127.824Z" transform="translate(56.991 57.029)" fill="#fff"/>
      <path id="Path_2644" data-name="Path 2644" d="M127.739,130.788h.02a122.67,122.67,0,0,1,15.063-2.855c67.773-9.99,121.5,45.868,137.5,107.925a185.037,185.037,0,0,0,13.3-22.514c-10.211-32.223-33.7-60.591-64.324-77.914a115.09,115.09,0,0,0-101.548-4.649l-.02.009" transform="translate(56.991 54.061)" fill="#fff"/>
      <path id="Path_2645" data-name="Path 2645" d="M127.739,127.824h0l-.017.007.019-.006.007,0h-.007" transform="translate(56.983 57.029)" fill="#fff"/>
      <path id="Path_2646" data-name="Path 2646" d="M127.74,128.062l.025,0a122.936,122.936,0,0,1,15.253,1.505c67.7,9.84,103.65,78.186,101.351,142.37a186.165,186.165,0,0,0,18.989-17.717,134.635,134.635,0,0,0-39.045-92.395,116.58,116.58,0,0,0-96.554-33.769h-.019" transform="translate(56.992 56.787)" fill="#fff"/>
      <path id="Path_2647" data-name="Path 2647" d="M127.74,127.822h0" transform="translate(56.982 57.028)" fill="#fff"/>
      <path id="Path_2648" data-name="Path 2648" d="M127.74,127.821h0l0,0h0a122.6,122.6,0,0,1,14.229,5.747c59.866,26.767,80.672,105,55.644,163.012-.406,1.086-.849,2.179-1.306,3.274a184.192,184.192,0,0,0,25.465-12.483,169.85,169.85,0,0,0,3.365-53.8c-5.407-52-45.33-97.754-97.38-105.752l-.025,0" transform="translate(56.991 57.028)" fill="#fff"/>
      <path id="Path_2649" data-name="Path 2649" d="M127.743,127.822h0l-.022,0,.019.006.007,0h0l0,0" transform="translate(56.983 57.027)" fill="#fff"/>
      <path id="Path_2650" data-name="Path 2650" d="M127.745,127.826a121.433,121.433,0,0,1,12.052,9.542c50.393,42.53,47.9,123.256,7.446,171.923-.7.939-1.439,1.873-2.194,2.8A184.314,184.314,0,0,0,172.84,307.4c20.45-36.145,27.828-80,11.524-119.6-10.819-26.212-31.62-47.016-56.618-59.976h0" transform="translate(56.993 57.03)" fill="#fff"/>
      <path id="Path_2651" data-name="Path 2651" d="M127.726,127.809l.014.017,0,0,0-.007h0l-.013-.012" transform="translate(56.985 57.022)" fill="#fff"/>
      <path id="Path_2652" data-name="Path 2652" d="M138.595,127.825l0,0,.007.016a122.451,122.451,0,0,1,8.858,12.522c36.111,54.935,10.725,131.917-41.341,167.19-.876.655-1.78,1.3-2.694,1.929a185.5,185.5,0,0,0,27.893,3.241c21.995-21.312,38.323-48.1,43.93-79.557,7.072-39.519-7.9-79.038-36.647-105.335h0" transform="translate(46.141 57.028)" fill="#fff"/>
      <path id="Path_2653" data-name="Path 2653" d="M153.024,127.83h0v0l0,0-.01-.016.01.019,0,.007h0v0l0,.012h0A122.4,122.4,0,0,1,158,142.353c18.933,65.3-28.086,126.851-86.928,151.292a183.781,183.781,0,0,0,23.613,9.762,136.847,136.847,0,0,0,67.949-73.982c12.894-33.275,8.326-71.122-9.6-101.579l-.007-.016" transform="translate(31.707 57.021)" fill="#fff"/>
      <path id="Path_2654" data-name="Path 2654" d="M127.738,127.825h0v0" transform="translate(56.991 57.029)" fill="#fff"/>
      <path id="Path_2655" data-name="Path 2655" d="M127.739,127.827v0" transform="translate(56.991 57.029)" fill="#fff"/>
      <path id="Path_2656" data-name="Path 2656" d="M166.389,127.823v.014a128.533,128.533,0,0,1,.641,15.328c.548,68.079-62.39,113.539-125.92,120.582a185.676,185.676,0,0,0,20.264,16.261c18.443-3.66,36.22-11.691,53.035-22.3,44.52-27.877,65.375-80.7,51.983-129.875v0l0-.012" transform="translate(18.342 57.029)" fill="#fff"/>
      <path id="Path_2657" data-name="Path 2657" d="M176.624,127.827v0h0v.009a131.946,131.946,0,0,1-3.727,14.908c-19.2,65.953-91.706,91.011-154.726,80.212a185.66,185.66,0,0,0,15.384,21.88c41.237,3.6,84.017-11.1,113.561-43.3,19.137-19.969,28.353-46.584,29.509-73.7v-.013" transform="translate(8.107 57.029)" fill="#fff"/>
      <path id="Path_2658" data-name="Path 2658" d="M182.891,127.826h0v0h0l0,.009a104.927,104.927,0,0,1-7.627,13.322c-37.567,56.614-113.9,61.767-171.141,33.451a183.556,183.556,0,0,0,8.6,25.328c44.824,17.782,96.34,11.9,135.256-20.869a123.446,123.446,0,0,0,34.913-51.227l0-.013" transform="translate(1.838 57.029)" fill="#fff"/>
    </g>
  </g>
</svg>
