<svg xmlns="http://www.w3.org/2000/svg" xmlns:xlink="http://www.w3.org/1999/xlink" width="430" height="462.009" viewBox="0 0 430 462.009">
  <defs>
    <clipPath id="clip-path">
      <rect y="4" width="430" height="462.009" fill="none"/>
    </clipPath>
  </defs>
  <g id="Scroll_Group_8" data-name="Scroll Group 8" transform="translate(0 -4)" clip-path="url(#clip-path)" style="isolation: isolate">
    <path id="pattern_square_white" d="M412.6,18.526H430V17.487H412.6V0H411.56V17.487h-34.8V0H375.72V17.487h-34.8V0H339.88V17.487h-34.8V0H304.04V17.487h-34.8V0H268.2V17.487H233.4V0H232.36V17.487h-34.8V0h-1.039V17.487h-34.8V0h-1.039V17.487h-34.8V0h-1.039V17.487h-34.8V0H89V17.487H54.2V0H53.159V17.487H18.353V0H17.314V17.487H0v1.039H17.314v34.8H0v1.039H17.314v34.8H0v1.039H17.314v34.8H0v1.039H17.314v34.8H0v1.039H17.314v34.8H0v1.039H17.314v34.8H0v1.039H17.314v34.8H0v1.039H17.314v34.8H0v1.039H17.314v34.8H0v1.039H17.314v34.8H0v1.039H17.314v34.8H0v1.039H17.314v34.8H0v1.039H17.314v17.4h1.039v-17.4h34.8v17.4h1.039v-17.4h34.8v17.4h1.039v-17.4h34.8v17.4h1.039v-17.4h34.8v17.4h1.039v-17.4h34.8v17.4h1.039v-17.4h34.8v17.4h1.039v-17.4h34.8v17.4h1.039v-17.4h34.8v17.4h1.039v-17.4h34.8v17.4h1.039v-17.4h34.8v17.4h1.039v-17.4h34.8v17.4H412.6v-17.4H430v-1.039H412.6v-34.8H430v-1.039H412.6v-34.8H430v-1.039H412.6v-34.8H430v-1.039H412.6v-34.8H430v-1.039H412.6v-34.8H430v-1.039H412.6v-34.8H430v-1.039H412.6v-34.8H430v-1.039H412.6v-34.8H430v-1.039H412.6v-34.8H430v-1.039H412.6v-34.8H430V89.167H412.6v-34.8H430V53.327H412.6v-34.8ZM53.154,447.575h-34.8v-34.8h34.8Zm0-35.84h-34.8v-34.8h34.8Zm0-35.84h-34.8v-34.8h34.8Zm0-35.84h-34.8v-34.8h34.8Zm0-35.84h-34.8v-34.8h34.8Zm0-35.84h-34.8v-34.8h34.8Zm0-35.84h-34.8v-34.8h34.8Zm0-35.84h-34.8v-34.8h34.8Zm0-35.84h-34.8v-34.8h34.8Zm0-35.84h-34.8v-34.8h34.8Zm0-35.84h-34.8v-34.8h34.8Zm0-35.84h-34.8V18.526h34.8v34.8Zm35.84,394.246h-34.8v-34.8h34.8Zm0-35.84h-34.8v-34.8h34.8Zm0-35.84h-34.8V341.1h34.8Zm0-35.84h-34.8v-34.8h34.8Zm0-35.84h-34.8v-34.8h34.8Zm0-35.84h-34.8v-34.8h34.8Zm0-35.84h-34.8v-34.8h34.8Zm0-35.84h-34.8V161.9h34.8Zm0-35.84h-34.8v-34.8h34.8Zm0-35.84h-34.8v-34.8h34.8Zm0-35.84h-34.8v-34.8h34.8Zm0-35.84h-34.8V18.526h34.8v34.8Zm35.84,394.246h-34.8v-34.8h34.8Zm0-35.84h-34.8v-34.8h34.8Zm0-35.84h-34.8V341.1h34.8Zm0-35.84h-34.8v-34.8h34.8Zm0-35.84h-34.8v-34.8h34.8Zm0-35.84h-34.8v-34.8h34.8Zm0-35.84h-34.8v-34.8h34.8Zm0-35.84h-34.8V161.9h34.8Zm0-35.84h-34.8v-34.8h34.8Zm0-35.84h-34.8V90.22h34.8Zm0-35.84h-34.8V54.38h34.8Zm0-35.84h-34.8V18.526h34.8V53.341Zm35.84,394.246h-34.8v-34.8h34.8Zm0-35.84h-34.8v-34.8h34.8Zm0-35.84h-34.8v-34.8h34.8Zm0-35.84h-34.8v-34.8h34.8Zm0-35.84h-34.8v-34.8h34.8Zm0-35.84h-34.8v-34.8h34.8Zm0-35.84h-34.8v-34.8h34.8Zm0-35.84h-34.8v-34.8h34.8Zm0-35.84h-34.8v-34.8h34.8Zm0-35.84h-34.8v-34.8h34.8Zm0-35.84h-34.8v-34.8h34.8Zm0-35.84h-34.8V18.526h34.8v34.82Zm35.84,394.246h-34.8v-34.8h34.8Zm0-35.84h-34.8v-34.8h34.8Zm0-35.84h-34.8v-34.8h34.8Zm0-35.84h-34.8v-34.8h34.8Zm0-35.84h-34.8v-34.8h34.8Zm0-35.84h-34.8v-34.8h34.8Zm0-35.84h-34.8v-34.8h34.8Zm0-35.84h-34.8v-34.8h34.8Zm0-35.84h-34.8v-34.8h34.8Zm0-35.84h-34.8v-34.8h34.8Zm0-35.84h-34.8v-34.8h34.8Zm0-35.84h-34.8V18.526h34.8V53.35ZM232.355,447.6h-34.8V412.8h34.8Zm0-35.84h-34.8v-34.8h34.8Zm0-35.84h-34.8v-34.8h34.8Zm0-35.84h-34.8v-34.8h34.8Zm0-35.84h-34.8v-34.8h34.8Zm0-35.84h-34.8v-34.8h34.8Zm0-35.84h-34.8v-34.8h34.8Zm0-35.84h-34.8v-34.8h34.8Zm0-35.84h-34.8v-34.8h34.8Zm0-35.84h-34.8v-34.8h34.8Zm0-35.84h-34.8v-34.8h34.8Zm0-35.84h-34.8V18.526h34.8V53.355ZM268.2,447.6h-34.8V412.8h34.8Zm0-35.84h-34.8v-34.8h34.8Zm0-35.84h-34.8v-34.8h34.8Zm0-35.84h-34.8v-34.8h34.8Zm0-35.84h-34.8v-34.8h34.8Zm0-35.84h-34.8V233.6h34.8Zm0-35.84h-34.8v-34.8h34.8Zm0-35.84h-34.8v-34.8h34.8Zm0-35.84h-34.8v-34.8h34.8Zm0-35.84h-34.8v-34.8h34.8Zm0-35.84h-34.8V54.4h34.8Zm0-35.84h-34.8V18.526h34.8V53.359Zm35.84,394.246h-34.8V412.8h34.8Zm0-35.84h-34.8v-34.8h34.8Zm0-35.84h-34.8v-34.8h34.8Zm0-35.84h-34.8v-34.8h34.8Zm0-35.84h-34.8v-34.8h34.8Zm0-35.84h-34.8V233.6h34.8Zm0-35.84h-34.8v-34.8h34.8Zm0-35.84h-34.8v-34.8h34.8Zm0-35.84h-34.8v-34.8h34.8Zm0-35.84h-34.8v-34.8h34.8Zm0-35.84h-34.8V54.4h34.8Zm0-35.84h-34.8V18.526h34.8V53.363Zm35.84,394.246h-34.8v-34.8h34.8Zm0-35.84h-34.8v-34.8h34.8Zm0-35.84h-34.8v-34.8h34.8Zm0-35.84h-34.8v-34.8h34.8Zm0-35.84h-34.8v-34.8h34.8Zm0-35.84h-34.8v-34.8h34.8Zm0-35.84h-34.8v-34.8h34.8Zm0-35.84h-34.8v-34.8h34.8Zm0-35.84h-34.8v-34.8h34.8Zm0-35.84h-34.8v-34.8h34.8Zm0-35.84h-34.8v-34.8h34.8Zm0-35.84h-34.8V18.526h34.8V53.368Zm35.84,394.246h-34.8v-34.8h34.8Zm0-35.84h-34.8v-34.8h34.8Zm0-35.84h-34.8v-34.8h34.8Zm0-35.84h-34.8v-34.8h34.8Zm0-35.84h-34.8v-34.8h34.8Zm0-35.84h-34.8v-34.8h34.8Zm0-35.84h-34.8v-34.8h34.8Zm0-35.84h-34.8v-34.8h34.8Zm0-35.84h-34.8v-34.8h34.8Zm0-35.84h-34.8v-34.8h34.8Zm0-35.84h-34.8v-34.8h34.8Zm0-35.84h-34.8V18.526h34.8V53.372Zm35.84,394.246h-34.8v-34.8h34.8Zm0-35.84h-34.8v-34.8h34.8Zm0-35.84h-34.8v-34.8h34.8Zm0-35.84h-34.8V305.3h34.8Zm0-35.84h-34.8v-34.8h34.8Zm0-35.84h-34.8v-34.8h34.8Zm0-35.84h-34.8v-34.8h34.8Zm0-35.84h-34.8v-34.8h34.8Zm0-35.84h-34.8V126.1h34.8Zm0-35.84h-34.8v-34.8h34.8Zm0-35.84h-34.8v-34.8h34.8Zm0-35.84h-34.8V18.526h34.8V53.376Z" fill="#fff" opacity="0.2"/>
  </g>
</svg>
