<svg xmlns="http://www.w3.org/2000/svg" xmlns:xlink="http://www.w3.org/1999/xlink" width="181.383" height="268.841" viewBox="0 0 181.383 268.841">
  <defs>
    <clipPath id="clip-path">
      <rect id="Rectangle_178" data-name="Rectangle 178" width="181.383" height="268.841" fill="none"/>
    </clipPath>
    <clipPath id="clip-path-2">
      <rect id="Rectangle_179" data-name="Rectangle 179" width="122.175" height="58.478" fill="#1ecece"/>
    </clipPath>
  </defs>
  <g id="Group_274" data-name="Group 274" transform="translate(-220.367 -837.405)">
    <g id="Group_232" data-name="Group 232" transform="translate(220.367 837.405)">
      <g id="Group_231" data-name="Group 231" clip-path="url(#clip-path)">
        <path id="Path_2993" data-name="Path 2993" d="M181.464,210.965a8.663,8.663,0,0,0-1.213-1.449c-.548-.557-1.121-1.088-1.705-1.607-1.179-1.048-2.408-2.04-3.668-2.99a74.032,74.032,0,0,0-7.889-5.14c-5.507-3.143-11.334-5.686-17.107-8.293-3.1-1.4-6.2-2.781-9.324-4.115q-.748-3.543-1.34-7.118a152.427,152.427,0,0,1-1.946-20.358c-.057-1.9-.053-3.791-.067-5.688-.007-.976.016-1.953,0-2.929-.006-.456-.024-.909-.043-1.362q.861-2.047,1.617-4.135a77.541,77.541,0,0,0,2.629-9.063c.243.125.479.228.657.3a5.01,5.01,0,0,0,2.227.428,5.553,5.553,0,0,0,3.6-1.777,18.4,18.4,0,0,0,2.683-3.72c.817-1.382,1.526-2.82,2.3-4.228.166-.3.341-.6.518-.9a7.589,7.589,0,0,0,.743-.629c.591-.541,1.152-1.118,1.7-1.7a34.017,34.017,0,0,0,3.177-3.926,20.29,20.29,0,0,0,2.407-4.335c.118-.309.223-.628.318-.951a.31.31,0,0,0,.225,0c1.466-.536,2.942-1.062,4.349-1.741a29.079,29.079,0,0,0,4.216-2.449c2.43-1.727,4.661-4.046,5.373-7.03a5.066,5.066,0,0,0,.116-2.535c-.136-.431-.248-.87-.407-1.294-.1-.269-.218-.53-.335-.791a15.5,15.5,0,0,0,2.932-3.122,17.218,17.218,0,0,0,2.88-8.57,25.954,25.954,0,0,0-1.032-9.286,26.8,26.8,0,0,0-3.939-8.168,13.835,13.835,0,0,0-5.989-5.154,4.062,4.062,0,0,0-.791-.205,6.9,6.9,0,0,0-.838-2.694,4.549,4.549,0,0,0,.926-1.446,4.372,4.372,0,0,0,.385-1.917,7.1,7.1,0,0,0-1.469-3.7,35.569,35.569,0,0,0-3-3.613,35.926,35.926,0,0,1-3.018-3.525q-.166-.238-.321-.483c-.125-.564-.239-1.131-.417-1.68-.277-.852-.615-1.685-.925-2.525-.627-1.7-1.218-3.411-1.84-5.112a32.117,32.117,0,0,0-4.442-8.936,6.084,6.084,0,0,0-3.16-2.358,12.47,12.47,0,0,0-1.95-2.678,19.526,19.526,0,0,0-6.041-4.16c-4.67-2.2-9.782-3.247-14.45-5.432-1.9-.891-3.814-1.785-5.676-2.761-1.38-.723-2.765-1.446-4.081-2.278a17.656,17.656,0,0,0-1.191-1.331,20.9,20.9,0,0,0-3.02-2.556,16.3,16.3,0,0,0-6.111-2.586c-4.387-.859-8.87-.035-13.228.6-1.322.193-2.648.344-3.971.525-1.345.184-2.7.383-4.051.48a4.5,4.5,0,0,0-2.218-1.344,7.529,7.529,0,0,0-3.228,0c-2.062.361-4.261,1.354-6.386.979a.588.588,0,0,0-.634.3c-.352-.072-.7-.145-1.059-.2q-1.3-.186-2.6-.316c-1.559-.156-3.125-.249-4.692-.254A30.654,30.654,0,0,0,57.99,5.039a20.425,20.425,0,0,0-7.124,3.633,18.974,18.974,0,0,0-5.022,6.319c-.078.155-.145.316-.219.474-2.094,2.2-4.881,3.708-7.433,5.278-2.919,1.8-6.075,3.806-7.8,6.876a8.809,8.809,0,0,0-.988,2.676,7.5,7.5,0,0,0-.112.859c-1.245,1.28-2.629,2.42-3.992,3.575-1.694,1.434-3.371,2.91-4.947,4.474a22.238,22.238,0,0,0-3.918,4.91,12.827,12.827,0,0,0-1.644,6.066,13.752,13.752,0,0,0,.565,3.98,16.2,16.2,0,0,0,.821,2.231,6.426,6.426,0,0,0,1.181,1.7c-.03.039-.061.077-.09.117a8.072,8.072,0,0,0-1.308,3.521,13.019,13.019,0,0,0-.125,1.85,3.261,3.261,0,0,1-.353,1.293,14.315,14.315,0,0,0-1.289,2.853,2.385,2.385,0,0,0,.191,1.685,2.106,2.106,0,0,0,.689.759c-.481.31-.964.616-1.444.919-3.266,2.064-6.861,4.137-9.052,7.425a10.659,10.659,0,0,0-1.766,5.457A17.068,17.068,0,0,0,4.421,91.3a34.157,34.157,0,0,0,2.32,4.465,15.353,15.353,0,0,0,1.737,2.509,1.992,1.992,0,0,1,.473,2.186,8.811,8.811,0,0,0-.443,4.515,14.422,14.422,0,0,0,1.41,4.551,22.719,22.719,0,0,0,6.366,7.616A26.976,26.976,0,0,0,20.5,119.91a15.119,15.119,0,0,0,4.5,1.733,11.221,11.221,0,0,0,1.924.146c.229.38.474.75.742,1.11.832,1.113,1.764,2.147,2.66,3.209.507.6.958,1.172,1.412,1.8a12.941,12.941,0,0,1,1.591,2.482c.839,2.042,1.895,4.333,4.217,4.949a86.4,86.4,0,0,0,1.166,9.786,24.323,24.323,0,0,0,1.664,5.326c.691,1.552,1.353,3.122,2.033,4.679a71.459,71.459,0,0,0,4.953,9.379c.354.564.723,1.117,1.091,1.67.03.968.047,1.93.112,2.9.07,1.042.209,2.079.338,3.115.26,2.079.55,4.154.907,6.219.689,3.983,1.508,7.949,2.5,11.869q.4,1.6.84,3.186a65.121,65.121,0,0,1-4.949,6.417c-1.932,2.167-3.978,4.215-6.1,6.194-4.211,3.925-8.616,7.668-12.42,12a35.2,35.2,0,0,0-5.676,8.317.725.725,0,0,0,.207.906,71.148,71.148,0,0,0,11.573,14.776,91.266,91.266,0,0,0,14.464,11.883,92.947,92.947,0,0,0,34.155,14.015,79.444,79.444,0,0,0,36.015-1.277,70.821,70.821,0,0,0,31.634-18.859c2.411-2.483,4.549-5.206,6.975-7.675,2.524-2.568,5.205-4.976,7.847-7.422,5.089-4.712,10.242-9.7,13.271-16.044a30.264,30.264,0,0,0,1.829-4.848.7.7,0,0,0-.5-.893" transform="translate(-1.706 -1.705)" fill="#fff"/>
        <path id="Path_2994" data-name="Path 2994" d="M91.378,607.157l1.1,1.058,2.354-2.454q-.354-.752-.661-1.518Z" transform="translate(-55.682 -368.198)"/>
        <path id="Path_2995" data-name="Path 2995" d="M99.849,617.126l1.1,1.058,1.4-1.456q-.434-.66-.838-1.335Z" transform="translate(-60.843 -374.992)"/>
        <path id="Path_2996" data-name="Path 2996" d="M88.624,499.628a16.259,16.259,0,0,0-.513-1.673L57.916,529.431a.362.362,0,0,1,.084.082q.4.6.813,1.191Z" transform="translate(-35.291 -303.431)"/>
        <path id="Path_2997" data-name="Path 2997" d="M82.321,528.639c2.629-3.422,5.675-6.54,8.2-10.043.68-.945,1.5-1.915,2.154-2.954L65.85,543.6l1.1,1.058Z" transform="translate(-40.126 -314.209)"/>
        <path id="Path_2998" data-name="Path 2998" d="M82.151,576.042a17.847,17.847,0,0,1,.374-2.6L74.32,582l1.1,1.058Z" transform="translate(-45.287 -349.431)"/>
        <path id="Path_2999" data-name="Path 2999" d="M83.892,596.876l3.961-4.129q-.22-.91-.362-1.831l-4.7,4.9Z" transform="translate(-50.448 -360.077)"/>
        <path id="Path_3000" data-name="Path 3000" d="M131.4,489.544l.07.255.039-.041c-.037-.071-.072-.143-.11-.214" transform="translate(-80.069 -298.305)"/>
        <path id="Path_3001" data-name="Path 3001" d="M126.48,644.306l.709-.74q-.35-.3-.7-.6-.228-.2-.456-.4l-.658.686,1.1,1.057h0" transform="translate(-76.399 -391.547)"/>
        <path id="Path_3002" data-name="Path 3002" d="M134.928,650.587c.445.274.893.542,1.342.808l.324-.338q-.613-.463-1.217-.939Z" transform="translate(-82.219 -396.152)"/>
        <path id="Path_3003" data-name="Path 3003" d="M145.778,657.474c.285.155.572.306.858.457l-.021-.014q-.583-.38-1.158-.775l-.094.1c.139.076.275.157.415.233" transform="translate(-88.577 -400.433)"/>
        <path id="Path_3004" data-name="Path 3004" d="M108.318,626.331l1.1,1.058.858-.895q-.491-.594-.963-1.2Z" transform="translate(-66.004 -381.023)"/>
        <path id="Path_3005" data-name="Path 3005" d="M116.788,634.969l1.1,1.058.644-.671q-.537-.539-1.065-1.1Z" transform="translate(-71.165 -386.487)"/>
        <path id="Path_3006" data-name="Path 3006" d="M89.743,611.941l-.9.94q.533.542,1.079,1.084l.926-.966Z" transform="translate(-54.136 -372.888)"/>
        <path id="Path_3007" data-name="Path 3007" d="M65.23,587.451l-.251.262q.475.6.974,1.192l.379-.4Z" transform="translate(-39.595 -357.965)"/>
        <path id="Path_3008" data-name="Path 3008" d="M73.2,595.576l-.573.6q.5.562,1.029,1.135l.647-.675Z" transform="translate(-44.254 -362.917)"/>
        <path id="Path_3009" data-name="Path 3009" d="M81.364,603.7l-.767.8q.515.548,1.051,1.112l.819-.854Z" transform="translate(-49.112 -367.867)"/>
        <path id="Path_3010" data-name="Path 3010" d="M125.565,645.085l-.551-.529-.087.091c.213.146.424.293.638.438" transform="translate(-76.125 -392.763)"/>
        <path id="Path_3011" data-name="Path 3011" d="M98.163,620.066l-.934.974q.493.464.993.919c.043.039.088.077.132.116l.912-.951Z" transform="translate(-59.247 -377.84)"/>
        <path id="Path_3012" data-name="Path 3012" d="M106.822,628.191l-.813.847c.39.33.785.654,1.181.978l.736-.767Z" transform="translate(-64.597 -382.79)"/>
        <path id="Path_3013" data-name="Path 3013" d="M115.726,636.317l-.534.557c.408.311.82.617,1.233.922l.4-.422Z" transform="translate(-70.193 -387.742)"/>
        <path id="Path_3014" data-name="Path 3014" d="M35.386,109.321l9.852-10.261a3.778,3.778,0,0,1-.1-2.1l-9.9,10.312a17.4,17.4,0,0,0,.15,2.051" transform="translate(-21.471 -59.082)"/>
        <path id="Path_3015" data-name="Path 3015" d="M38.319,121.653l9.152-9.533a13.93,13.93,0,0,1,1.038-3.288L37.648,120.146a9.331,9.331,0,0,0,.671,1.508" transform="translate(-22.941 -66.318)"/>
        <path id="Path_3016" data-name="Path 3016" d="M41.5,96.633a13.469,13.469,0,0,0-3,3.6l5.034-5.243c-.7.526-1.388,1.066-2.038,1.639" transform="translate(-23.463 -57.885)"/>
        <path id="Path_3017" data-name="Path 3017" d="M92.388,320.24l10.881-11.334q-.467-.611-.965-1.2L91.286,319.181Z" transform="translate(-55.625 -187.501)"/>
        <path id="Path_3018" data-name="Path 3018" d="M100.854,329.272l10.186-10.61q-.4-.683-.825-1.347l-10.464,10.9Z" transform="translate(-60.784 -193.357)"/>
        <path id="Path_3019" data-name="Path 3019" d="M57.548,282.674a7.037,7.037,0,0,0,1.364.29l12.3-12.807a12.763,12.763,0,0,1-.355-1.837L57.3,282.436Z" transform="translate(-34.916 -163.502)"/>
        <path id="Path_3020" data-name="Path 3020" d="M67.494,292.7a11.273,11.273,0,0,0,.9,1.117l11.1-11.561c-.282-.414-.551-.838-.8-1.277-.012-.02-.021-.041-.033-.061l-11.224,11.69c.02.03.038.063.059.092" transform="translate(-41.092 -171.18)"/>
        <path id="Path_3021" data-name="Path 3021" d="M76.047,302.61c.119.136.23.275.341.414l10.879-11.331q-.527-.557-1.033-1.131L75.368,301.879c.23.238.46.48.679.731" transform="translate(-45.926 -177.055)"/>
        <path id="Path_3022" data-name="Path 3022" d="M83.8,311.737,94.96,300.115q-.537-.543-1.081-1.081L82.7,310.678Z" transform="translate(-50.394 -182.217)"/>
        <path id="Path_3023" data-name="Path 3023" d="M24.418,222.084l31.113-32.406c.008-.136.013-.271.023-.408a.653.653,0,0,0-.511-.688c-.156-.035-.309-.077-.459-.124L23.316,221.025Z" transform="translate(-14.208 -114.838)"/>
        <path id="Path_3024" data-name="Path 3024" d="M32.884,233.982l28.033-29.2q-.115-1-.188-2.011l-28.948,30.15Z" transform="translate(-19.366 -123.56)"/>
        <path id="Path_3025" data-name="Path 3025" d="M41.351,246.289l25.59-26.653q-.161-.94-.316-1.878L40.249,245.23Z" transform="translate(-24.526 -132.692)"/>
        <path id="Path_3026" data-name="Path 3026" d="M49.817,266.44l16.151-16.822a14.786,14.786,0,0,1,1.723-4L48.715,265.382Z" transform="translate(-29.685 -149.668)"/>
        <path id="Path_3027" data-name="Path 3027" d="M6.358,181.535l25.108-26.151c.008-.062.012-.122.022-.185a18.818,18.818,0,0,0,.407-2.469L5.962,179.741a18.372,18.372,0,0,0,.4,1.794" transform="translate(-3.633 -93.067)"/>
        <path id="Path_3028" data-name="Path 3028" d="M10.725,195.95,34.6,171.089a3.169,3.169,0,0,1,.077-2.287L9.98,194.52c.227.483.478.959.745,1.431" transform="translate(-6.081 -102.86)"/>
        <path id="Path_3029" data-name="Path 3029" d="M16.546,205.134c.129.161.267.318.4.476.123.141.246.285.368.432l25.545-26.606a10.721,10.721,0,0,1-1.842-.289L16.335,204.858c.071.092.138.185.211.276" transform="translate(-9.954 -109.164)"/>
        <path id="Path_3030" data-name="Path 3030" d="M18.758,213.137l30.493-31.76a3.377,3.377,0,0,1-.364-.953.677.677,0,0,0-.381-.479L18.757,210.931a7.978,7.978,0,0,0,0,2.206" transform="translate(-11.383 -109.651)"/>
        <path id="Path_3031" data-name="Path 3031" d="M37.837,138.611a11.721,11.721,0,0,0-.211,1.626c-.022.266-.046.537-.077.808l10.377-10.808a8.062,8.062,0,0,1-.527-1.658l-9.533,9.929c-.009.035-.021.067-.029.1" transform="translate(-22.881 -78.35)"/>
        <path id="Path_3032" data-name="Path 3032" d="M16.712,153.293a1.6,1.6,0,0,0,.416.443.364.364,0,0,1-.023.617q-.606.347-1.213.687c-.537.3-1.071.6-1.6.907l-.4.236L6.23,164.167a11.794,11.794,0,0,0-.545,2.036q-.072.426-.118.86l25.941-27.019a.644.644,0,0,0-.331-.448,6.021,6.021,0,0,1-.841-.538L16.7,153.265c.005.009.009.019.014.028" transform="translate(-3.393 -84.736)"/>
        <path id="Path_3033" data-name="Path 3033" d="M126.373,362.151l4.339-4.519q-.059-1.034-.135-2.066l-5.307,5.527Z" transform="translate(-76.334 -216.665)"/>
        <path id="Path_3034" data-name="Path 3034" d="M134.839,375.077l1.381-1.438c-.049-.691-.091-1.382-.129-2.073l-2.354,2.452Z" transform="translate(-81.493 -226.416)"/>
        <path id="Path_3035" data-name="Path 3035" d="M109.321,338.962l9.1-9.477q-.339-.746-.7-1.479l-9.5,9.9Z" transform="translate(-65.944 -199.872)"/>
        <path id="Path_3036" data-name="Path 3036" d="M117.787,349.637l7.141-7.437c-.088-.625-.19-1.256-.307-1.886l-7.936,8.265Z" transform="translate(-71.102 -207.371)"/>
        <path id="Path_3037" data-name="Path 3037" d="M262.314,448.8l31.329-32.631c-.047-.689-.085-1.384-.123-2.079l-32.309,33.651Z" transform="translate(-159.171 -252.328)"/>
        <path id="Path_3038" data-name="Path 3038" d="M270.78,461.558,299.1,432.065c.051-.154.1-.308.154-.462a.656.656,0,0,0,.031-.278c-.052-.5-.1-1.007-.144-1.51L269.678,460.5Z" transform="translate(-164.329 -261.909)"/>
        <path id="Path_3039" data-name="Path 3039" d="M279.247,479.46l19.378-20.183c1-1.624,1.909-3.21,2.692-4.733.095-.185.182-.373.272-.561L278.145,478.4Z" transform="translate(-169.489 -276.636)"/>
        <path id="Path_3040" data-name="Path 3040" d="M244.159,475.845l1.1,1.059,5.95-6.2c-1.171.538-2.341,1.022-3.52,1.46Z" transform="translate(-148.779 -286.826)"/>
        <path id="Path_3041" data-name="Path 3041" d="M338.794,387.986c-.212.286-.529.817-.95,1.542l1.354-1.411-.4-.131" transform="translate(-205.866 -236.421)"/>
        <path id="Path_3042" data-name="Path 3042" d="M253.728,435.464l34.38-35.809q-.027-1.085-.038-2.167L276.691,409.34a66.939,66.939,0,0,1-9.5,9.89L252.626,434.4Z" transform="translate(-153.939 -242.211)"/>
        <path id="Path_3043" data-name="Path 3043" d="M89.6,337.322l-.932.971a3.955,3.955,0,0,0,1.168.609.36.36,0,0,1,.2.168l.663-.69Z" transform="translate(-54.032 -205.548)"/>
        <path id="Path_3044" data-name="Path 3044" d="M93.324,350.051l3.4-3.541-1.1-1.059-2.5,2.606c.061.664.128,1.329.2,1.994" transform="translate(-56.743 -210.502)"/>
        <path id="Path_3045" data-name="Path 3045" d="M57.037,304.693l-.022.023.073.026Z" transform="translate(-34.742 -185.666)"/>
        <path id="Path_3046" data-name="Path 3046" d="M82.2,329.079l-.174.181c.036.088.075.177.111.264.124.3.249.606.384.9.055.121.114.23.171.345l.611-.636Z" transform="translate(-49.983 -200.526)"/>
        <path id="Path_3047" data-name="Path 3047" d="M22.2,272.063l-.568.591a14.583,14.583,0,0,0,.788,1.386l.882-.919Z" transform="translate(-13.183 -165.783)"/>
        <path id="Path_3048" data-name="Path 3048" d="M29.671,280.192l-1.207,1.258c.053.06.1.12.159.179.28.309.58.621.891.934l1.26-1.312Z" transform="translate(-17.345 -170.736)"/>
        <path id="Path_3049" data-name="Path 3049" d="M38.119,288.321,36.9,289.59c.377.321.772.647,1.183.975l1.138-1.186Z" transform="translate(-22.485 -175.689)"/>
        <path id="Path_3050" data-name="Path 3050" d="M47.1,296.45l-.888.925c.452.316.882.6,1.3.856l.694-.723Z" transform="translate(-28.16 -180.643)"/>
        <path id="Path_3051" data-name="Path 3051" d="M187.786,484.468l-14.011,14.593c.341.38.695.748,1.044,1.119L190.8,483.538a25.3,25.3,0,0,1-3.012.93" transform="translate(-105.89 -294.646)"/>
        <path id="Path_3052" data-name="Path 3052" d="M183.12,500.649l20.7-21.558c-.88.213-1.772.409-2.683.588l-19.161,19.957c.376.347.759.684,1.146,1.013" transform="translate(-110.887 -291.936)"/>
        <path id="Path_3053" data-name="Path 3053" d="M153.3,463.982l-7.753,8.075c.281.442.562.885.847,1.324l8.108-8.445q-.619-.458-1.2-.955" transform="translate(-88.687 -282.729)"/>
        <path id="Path_3054" data-name="Path 3054" d="M153,481.459l9.46-9.853q-.687-.386-1.36-.79l-8.974,9.347q.434.649.874,1.3" transform="translate(-92.7 -286.893)"/>
        <path id="Path_3055" data-name="Path 3055" d="M159.852,488.829l11.115-11.576a5.646,5.646,0,0,0-.929-.584.933.933,0,0,1-.622-.007l-10.477,10.912q.452.631.914,1.255" transform="translate(-96.849 -290.456)"/>
        <path id="Path_3056" data-name="Path 3056" d="M167.047,496.193l12.124-12.628c-.1-.032-.2-.065-.3-.1-.043-.015-.464-.313-1.032-.718L166.077,495c.319.4.645.8.97,1.2" transform="translate(-101.2 -294.162)"/>
        <path id="Path_3057" data-name="Path 3057" d="M131.042,417.128l-8.988,9.361c.046.321.093.639.139.95a.666.666,0,0,0,.062.2c.093.187.189.372.282.557L131.364,419q-.172-.935-.322-1.872" transform="translate(-74.374 -254.179)"/>
        <path id="Path_3058" data-name="Path 3058" d="M135.192,431.16l-8.121,8.459q.374.713.754,1.422l7.829-8.154q-.248-.858-.461-1.726" transform="translate(-77.431 -262.729)"/>
        <path id="Path_3059" data-name="Path 3059" d="M140.338,443.944l-7.385,7.691c.261.463.521.927.786,1.388l7.241-7.541q-.34-.762-.642-1.538" transform="translate(-81.015 -270.519)"/>
        <path id="Path_3060" data-name="Path 3060" d="M146.232,455.138l-7.148,7.445c.271.453.541.906.816,1.356l7.257-7.559a15.11,15.11,0,0,1-.926-1.242" transform="translate(-84.751 -277.34)"/>
        <path id="Path_3061" data-name="Path 3061" d="M113.17,371.011l-1.1-1.059-8.318,8.664.079.159c.211.425.429.857.652,1.287Z" transform="translate(-63.22 -225.432)"/>
        <path id="Path_3062" data-name="Path 3062" d="M120.029,379.139l-1.1-1.058-9.349,9.736q.4.7.8,1.37Z" transform="translate(-66.772 -230.385)"/>
        <path id="Path_3063" data-name="Path 3063" d="M115.916,397.421q.434.663.87,1.3l9.158-9.538q-.118-.987-.223-1.975Z" transform="translate(-70.634 -235.946)"/>
        <path id="Path_3064" data-name="Path 3064" d="M120.284,411.846c.037.529.095,1.063.157,1.594l8.925-9.3q-.138-.96-.272-1.924l-8.834,9.2c.008.142.013.284.023.425" transform="translate(-73.281 -245.094)"/>
        <path id="Path_3065" data-name="Path 3065" d="M95.091,358.828q.169.911.38,1.811l5.761-6-1.1-1.058Z" transform="translate(-57.944 -215.455)"/>
        <path id="Path_3066" data-name="Path 3066" d="M98.549,369q.27.8.58,1.6l7.518-7.831-1.1-1.058Z" transform="translate(-60.051 -220.409)"/>
        <path id="Path_3067" data-name="Path 3067" d="M233.139,501.529l-1.1-1.059L213.479,519.8c.31.089.622.174.937.252.255.063.513.119.771.175Z" transform="translate(-130.084 -304.963)"/>
        <path id="Path_3068" data-name="Path 3068" d="M244.888,509.658l-1.1-1.059-16.453,17.137c.676.055,1.355.087,2.033.088Z" transform="translate(-138.526 -309.917)"/>
        <path id="Path_3069" data-name="Path 3069" d="M258.677,517.787l-1.1-1.059-13.041,13.583a19.209,19.209,0,0,0,2.937-.852Z" transform="translate(-149.007 -314.87)"/>
        <path id="Path_3070" data-name="Path 3070" d="M191.117,505.587c.423.3.854.586,1.29.863l20.444-21.293-1.1-1.059Z" transform="translate(-116.458 -294.987)"/>
        <path id="Path_3071" data-name="Path 3071" d="M201.457,512.953c.482.239.969.468,1.466.68l19.537-20.348-1.1-1.059Z" transform="translate(-122.759 -299.94)"/>
        <path id="Path_3072" data-name="Path 3072" d="M102.91,1.093a21.128,21.128,0,0,1,4.073.369,16.294,16.294,0,0,1,6.112,2.586,20.888,20.888,0,0,1,3.02,2.556,17.652,17.652,0,0,1,1.192,1.331c1.316.832,2.7,1.555,4.081,2.278,1.863.977,3.772,1.87,5.676,2.761,4.669,2.185,9.781,3.236,14.45,5.433a19.525,19.525,0,0,1,6.041,4.16,12.451,12.451,0,0,1,1.951,2.678,6.083,6.083,0,0,1,3.159,2.358,32.113,32.113,0,0,1,4.442,8.936c.621,1.7,1.212,3.413,1.84,5.112.31.84.649,1.674.926,2.526.178.548.292,1.116.417,1.679q.154.246.321.483a35.789,35.789,0,0,0,3.019,3.525,35.652,35.652,0,0,1,3,3.613,7.092,7.092,0,0,1,1.469,3.7,4.365,4.365,0,0,1-.385,1.917,4.537,4.537,0,0,1-.925,1.446,6.911,6.911,0,0,1,.838,2.694,4.072,4.072,0,0,1,.791.2A13.836,13.836,0,0,1,174.4,68.6a26.8,26.8,0,0,1,3.939,8.168,25.964,25.964,0,0,1,1.032,9.286,17.219,17.219,0,0,1-2.881,8.57,15.486,15.486,0,0,1-2.932,3.122c.117.261.234.523.335.791.159.424.27.863.406,1.294a5.064,5.064,0,0,1-.115,2.534c-.711,2.984-2.943,5.3-5.373,7.03a29.038,29.038,0,0,1-4.215,2.449c-1.407.679-2.883,1.2-4.349,1.741a.328.328,0,0,1-.114.021.309.309,0,0,1-.111-.021c-.1.323-.2.642-.318.951a20.284,20.284,0,0,1-2.407,4.335,34.087,34.087,0,0,1-3.177,3.926c-.548.584-1.109,1.161-1.7,1.7a7.594,7.594,0,0,1-.743.63c-.177.3-.352.593-.518.9-.769,1.408-1.478,2.846-2.3,4.228a18.377,18.377,0,0,1-2.683,3.72,5.551,5.551,0,0,1-3.6,1.777c-.074,0-.148.005-.223.005a5.1,5.1,0,0,1-2-.434c-.179-.077-.414-.18-.657-.3a77.583,77.583,0,0,1-2.629,9.063q-.752,2.088-1.618,4.135c.02.453.038.906.044,1.361.013.976-.01,1.954,0,2.93.014,1.9.01,3.792.067,5.688a152.493,152.493,0,0,0,1.946,20.358q.594,3.572,1.34,7.118c3.125,1.333,6.227,2.716,9.324,4.115,5.773,2.607,11.6,5.15,17.107,8.293a74.067,74.067,0,0,1,7.889,5.139c1.26.95,2.488,1.942,3.668,2.991.584.519,1.157,1.049,1.705,1.607a8.638,8.638,0,0,1,1.213,1.449.7.7,0,0,1,.5.893A30.273,30.273,0,0,1,178.429,215c-3.029,6.344-8.183,11.331-13.272,16.044-2.642,2.446-5.323,4.853-7.847,7.422-2.426,2.469-4.564,5.192-6.975,7.675A70.829,70.829,0,0,1,118.7,265a75.837,75.837,0,0,1-20.447,2.747,84.288,84.288,0,0,1-15.568-1.47,92.929,92.929,0,0,1-34.155-14.015A91.248,91.248,0,0,1,34.068,240.38,71.146,71.146,0,0,1,22.5,225.6a.726.726,0,0,1-.207-.907,35.223,35.223,0,0,1,5.676-8.317c3.8-4.337,8.208-8.08,12.419-12,2.124-1.979,4.17-4.027,6.1-6.194a65.188,65.188,0,0,0,4.949-6.417q-.436-1.589-.84-3.186c-.987-3.921-1.806-7.886-2.5-11.869-.357-2.065-.647-4.14-.907-6.219-.13-1.036-.268-2.073-.338-3.115-.065-.969-.082-1.931-.112-2.9-.369-.553-.737-1.106-1.091-1.67a71.463,71.463,0,0,1-4.953-9.379c-.679-1.558-1.342-3.127-2.033-4.68A24.336,24.336,0,0,1,37,143.423a86.3,86.3,0,0,1-1.166-9.786c-2.322-.617-3.379-2.908-4.217-4.949a12.944,12.944,0,0,0-1.591-2.483c-.454-.632-.906-1.2-1.413-1.8-.9-1.062-1.827-2.1-2.66-3.209a13.282,13.282,0,0,1-.742-1.11l-.173,0a11.623,11.623,0,0,1-1.751-.147,15.117,15.117,0,0,1-4.495-1.733,26.923,26.923,0,0,1-4.216-2.763,22.726,22.726,0,0,1-6.366-7.616,14.414,14.414,0,0,1-1.41-4.551,8.807,8.807,0,0,1,.443-4.515,1.992,1.992,0,0,0-.474-2.186,15.353,15.353,0,0,1-1.736-2.51A34.057,34.057,0,0,1,2.715,89.6,17.075,17.075,0,0,1,1.1,82.263,10.659,10.659,0,0,1,2.87,76.806c2.19-3.288,5.786-5.362,9.052-7.425q.721-.455,1.445-.919a2.1,2.1,0,0,1-.689-.759,2.387,2.387,0,0,1-.191-1.685,14.317,14.317,0,0,1,1.289-2.853,3.263,3.263,0,0,0,.353-1.293,12.968,12.968,0,0,1,.125-1.85A8.071,8.071,0,0,1,15.561,56.5c.029-.04.061-.077.09-.117a6.422,6.422,0,0,1-1.18-1.7,16.17,16.17,0,0,1-.821-2.231,13.749,13.749,0,0,1-.565-3.98,12.824,12.824,0,0,1,1.644-6.066,22.24,22.24,0,0,1,3.918-4.91c1.576-1.565,3.253-3.04,4.947-4.474,1.363-1.154,2.747-2.294,3.992-3.575a7.5,7.5,0,0,1,.112-.859,8.8,8.8,0,0,1,.988-2.676c1.723-3.069,4.879-5.08,7.8-6.876,2.552-1.57,5.339-3.083,7.433-5.278.074-.157.141-.318.22-.473a18.97,18.97,0,0,1,5.022-6.319,20.438,20.438,0,0,1,7.124-3.633,30.531,30.531,0,0,1,8.492-1.095h.142c1.567.005,3.133.1,4.692.254q1.3.131,2.6.316c.355.052.707.123,1.059.2a.587.587,0,0,1,.517-.31.678.678,0,0,1,.117.01,5.66,5.66,0,0,0,.99.084c1.811,0,3.653-.757,5.4-1.062a10.409,10.409,0,0,1,1.786-.179,5.6,5.6,0,0,1,1.442.175,4.493,4.493,0,0,1,2.218,1.344c1.353-.1,2.706-.3,4.051-.48,1.323-.181,2.649-.332,3.971-.525a63.957,63.957,0,0,1,9.155-.97m0-1.093A55.087,55.087,0,0,0,94.8.8Q94.2.893,93.6.982c-.763.111-1.546.211-2.3.307-.554.07-1.106.141-1.659.216l-.489.067c-.979.135-1.986.274-2.977.364A5.992,5.992,0,0,0,83.8.667,6.646,6.646,0,0,0,82.073.455,11.347,11.347,0,0,0,80.1.65c-.677.119-1.358.3-2.017.472a12.9,12.9,0,0,1-3.19.574,4.593,4.593,0,0,1-.8-.066,1.731,1.731,0,0,0-.307-.027,1.669,1.669,0,0,0-.841.223c-.189-.036-.382-.07-.58-.1C71.5,1.6,70.611,1.5,69.719,1.406c-1.691-.17-3.26-.254-4.8-.26h-.146a31.3,31.3,0,0,0-8.8,1.138,21.474,21.474,0,0,0-7.5,3.829A20.137,20.137,0,0,0,43.159,12.8c-.055.109-.1.22-.155.331l0,.007a29.381,29.381,0,0,1-5.9,4.25c-.4.241-.8.481-1.189.722-2.641,1.624-6.257,3.848-8.179,7.272a9.886,9.886,0,0,0-1.109,3.009c-.036.19-.066.38-.088.57-1,1-2.118,1.94-3.2,2.852l-.45.38c-1.409,1.194-3.253,2.788-5.011,4.533a23.424,23.424,0,0,0-4.105,5.158,13.99,13.99,0,0,0-1.78,6.584,14.922,14.922,0,0,0,.61,4.3,17.047,17.047,0,0,0,.878,2.382,6.96,6.96,0,0,0,.806,1.32,9.65,9.65,0,0,0-1.114,3.394,14.309,14.309,0,0,0-.137,2,2.4,2.4,0,0,1-.254.848c-.124.271-.274.549-.432.842a8.377,8.377,0,0,0-.932,2.24,3.478,3.478,0,0,0,.3,2.426l-.376.238-.845.531C7.347,70.959,4.093,73,1.96,76.2A11.767,11.767,0,0,0,.012,82.215a17.78,17.78,0,0,0,1.7,7.811A35.285,35.285,0,0,0,4.1,94.635l.191.313a14.018,14.018,0,0,0,1.68,2.372.943.943,0,0,1,.269,1,9.691,9.691,0,0,0-.524,5.088,15.574,15.574,0,0,0,1.513,4.9A23.829,23.829,0,0,0,13.9,116.3a28.2,28.2,0,0,0,4.388,2.874,15.9,15.9,0,0,0,4.838,1.845,13.566,13.566,0,0,0,1.479.15c.155.235.312.459.475.678.635.85,1.325,1.654,1.993,2.431.236.275.473.551.707.829.518.614.95,1.166,1.36,1.737.108.15.219.3.331.453a9.177,9.177,0,0,1,1.136,1.807c.672,1.636,1.756,4.276,4.2,5.33a81.79,81.79,0,0,0,1.126,9.2,25.534,25.534,0,0,0,1.739,5.562c.425.955.847,1.936,1.256,2.884q.385.895.773,1.788a72.741,72.741,0,0,0,5.03,9.522c.3.486.622.966.934,1.435l.008.27c.021.768.043,1.561.1,2.357.065.96.186,1.916.3,2.841l.042.336c.3,2.427.594,4.419.915,6.269.724,4.183,1.569,8.2,2.512,11.949.217.862.451,1.754.712,2.715a62.026,62.026,0,0,1-4.577,5.894c-1.776,1.992-3.749,3.995-6.031,6.121-1,.932-2.032,1.873-3.029,2.781a119.218,119.218,0,0,0-9.467,9.3A35.759,35.759,0,0,0,21.3,224.24a1.811,1.811,0,0,0,.332,2.051,72.16,72.16,0,0,0,11.661,14.856,92.433,92.433,0,0,0,14.637,12.026,94.448,94.448,0,0,0,34.559,14.18,85.515,85.515,0,0,0,15.77,1.488A76.908,76.908,0,0,0,119,266.053a71.869,71.869,0,0,0,32.123-19.15c1.192-1.228,2.328-2.524,3.427-3.777,1.14-1.3,2.32-2.647,3.544-3.894,2.009-2.045,4.165-4.028,6.249-5.947q.782-.719,1.561-1.44c5.382-4.983,10.465-9.986,13.516-16.375a31.42,31.42,0,0,0,1.895-5.023,1.781,1.781,0,0,0-.813-2.05,10.777,10.777,0,0,0-1.173-1.354c-.5-.512-1.063-1.039-1.759-1.658-1.148-1.02-2.37-2.017-3.736-3.046a74.616,74.616,0,0,0-8.005-5.216c-4.973-2.838-10.261-5.217-15.376-7.518l-1.823-.821c-2.426-1.1-5.587-2.513-8.82-3.9-.441-2.127-.85-4.315-1.215-6.516a151.877,151.877,0,0,1-1.932-20.212c-.044-1.45-.052-2.931-.059-4.363q0-.65-.007-1.3c0-.437,0-.875,0-1.312,0-.531.007-1.079,0-1.624-.005-.39-.019-.779-.034-1.15.56-1.341,1.079-2.672,1.543-3.962a77.7,77.7,0,0,0,2.367-7.919,6.067,6.067,0,0,0,1.9.317q.14,0,.28-.007a6.636,6.636,0,0,0,4.313-2.1,19.34,19.34,0,0,0,2.851-3.937c.542-.917,1.04-1.862,1.522-2.776.257-.489.524-.995.792-1.485.126-.232.261-.463.386-.675.218-.17.414-.349.591-.512l.062-.057c.672-.614,1.293-1.263,1.759-1.761a35.318,35.318,0,0,0,3.279-4.052,21.553,21.553,0,0,0,2.529-4.568c.05-.132.1-.266.146-.4l.079-.029c1.361-.5,2.769-1.011,4.12-1.663a29.95,29.95,0,0,0,4.374-2.542c3.176-2.256,5.128-4.836,5.8-7.667a6.023,6.023,0,0,0,.095-3.117c-.045-.14-.086-.282-.127-.423-.088-.3-.179-.609-.3-.925l-.036-.095a16.947,16.947,0,0,0,2.5-2.8,18.31,18.31,0,0,0,3.078-9.113,26.84,26.84,0,0,0-1.072-9.68,27.979,27.979,0,0,0-4.1-8.5c-2.074-2.872-4.2-4.683-6.494-5.539-.065-.024-.13-.047-.2-.068a8.114,8.114,0,0,0-.523-1.648,6.983,6.983,0,0,0,.635-1.166,5.432,5.432,0,0,0,.476-2.4,8.21,8.21,0,0,0-1.665-4.287,36.808,36.808,0,0,0-3.088-3.725c-.173-.19-.349-.379-.524-.569a27.928,27.928,0,0,1-2.405-2.845c-.065-.093-.129-.187-.191-.282l-.011-.051a15.8,15.8,0,0,0-.392-1.541c-.2-.613-.429-1.215-.65-1.8-.1-.256-.2-.513-.29-.769-.34-.922-.677-1.867-1-2.781-.277-.777-.553-1.553-.836-2.327a33.159,33.159,0,0,0-4.609-9.236,7.559,7.559,0,0,0-3.277-2.6,13.959,13.959,0,0,0-1.895-2.509,20.459,20.459,0,0,0-6.374-4.4,66.1,66.1,0,0,0-7.379-2.78,64.84,64.84,0,0,1-7.073-2.653c-1.868-.874-3.794-1.775-5.632-2.74l-.084-.044c-1.259-.66-2.56-1.342-3.77-2.1-.337-.411-.713-.827-1.147-1.268a21.984,21.984,0,0,0-3.178-2.69A17.493,17.493,0,0,0,107.193.39,22.063,22.063,0,0,0,102.91,0" transform="translate(0 0)"/>
        <path id="Path_3073" data-name="Path 3073" d="M71.395,157.912a22.033,22.033,0,0,0,2.726.568,3.626,3.626,0,0,0,2.535-.707,6.277,6.277,0,0,0,1.078-1.28,6.154,6.154,0,0,1,1.022-1.073,4.985,4.985,0,0,1,2.855-.857.366.366,0,0,0,.183-.676c-1.949-1.184-3.825.65-5.013,2.034a3.966,3.966,0,0,1-.968.95,2.88,2.88,0,0,1-1.215.319,21.551,21.551,0,0,1-2.845-.071,9.136,9.136,0,0,0-5.125.936,7.6,7.6,0,0,0-2.827,3.368c-.405.818-.718,1.662-1.049,2.511a7.811,7.811,0,0,0-.737,2.758.242.242,0,0,0,.447.121,6.577,6.577,0,0,0,.752-2.293,18.053,18.053,0,0,1,.622-2.3,5.916,5.916,0,0,1,7.561-4.311" transform="translate(-37.788 -93.539)"/>
        <path id="Path_3074" data-name="Path 3074" d="M103.056,153.865a21.5,21.5,0,0,0-1.913,1.647,6.875,6.875,0,0,1-1.846,1,9.574,9.574,0,0,1-3.97.329c-.71-.061-1.4-.231-2.108-.324-.682-.089-1.363-.18-2.048-.242a11.709,11.709,0,0,0-4.136.255,7.319,7.319,0,0,0-1.91.824,5.533,5.533,0,0,0-1.694,1.939c-.626,1.043-1.194,2.418-2.33,2.959a6.04,6.04,0,0,1-2.727.358c-1.041-.038-2.093-.1-3.135-.068a5.281,5.281,0,0,0-2.906.642,2.782,2.782,0,0,0-1.1,2.9.147.147,0,0,0,.28,0c.318-.886.427-1.914,1.339-2.4a4.268,4.268,0,0,1,2.535-.266c2,.265,4.217.89,6.152.02a5.809,5.809,0,0,0,2.394-2.622,9.976,9.976,0,0,1,1.411-2.086,4.264,4.264,0,0,1,1.806-.951,9.774,9.774,0,0,1,3.908-.173c.68.078,1.356.192,2.032.3.706.113,1.413.148,2.124.223a11.4,11.4,0,0,0,4.569-.277,6.976,6.976,0,0,0,2.163-1.091,4.652,4.652,0,0,0,1.889-2.3.536.536,0,0,0-.779-.6" transform="translate(-43.359 -93.715)"/>
        <path id="Path_3075" data-name="Path 3075" d="M40.838,167.817c.387.2,1.017-.037.961-.552a1.544,1.544,0,0,0-.227-.73,3.842,3.842,0,0,1-.265-.488,2.506,2.506,0,0,1-.191-.755,1.041,1.041,0,0,1,.186-.637,2.7,2.7,0,0,1,.523-.615,17.625,17.625,0,0,1,3.686-2.163A7.054,7.054,0,0,0,47.19,160.7a5.418,5.418,0,0,0,1.054-2.184c.14-.4.276-.8.416-1.207.128-.369.155-.752.279-1.113a5.9,5.9,0,0,1,.984-1.863,4.422,4.422,0,0,1,1.945-1.274,14.315,14.315,0,0,1,1.509-.41c.551-.129,1.229-.195,1.522-.756a.222.222,0,0,0-.034-.264,1.566,1.566,0,0,0-1.55-.126,6.234,6.234,0,0,0-1.437.565,8.269,8.269,0,0,0-1.863,1.414,8,8,0,0,0-1.184,1.7c-.176.337-.3.72-.5,1.038a5.415,5.415,0,0,0-.538,1.15c-.156.428-.31.856-.47,1.283a2.644,2.644,0,0,1-.589,1.14A9.228,9.228,0,0,1,45,160.912a21.729,21.729,0,0,0-3.987,2.313,3.355,3.355,0,0,0-1.146,1.863,2.69,2.69,0,0,0,.972,2.728" transform="translate(-24.262 -92.23)"/>
        <path id="Path_3076" data-name="Path 3076" d="M176.3,336.323a23.427,23.427,0,0,0-1.365,5.9c-.161,1.986-.023,4.264,1.331,5.843a3.831,3.831,0,0,0,2.831,1.486c.277-.025.637-.049.8-.316a.5.5,0,0,0-.177-.643,6.044,6.044,0,0,0-1.446-.723,5.359,5.359,0,0,1-2.651-4.634,20.668,20.668,0,0,1,.832-6.875.08.08,0,0,0-.154-.042" transform="translate(-106.562 -204.906)"/>
        <path id="Path_3077" data-name="Path 3077" d="M183.223,359.794c0,.086.123.082.13,0,.088-.907.931-.176,1.259.157a11.38,11.38,0,0,1,.97,1.171,14.786,14.786,0,0,0,2.053,2.407,10.886,10.886,0,0,0,2.481,1.642,7.471,7.471,0,0,0,4.567.6,10.994,10.994,0,0,0,4.223-1.949,49.12,49.12,0,0,0,4.873-4.028,1.815,1.815,0,0,1,.814.138.982.982,0,0,1,.4.332c.13.155.234.206.187.413a.066.066,0,0,0,.109.064c.337-.319.714-.5.562-1.066a1.894,1.894,0,0,0-.92-1.07,2.637,2.637,0,0,0-1.383-.308,3.58,3.58,0,0,0-1.733,1.009,50.145,50.145,0,0,1-5.212,4.021,5.805,5.805,0,0,1-4.721.913c-2.282-.66-3.817-2.587-5.655-3.956-.527-.393-3-2.008-3-.493" transform="translate(-111.648 -218.329)"/>
        <path id="Path_3078" data-name="Path 3078" d="M234.792,344.516a4.923,4.923,0,0,1-2.008.86c-.424.086-.849.173-1.278.231a4.1,4.1,0,0,0-1.6.394.329.329,0,0,0,0,.564,2.5,2.5,0,0,0,1.424.224,7.934,7.934,0,0,0,1.466-.228,7.517,7.517,0,0,0,2.108-.925,5.393,5.393,0,0,0,2.2-2.914,6.319,6.319,0,0,0,.21-1.941,18.64,18.64,0,0,0-.1-1.986,14.073,14.073,0,0,0-1.39-4.4c-.738-1.479-1.559-2.922-2.313-4.4a.044.044,0,0,0-.08.033c.421,1.313.9,2.613,1.211,3.957.322,1.388.8,2.728,1.131,4.113a9.911,9.911,0,0,1,.439,3.614,3.972,3.972,0,0,1-1.411,2.8" transform="translate(-139.997 -201.072)"/>
        <path id="Path_3079" data-name="Path 3079" d="M223.459,259.791c.239,2.337.28,4.682.652,7a3.61,3.61,0,0,0,.16.815,6.722,6.722,0,0,0,.369.65.147.147,0,0,0,.266-.035c.04-.224.1-.45.126-.676a3.384,3.384,0,0,0-.084-.891c-.073-.513-.14-1.027-.2-1.541-.141-1.131-.406-2.238-.514-3.374a24.044,24.044,0,0,1-.118-3.525c.064-1.2.182-2.4.22-3.607s.119-2.415.184-3.622c.064-1.189.124-2.388.288-3.569a28.145,28.145,0,0,1,1.938-6.659c1.613-3.962,4.24-7.6,8.145-9.538a19.732,19.732,0,0,1,7.331-1.765,43.417,43.417,0,0,1,9.727.271,23.706,23.706,0,0,1,9,3.28,32.284,32.284,0,0,1,3.786,2.961,11.778,11.778,0,0,1,2.908,3.441,6.566,6.566,0,0,1,.711,1.98c.077.455.778.416.882,0,.863-3.447-2.689-5.858-4.974-7.77a22.914,22.914,0,0,0-8.908-4.494,36.091,36.091,0,0,0-10.144-1.194,27.967,27.967,0,0,0-8.739,1.3,18.051,18.051,0,0,0-10.1,8.941,26.963,26.963,0,0,0-2.215,6.814,49.434,49.434,0,0,0-1.115,7.346,29.11,29.11,0,0,0,.017,3.779c.111,1.229.283,2.454.408,3.682" transform="translate(-135.874 -138.884)"/>
        <path id="Path_3080" data-name="Path 3080" d="M111.841,227.494a30.5,30.5,0,0,1,5.176.706,15.724,15.724,0,0,1,5.177,1.991,16.5,16.5,0,0,1,2.155,1.658,17.623,17.623,0,0,1,1.985,2,22.333,22.333,0,0,1,2.919,4.9,50.113,50.113,0,0,1,2.031,5.464c.57,1.8.963,3.661,1.572,5.448a9.78,9.78,0,0,0,.574,1.182.3.3,0,0,0,.555-.15,7.491,7.491,0,0,0-.026-1.392c-.084-.484-.178-.969-.279-1.45-.2-.954-.484-1.9-.756-2.835a43.764,43.764,0,0,0-2.093-5.783,34.112,34.112,0,0,0-2.937-5.25,17.98,17.98,0,0,0-3.962-4.381,14.8,14.8,0,0,0-5.385-2.539,44.53,44.53,0,0,0-5.516-.779,26.223,26.223,0,0,0-11.367.938,15.651,15.651,0,0,0-4.83,2.558,10.909,10.909,0,0,0-3.4,4.408,6.3,6.3,0,0,0-.212,1.456c-.043.35.478.444.636.172.24-.414.57-.756.8-1.173s.429-.842.672-1.248a10.42,10.42,0,0,1,1.55-2,11.977,11.977,0,0,1,4.231-2.671,26.965,26.965,0,0,1,10.735-1.233" transform="translate(-56.804 -137.753)"/>
        <path id="Path_3081" data-name="Path 3081" d="M194.9,315.718a.051.051,0,0,0,.093.012,5.126,5.126,0,0,0,.273-1.026c.089-.4.21-.784.31-1.177a10.978,10.978,0,0,0,.222-2.474c.014-.822.025-1.649-.03-2.469-.026-.383-.049-.768-.1-1.149a9.835,9.835,0,0,0-.4-1.233c-.007-.025-.04-.018-.043.005-.045.421-.2.808-.227,1.231s-.01.823-.014,1.234c-.008.793-.006,1.586-.045,2.38a20.715,20.715,0,0,0-.083,2.375c.028.407.066.82.057,1.228a6.467,6.467,0,0,0-.006,1.062" transform="translate(-118.722 -186.576)"/>
        <path id="Path_3082" data-name="Path 3082" d="M274.248,248.484a9.837,9.837,0,0,0-1.962-2.662,12.684,12.684,0,0,0-5.964-3.086,19.932,19.932,0,0,0-7.393-.233,22.767,22.767,0,0,0-6.887,2.345,16.45,16.45,0,0,0-3.2,2.1,9.3,9.3,0,0,0-1.279,1.274,5.256,5.256,0,0,0-.538.767,1.18,1.18,0,0,0-.206.785.066.066,0,0,0,.083.063,1.039,1.039,0,0,0,.513-.3c.185-.19.373-.373.555-.566.352-.375.722-.741,1.1-1.088a14.588,14.588,0,0,1,2.618-1.871,17.694,17.694,0,0,1,6.445-2.065c4.247-.57,9.064-.409,12.549,2.279a8.626,8.626,0,0,1,2.2,2.48,9.767,9.767,0,0,1,.7,1.523,12.892,12.892,0,0,0-1.342-.933,18.981,18.981,0,0,0-2.554-1.332,19.269,19.269,0,0,0-5.654-1.388,23.549,23.549,0,0,0-5.681.12,31.54,31.54,0,0,0-5.621,1.26,23.036,23.036,0,0,0-2.986,1.2,5.4,5.4,0,0,0-2.322,1.614.305.305,0,0,0-.288.248c-.122.838.748,1.093,1.432,1.1a9.569,9.569,0,0,0,1.02-.061,2.538,2.538,0,0,1,.428-.031,1.69,1.69,0,0,1,.6.246,39.359,39.359,0,0,0,5.485,2.242c3.551,1.193,7.471,2.126,11.129.828a10.091,10.091,0,0,0,2.8-1.534,11.3,11.3,0,0,0,1.342-1.218,6.881,6.881,0,0,0,.983-1.42,11.68,11.68,0,0,0,1.435.886.654.654,0,0,0,.659-.078c.012.013.022.027.034.04a.219.219,0,0,0,.342-.044,1.759,1.759,0,0,0,.231-.846,8.232,8.232,0,0,0-.151-.873,6.2,6.2,0,0,0-.656-1.766m-6.772,5.628a10.541,10.541,0,0,1-4.979.622c-3.634-.285-6.961-1.864-10.4-2.913a8.64,8.64,0,0,0-2.429-.529,9.666,9.666,0,0,1-1.17-.048,1.82,1.82,0,0,1-.494-.1.492.492,0,0,1-.106-.073,9,9,0,0,0,1.976-.9c.811-.393,1.628-.775,2.467-1.1a21.027,21.027,0,0,1,16.036-.055,19.823,19.823,0,0,1,2.711,1.313c.24.141.473.294.7.451a13.257,13.257,0,0,1-4.312,3.337" transform="translate(-150.398 -147.626)"/>
        <path id="Path_3083" data-name="Path 3083" d="M277.361,269.148a10.634,10.634,0,0,0-1.656,1.956,8.341,8.341,0,0,1-1.825,1.563,9,9,0,0,1-2.058.958,9.63,9.63,0,0,1-2.165.491,15.805,15.805,0,0,1-4.648-.448,33.879,33.879,0,0,1-4.775-1.386,22.067,22.067,0,0,1-2.5-1.127,4.649,4.649,0,0,1-1.182-.772,1.036,1.036,0,0,0-.929-.439.088.088,0,0,0-.061.107.961.961,0,0,0,.625.657,4.668,4.668,0,0,1,.63.277c.19.11.375.225.562.34.732.449,1.456.905,2.212,1.314a19.787,19.787,0,0,0,4.8,1.984,14.992,14.992,0,0,0,5,.33,12.828,12.828,0,0,0,2.363-.4,9.763,9.763,0,0,0,2.18-.958,10.462,10.462,0,0,0,2.178-1.762,4.463,4.463,0,0,0,1.517-2.533.182.182,0,0,0-.273-.157" transform="translate(-155.73 -163.99)"/>
        <path id="Path_3084" data-name="Path 3084" d="M112.33,248.3a9.036,9.036,0,0,1,.9-.858,8.356,8.356,0,0,1,2.119-1.325,8.467,8.467,0,0,1,2.637-.679,25.287,25.287,0,0,1,2.622-.136,14.83,14.83,0,0,1,2.611.364,21.791,21.791,0,0,1,5.132,1.82,26.412,26.412,0,0,1,2.618,1.538c.432.288.838.623,1.275.9a7.171,7.171,0,0,0,1.3.573c.116.045.213-.105.155-.2a5.158,5.158,0,0,0-.748-1.057,9.612,9.612,0,0,0-1.218-.948,26.814,26.814,0,0,0-2.556-1.634,19.912,19.912,0,0,0-5.476-2.188,13.358,13.358,0,0,0-2.95-.284,8.919,8.919,0,0,0-2.877.4,15.354,15.354,0,0,0-4.579,2.586c-.377.317-.749.643-1.092,1a12.236,12.236,0,0,0-.919.926,2.718,2.718,0,0,0-.588,2.336c.05.175.34.148.328-.045a3.686,3.686,0,0,1,.647-2.066,4.916,4.916,0,0,1,.666-1.019" transform="translate(-67.402 -148.79)"/>
        <path id="Path_3085" data-name="Path 3085" d="M117.033,263.231a13.417,13.417,0,0,0,4.793,1.425,18.267,18.267,0,0,0,9.724-1.9,22.072,22.072,0,0,0,2.5-1.413c.4-.266.793-.548,1.175-.841a2.4,2.4,0,0,0,.527-.489c.028-.039.049-.082.074-.123a1.763,1.763,0,0,0,1.119.193.453.453,0,0,0,.269-.661c-.4-.65-1.4-.864-2.078-1.129-.8-.312-1.6-.6-2.418-.857a52.974,52.974,0,0,0-5.325-1.406c-3.469-.692-7.131-1.149-10.526.141a8.824,8.824,0,0,0-2.372,1.331,6.36,6.36,0,0,0-.968.933,5.833,5.833,0,0,0-.438.575,2.438,2.438,0,0,0-.22.672.317.317,0,0,0-.007.137.337.337,0,0,0,.02.343,7.864,7.864,0,0,0,1.972,1.779,16.549,16.549,0,0,0,2.181,1.289m-3.369-3.426a1.605,1.605,0,0,0,.232-.205c.124-.14.233-.295.359-.435a9.262,9.262,0,0,1,.818-.816,7.471,7.471,0,0,1,1.9-1.179,11.5,11.5,0,0,1,4.613-.8A29.8,29.8,0,0,1,132,258.405q1.27.47,2.532.965c.1.039.2.08.3.12-.032.021-.065.038-.1.062-.345.27-.687.54-1.045.792a19.149,19.149,0,0,1-2,1.236,17.633,17.633,0,0,1-4.474,1.626,16.61,16.61,0,0,1-9.148-.629,11.872,11.872,0,0,1-2.407-1.232c-.378-.244-.745-.5-1.1-.784-.306-.244-.588-.52-.9-.757" transform="translate(-68.749 -155.601)"/>
        <path id="Path_3086" data-name="Path 3086" d="M133.553,277.626a9.067,9.067,0,0,0,1.718-1.454,4.432,4.432,0,0,0,1.283-2.015c.01-.066-.066-.128-.122-.07-.478.492-.723,1.184-1.165,1.717a7.741,7.741,0,0,1-1.5,1.391,8.468,8.468,0,0,1-3.622,1.4,17.156,17.156,0,0,1-4.14-.048,18.049,18.049,0,0,1-3.947-.839,14.33,14.33,0,0,1-2.114-.857c-.64-.335-1.233-.732-1.9-1.015-.082-.035-.205.045-.139.139a8.747,8.747,0,0,0,3.3,2.267,12.6,12.6,0,0,0,4.26,1.239,12.183,12.183,0,0,0,8.083-1.852" transform="translate(-71.834 -167.002)"/>
        <path id="Path_3087" data-name="Path 3087" d="M203.73,387.813c-.434.087-.87.157-1.3.264-.141.036-.282.062-.422.087a1.776,1.776,0,0,1-.441-.275,5.334,5.334,0,0,0-1.334-.721,26.821,26.821,0,0,1-2.646-1.565,15.033,15.033,0,0,0-2.78-1.374,7.464,7.464,0,0,0-1.747-.423,1.337,1.337,0,0,0-.221-.2,1.507,1.507,0,0,0-.727-.223,4.927,4.927,0,0,0-1.565.138c-.528.119-1.043.291-1.573.4a6.125,6.125,0,0,1-1.662.234c-1.1-.1-2.147-.507-3.248-.61a6.291,6.291,0,0,0-1.515.079,2.836,2.836,0,0,0-1.109.363,7.445,7.445,0,0,0-1.175.423c-.9.407-1.779.85-2.653,1.323a9.475,9.475,0,0,1-2.627,1.017,13.039,13.039,0,0,1-2.918-.047.234.234,0,0,0-.167.071c-.734-.037-1.489.1-1.723.728a.579.579,0,0,0,.153.579c.429.377.966.172,1.486.2a5.776,5.776,0,0,1,1.261.211,19.3,19.3,0,0,1,2.756,1.113,13.064,13.064,0,0,0,2.866.994,4.11,4.11,0,0,0,2.77-.19c.339.1.681.193,1.023.279a15.015,15.015,0,0,0,4.431.364c.724-.037,1.444-.153,2.164-.234s1.426-.183,2.134-.3c.327-.055.654-.118.979-.187a.333.333,0,0,0,.057.039,8.109,8.109,0,0,0,2.238.4,16.317,16.317,0,0,0,1.874.107,8.481,8.481,0,0,0,2.59-.3,9.966,9.966,0,0,0,1.694-.748c.541-.3,1.113-.535,1.653-.827a4.722,4.722,0,0,1,1.286-.414,5.964,5.964,0,0,1,.86-.115,1.251,1.251,0,0,0,.916-.254.317.317,0,0,0-.063-.49c-.4-.286-1.13,0-1.575.089m-3.174.782a14.1,14.1,0,0,1-3.735.892c-.637.049-1.274.044-1.913.054a1.6,1.6,0,0,0,.412-.332c.188-.216.161-.68-.192-.728a4.609,4.609,0,0,0-1.945.417q-1,.3-2.02.514a15.642,15.642,0,0,1-2.077.287A16.944,16.944,0,0,1,187,389.66c-1.387-.073-2.773-.275-4.151-.447-.679-.085-1.348-.216-2.017-.355a8.651,8.651,0,0,0-2-.313.323.323,0,0,0-.226.545,3.316,3.316,0,0,0,.518.408c-.171-.045-.34-.095-.506-.152a24.747,24.747,0,0,1-2.749-1.261q-.3-.147-.607-.292a9.988,9.988,0,0,0,2.492-.777,12.739,12.739,0,0,0,2.712-1.6c.409-.323.837-.625,1.252-.941a6.823,6.823,0,0,1,.583-.395,2.611,2.611,0,0,1,.568-.062,3.9,3.9,0,0,1,1.478.455,7.829,7.829,0,0,0,3.015,1.011,8.716,8.716,0,0,0,2.909-.923,4.709,4.709,0,0,1,1.434-.318,4.806,4.806,0,0,1,.556.032c.321.124.65.233.96.382q.7.337,1.386.7c.907.484,1.768,1.053,2.665,1.556s1.8.981,2.738,1.393a4.049,4.049,0,0,0,.668.242l-.128.044" transform="translate(-103.683 -233.61)"/>
        <path id="Path_3088" data-name="Path 3088" d="M204.961,408.482c-.593.44-1.128.958-1.745,1.369a6.831,6.831,0,0,1-2.113.932,19.235,19.235,0,0,1-5.146.407c-.829-.016-1.657-.053-2.485-.078s-1.6.047-2.416.09a10.736,10.736,0,0,1-5.612-1.027,11.775,11.775,0,0,1-2.523-1.914,6.358,6.358,0,0,1-1.025-1.254c-.291-.475-.456-1.084-.919-1.4a.2.2,0,0,0-.288.117,2.226,2.226,0,0,0,.39,1.463,14.078,14.078,0,0,0,.77,1.368,7.274,7.274,0,0,0,2.162,2.2,11.636,11.636,0,0,0,5.9,1.866c.99.036,1.964-.128,2.95-.111.85.016,1.7.059,2.551.084a20.764,20.764,0,0,0,5.692-.416c1.69-.425,4.119-1.514,4.038-3.591,0-.084-.106-.166-.186-.107" transform="translate(-110.085 -247.141)"/>
        <path id="Path_3089" data-name="Path 3089" d="M208.664,430.985a12.948,12.948,0,0,0-1.812-.819,15.806,15.806,0,0,0-3.834-.916,14.212,14.212,0,0,0-3.919.088,12.683,12.683,0,0,0-1.872.455,2.661,2.661,0,0,0-1.5.866.263.263,0,0,0,.156.384,3.6,3.6,0,0,0,1.667-.066c.58-.086,1.162-.124,1.746-.161a21.288,21.288,0,0,1,3.646.1,17.354,17.354,0,0,1,3.412.771c.561.18,1.1.4,1.641.631a4.558,4.558,0,0,0,1.721.337.227.227,0,0,0,.195-.339,3.163,3.163,0,0,0-1.248-1.331" transform="translate(-119.244 -261.506)"/>
        <path id="Path_3090" data-name="Path 3090" d="M52.237,274.892h0s0,0,0,0" transform="translate(-31.829 -167.505)"/>
        <path id="Path_3091" data-name="Path 3091" d="M181.468,210.964a8.663,8.663,0,0,0-1.213-1.449c-.548-.557-1.121-1.088-1.705-1.607-1.179-1.048-2.408-2.041-3.668-2.99a73.991,73.991,0,0,0-7.889-5.14c-5.508-3.143-11.334-5.686-17.107-8.293-3.1-1.4-6.2-2.782-9.324-4.115q-.748-3.544-1.34-7.118a152.438,152.438,0,0,1-1.946-20.359c-.057-1.9-.053-3.791-.067-5.688-.007-.976.016-1.954,0-2.93-.006-.455-.024-.908-.043-1.361q.861-2.047,1.617-4.135a77.541,77.541,0,0,0,2.629-9.063c.243.125.479.227.657.3a5.009,5.009,0,0,0,2.227.428,5.553,5.553,0,0,0,3.6-1.777,18.4,18.4,0,0,0,2.683-3.719c.817-1.382,1.526-2.82,2.3-4.228.166-.3.341-.6.518-.9a7.6,7.6,0,0,0,.743-.629c.591-.541,1.152-1.118,1.7-1.7a34.016,34.016,0,0,0,3.177-3.926,20.3,20.3,0,0,0,2.407-4.335c.118-.309.223-.628.318-.951a.31.31,0,0,0,.225,0c1.466-.536,2.942-1.062,4.349-1.741a29,29,0,0,0,4.216-2.449c2.43-1.727,4.661-4.046,5.373-7.03a5.064,5.064,0,0,0,.116-2.534c-.136-.431-.248-.87-.406-1.294-.1-.269-.218-.53-.335-.791a15.486,15.486,0,0,0,2.932-3.122,17.213,17.213,0,0,0,2.88-8.57,25.957,25.957,0,0,0-1.032-9.286,26.8,26.8,0,0,0-3.939-8.168,13.833,13.833,0,0,0-5.989-5.154,4.034,4.034,0,0,0-.791-.205,6.9,6.9,0,0,0-.838-2.694,4.547,4.547,0,0,0,.926-1.447,4.376,4.376,0,0,0,.385-1.917,7.1,7.1,0,0,0-1.469-3.7,35.655,35.655,0,0,0-3-3.612,35.783,35.783,0,0,1-3.019-3.526q-.166-.237-.321-.483c-.125-.564-.239-1.131-.417-1.679-.277-.852-.615-1.685-.926-2.525-.627-1.7-1.218-3.411-1.839-5.112a32.106,32.106,0,0,0-4.442-8.936,6.084,6.084,0,0,0-3.16-2.358,12.46,12.46,0,0,0-1.951-2.678,19.519,19.519,0,0,0-6.041-4.16c-4.67-2.2-9.782-3.248-14.45-5.432-1.9-.891-3.814-1.785-5.676-2.761-1.38-.723-2.765-1.446-4.081-2.278a17.5,17.5,0,0,0-1.191-1.331,20.848,20.848,0,0,0-3.02-2.556,16.3,16.3,0,0,0-6.111-2.586c-4.387-.859-8.87-.035-13.228.6-1.322.193-2.648.344-3.971.525-1.345.184-2.7.383-4.051.48a4.5,4.5,0,0,0-2.218-1.344,7.529,7.529,0,0,0-3.228,0c-2.062.361-4.261,1.354-6.386.979a.588.588,0,0,0-.634.3c-.352-.072-.7-.145-1.059-.2q-1.295-.186-2.6-.316c-1.559-.156-3.125-.249-4.692-.254a30.654,30.654,0,0,0-8.634,1.095A20.424,20.424,0,0,0,50.869,8.67a18.976,18.976,0,0,0-5.022,6.319c-.078.155-.145.316-.219.474-2.094,2.2-4.881,3.708-7.433,5.278-2.919,1.8-6.075,3.806-7.8,6.875a8.812,8.812,0,0,0-.988,2.676,7.525,7.525,0,0,0-.112.859c-1.245,1.281-2.629,2.421-3.992,3.575-1.694,1.435-3.371,2.91-4.947,4.474a22.231,22.231,0,0,0-3.918,4.91A12.827,12.827,0,0,0,14.8,50.177a13.752,13.752,0,0,0,.565,3.98,16.2,16.2,0,0,0,.821,2.231,6.433,6.433,0,0,0,1.181,1.7c-.03.039-.061.077-.09.117a8.071,8.071,0,0,0-1.308,3.521,13.028,13.028,0,0,0-.125,1.851,3.257,3.257,0,0,1-.353,1.293A14.319,14.319,0,0,0,14.2,67.721a2.384,2.384,0,0,0,.191,1.684,2.107,2.107,0,0,0,.689.76c-.481.31-.964.616-1.444.919-3.265,2.063-6.863,4.137-9.052,7.425a10.661,10.661,0,0,0-1.764,5.457A17.069,17.069,0,0,0,4.43,91.3a34.2,34.2,0,0,0,2.321,4.464,15.373,15.373,0,0,0,1.734,2.509,2,2,0,0,1,.473,2.191,8.8,8.8,0,0,0-.445,4.514,14.4,14.4,0,0,0,1.409,4.551,22.722,22.722,0,0,0,6.366,7.616,26.921,26.921,0,0,0,4.216,2.763,15.12,15.12,0,0,0,4.5,1.733,11.261,11.261,0,0,0,1.924.146c.229.38.474.75.742,1.109.832,1.114,1.764,2.147,2.66,3.209.507.6.958,1.172,1.412,1.8a12.942,12.942,0,0,1,1.591,2.482c.839,2.042,1.895,4.333,4.217,4.949a86.379,86.379,0,0,0,1.166,9.786,24.309,24.309,0,0,0,1.664,5.326c.691,1.552,1.353,3.122,2.033,4.68a71.51,71.51,0,0,0,4.953,9.379c.354.564.723,1.117,1.091,1.67.029.968.046,1.93.112,2.9.07,1.042.209,2.079.338,3.115.26,2.079.55,4.154.907,6.219.689,3.983,1.508,7.949,2.5,11.869q.4,1.6.84,3.186a65.168,65.168,0,0,1-4.949,6.417c-1.932,2.167-3.978,4.215-6.1,6.194-4.211,3.925-8.616,7.668-12.42,12A35.2,35.2,0,0,0,24,226.4a.726.726,0,0,0,.207.906,71.135,71.135,0,0,0,11.573,14.776,91.244,91.244,0,0,0,14.464,11.883A92.938,92.938,0,0,0,84.4,267.982a79.444,79.444,0,0,0,36.015-1.277,70.821,70.821,0,0,0,31.634-18.859c2.411-2.483,4.549-5.206,6.976-7.675,2.524-2.569,5.2-4.976,7.847-7.422,5.089-4.712,10.242-9.7,13.271-16.044a30.244,30.244,0,0,0,1.829-4.847.7.7,0,0,0-.5-.893M160.226,115.5a23.361,23.361,0,0,1-4.88,7.941c-.061.068-.124.133-.186.2a.151.151,0,0,0-.232-.134c-.238.156-.523.236-.775.386a3.289,3.289,0,0,0-.748.615,11.366,11.366,0,0,0-1.262,1.769c-.821,1.323-1.561,2.7-2.315,4.057A19.78,19.78,0,0,1,147.394,134a9.431,9.431,0,0,1-.721.725,3.9,3.9,0,0,1-.663.509q-.179.115-.367.216c-.062.033-.125.063-.188.095-.031.016-.063.03-.095.045h0a5.184,5.184,0,0,1-.857.247l-.057.012-.04,0c-.082.007-.164.013-.247.016a4.205,4.205,0,0,1-.506-.016l-.075-.005a.3.3,0,0,0-.05-.011c-.1-.019-.2-.039-.305-.064-.186-.045-.371-.1-.552-.16s-.537-.255-.923-.432q.623-2.982,1.057-5.993a.622.622,0,0,0,.455-.073,11.059,11.059,0,0,0,2.366-2.146,29.76,29.76,0,0,0,2.079-2.493,13.333,13.333,0,0,0,2.626-5.7,9.534,9.534,0,0,0-.026-3.263,16.389,16.389,0,0,0-1.125-3.14,9.582,9.582,0,0,1-.483-1.412.242.242,0,0,0,.18-.154,4.791,4.791,0,0,1,.449-.683c.127-.205.294-.449.41-.6a2.755,2.755,0,0,1,1.111-.837,9.422,9.422,0,0,1,3.209-.648c.581-.039,1.169-.061,1.761-.082.061.188.13.373.2.553.155.42.264.85.386,1.28a9.637,9.637,0,0,1,.372,2.667,10.137,10.137,0,0,1-.31,2.6c-.12.455-.247.908-.373,1.361a8.045,8.045,0,0,0-.153,1.318.241.241,0,0,0,.361.207,3.293,3.293,0,0,0,1.06-.991,5.638,5.638,0,0,0,.6-1.41,10.4,10.4,0,0,0,.388-3.083,10.847,10.847,0,0,0-.517-2.988,7.1,7.1,0,0,0-.715-1.564,22.327,22.327,0,0,0,2.937-.3c.043.112.095.223.148.338a11.573,11.573,0,0,1,.452,1.1,6.442,6.442,0,0,1,.372,2.184,13.709,13.709,0,0,1-.8,4.281M143.107,126.89a20.784,20.784,0,0,0,.063-3.414,2.309,2.309,0,0,1,.215.855.116.116,0,0,0,.232,0,10.009,10.009,0,0,1,.213-1.2,4.258,4.258,0,0,0,0-1.115,14.154,14.154,0,0,0-.412-2.308c-.191-.748-.52-1.468-.779-2.2a21.177,21.177,0,0,1-.679-2.215,8.682,8.682,0,0,1,.183-4.5c.458-1.588,1.16-3.089,1.769-4.621a15.848,15.848,0,0,0,1.232-4.833,9.272,9.272,0,0,0-.963-4.629,30.646,30.646,0,0,0-2.355-3.758,12.5,12.5,0,0,1-2.045-3.863c-.39-1.63,0-3.4.139-5.041a10.79,10.79,0,0,0-.041-2.54,4.232,4.232,0,0,0-.142-.627c.048.051.1.1.141.156-.01-.005.131.179.159.224.053.087.1.179.143.27.007.031.155.388.157.393-.082-.2.049.159.068.219.04.124.075.252.124.373a2.171,2.171,0,0,0,.1.205l0,.006c.007.023.013.046.019.07a2.629,2.629,0,0,0,.092.445c.057.3.452.288.6.078a2.9,2.9,0,0,0,.205-.341c.025-.05.05-.1.073-.15.007-.017.009-.024.015-.037a1.488,1.488,0,0,0,.269-.979,2.875,2.875,0,0,0-.465-1.513,6.346,6.346,0,0,0-2.4-2.074c-2.119-1.19-4.3-1.745-6.332-3.165a5.9,5.9,0,0,1-2.129-2.749c.339-.1.679-.195,1.02-.288a5.136,5.136,0,0,1,2.763.268,20.309,20.309,0,0,0,2.778.747,9.282,9.282,0,0,0,3.261-.2,4.366,4.366,0,0,1,2.826-.025,3.9,3.9,0,0,1,1.463,1.415,8.418,8.418,0,0,1,1.207,4.215,14.409,14.409,0,0,1-.115,2.653,6.021,6.021,0,0,1-.572,2.165,13.879,13.879,0,0,1-1.808,1.949,6.323,6.323,0,0,0-.911,1.133,1.538,1.538,0,0,0-.082,1.512.413.413,0,0,0,.467.19,3.487,3.487,0,0,0,.491-.185,2.483,2.483,0,0,0,.491-.461c.309-.333.607-.658.946-.962A12.082,12.082,0,0,0,146.7,84.5a4.241,4.241,0,0,0,.627-1.414c.025-.012.05-.02.076-.035a10.454,10.454,0,0,0,4.732-6.523,15.959,15.959,0,0,1,.371,5.2,20.067,20.067,0,0,1-1.14,4.739c-1.04,3.037-2.361,6.106-1.675,9.379.212,1.011.741,1.877,1.043,2.857a5.922,5.922,0,0,1,.259,2.486,10.965,10.965,0,0,1-1.848,4.105c-.441.719-.869,1.449-1.24,2.207-.207.425-.4.86-.566,1.3a3.358,3.358,0,0,0-.182,1.683c.262,2.173,1.683,4,1.821,6.2a8.912,8.912,0,0,1-1.131,4.735,10,10,0,0,0-.592-4.342c-.545-1.509-1.42-2.823-1.657-4.417-.355-2.388.791-4.883,1.89-6.955.476-.9,1.1-1.75,1.494-2.685a5.875,5.875,0,0,0,.484-2.614A18.474,18.474,0,0,0,148,95.2a7.6,7.6,0,0,1-.407-1.391,5.655,5.655,0,0,1,.029-1.532,15.567,15.567,0,0,1,.753-2.872,29.448,29.448,0,0,0,.877-2.886,5.171,5.171,0,0,0,.133-1.5,2.925,2.925,0,0,0-.069-.638c-.082-.27-.229-.491-.289-.779a.051.051,0,0,0-.1.014,5.353,5.353,0,0,1-.3,1.232c-.109.445-.235.888-.35,1.332a24.012,24.012,0,0,1-.862,2.524,11.571,11.571,0,0,0-1.117,5.25c.2,1.808,1.213,3.419,1.738,5.133a5.722,5.722,0,0,1,.314,2.553,8.385,8.385,0,0,1-1.319,2.815c-1.286,2.276-2.611,4.917-2.508,7.608a11.749,11.749,0,0,0,1.516,4.633,11.248,11.248,0,0,1,.946,2.669,16.566,16.566,0,0,1,.2,3.19c-.091.138-.182.275-.277.411a22.766,22.766,0,0,1-2.181,2.606c-.543.572-1.138,1.1-1.665,1.686.016-.123.034-.246.049-.368M162.63,67.632a6.157,6.157,0,0,1,1.02,1.427c.156.268.241.559.384.83a3.28,3.28,0,0,0,.248.4.7.7,0,0,0,.133.145.263.263,0,0,0,.114.067c.076.021.083.03.021.028a.227.227,0,0,0,.389,0c.039-.066.139-.114.2-.187a1.12,1.12,0,0,0,.161-.4,2.153,2.153,0,0,0,.01-.982,3.978,3.978,0,0,0-.755-1.712c-.114-.155-.236-.3-.361-.443a7.373,7.373,0,0,1,1.3.126,7.525,7.525,0,0,1,.892.256,6.364,6.364,0,0,1,1.324.68.78.78,0,0,0,.106.07,5.751,5.751,0,0,1,.67.541,6.64,6.64,0,0,1,1.361,1.729c.185.349.385.691.575,1.038.089.163.174.329.252.5a3.99,3.99,0,0,1,.186.439,11.066,11.066,0,0,1-1.008,9.364,10.563,10.563,0,0,1-1.71,2.2,9.319,9.319,0,0,1-1.064.907l-.1.068a8.038,8.038,0,0,0-.543-3.632,9.209,9.209,0,0,0-5.35-5.144c.427-.127.855-.25,1.288-.357.3-.073.6-.14.9-.194a5.251,5.251,0,0,1,.733-.1,4.008,4.008,0,0,1,1.414.094,1.6,1.6,0,0,1,.657.293c.038.024.074.049.11.075l.007.005q.05.042.1.086a4.123,4.123,0,0,1,.291.3l.017.02.019.027c.052.073.1.15.147.225.089.138.174.278.263.415a2.009,2.009,0,0,0,.211.283c.056.061.087.093.109.115l.015.022a1.505,1.505,0,0,0,.473.466.337.337,0,0,0,.457-.12,2.042,2.042,0,0,0,.143-.979,2.169,2.169,0,0,0-.415-1.116,3.894,3.894,0,0,0-1.279-1.232,5.339,5.339,0,0,0-3.483-.43c-2.62.388-5.037,1.616-7.641,2.076a5.8,5.8,0,0,1-3.311-.226,12.267,12.267,0,0,0-1.22-7.7c-.013-.025-.028-.049-.042-.074a6.591,6.591,0,0,0,1.718,0,20.868,20.868,0,0,0,3.733-1.057,7.951,7.951,0,0,1,3.456-.54,4.9,4.9,0,0,1,2.674,1.313m2.778,26.687c.166.219.341.432.513.646l.208.261.081.1.07.091a9.276,9.276,0,0,1,.745,1.132c.05.092.1.187.142.281.02.041.03.059.037.071a.793.793,0,0,0,.023.077,6.144,6.144,0,0,1,.181.668c.009.045.014.065.018.076s0,.036,0,.084c0,.111.012.22.011.33s-.009.228-.019.341l0,.018c-.01.061-.02.123-.033.184a7.709,7.709,0,0,1-2,3.422c-.672.752-1.412,1.441-2.138,2.139a5.4,5.4,0,0,1-1.466.978,12.6,12.6,0,0,1-3.646.981c-1.37.179-2.751.246-4.123.4a10.008,10.008,0,0,0-3.958,1.008,4.187,4.187,0,0,0-.73.538c.218-.4.453-.793.694-1.179a20.557,20.557,0,0,0,2.4-4.4c.036-.11.068-.22.1-.33.117-.025.234-.048.352-.065a3.893,3.893,0,0,0,.818-.277c.535-.2,1.081-.377,1.627-.545a22.405,22.405,0,0,0,3.087-1.091,5.67,5.67,0,0,0,2.329-1.942,6,6,0,0,0,.767-3.7,2.58,2.58,0,0,1,.227-1.861,5.777,5.777,0,0,1,1.4-1.136c.217-.157.425-.325.628-.5a4.622,4.622,0,0,0,.2.707,9.706,9.706,0,0,0,1.459,2.485m2,4.232h0m-5.1-8.195c-1.093.81-2.194,1.512-2.4,2.971a17.392,17.392,0,0,0,.04,2.268,4.921,4.921,0,0,1-.254,1.559A3.534,3.534,0,0,1,158.14,99a16.19,16.19,0,0,1-3.023,1.292c-.594.215-1.185.439-1.765.69a4.064,4.064,0,0,0-.661.324,8.516,8.516,0,0,0-.735-4.364,7.451,7.451,0,0,1-.634-2.387,10.374,10.374,0,0,1-.017-1.129,9.653,9.653,0,0,1,.1-1.078,29.433,29.433,0,0,1,1.307-4.623,21.363,21.363,0,0,0,1.25-5.66,8.975,8.975,0,0,0-.338-3.108,11.525,11.525,0,0,0-1-2.24c1.68,1.066,4.158.517,5.943-.009l.026-.008c.386.395.81.755,1.168,1.175a8.31,8.31,0,0,1,1.2,1.848,8.074,8.074,0,0,1-.926,8.257,7.716,7.716,0,0,1-1.666,1.583c-.33.229-.678.412-1.025.612a2.113,2.113,0,0,0-.757.893,10.209,10.209,0,0,0-.726,2.483c-.172.753-.341,1.846-1.03,2.32-.132.091-.055.344.117.279a2.5,2.5,0,0,0,.958-.529,2.89,2.89,0,0,0,.64-1.005c.318-.764.4-1.6.65-2.385a3.013,3.013,0,0,1,.477-1,4.469,4.469,0,0,1,1.077-.684,8.781,8.781,0,0,0,1.9-1.655,9.484,9.484,0,0,0,1.685-9.24,8.861,8.861,0,0,0-1.38-2.513,8.294,8.294,0,0,0-.832-.911c.234-.073.468-.144.7-.215A7.806,7.806,0,0,1,165,81a9.187,9.187,0,0,1-.368,6.536,7.726,7.726,0,0,1-2.321,2.818m8-23.581a9.364,9.364,0,0,1,1.312,1c.45.4.891.808,1.306,1.242q.324.339.63.7c.1.121.206.243.307.366l.151.188c.012.015.1.133.132.168a24.775,24.775,0,0,1,3.821,7.382,29.479,29.479,0,0,1,1.1,4.421c.027.164.052.33.076.5,0,.02.012.087.017.118q.015.115.029.231.071.585.115,1.175.083,1.123.06,2.251-.024,1.067-.154,2.127c0,.03-.005.046-.007.062l-.007.051q-.019.13-.039.261-.04.26-.089.519-.1.558-.241,1.108a13.765,13.765,0,0,1-1.5,3.778,12.738,12.738,0,0,1-2.991,3.578,13.864,13.864,0,0,1-2.072,1.411c-.826.463-1.639.939-2.458,1.415-.555.323-.154,1.053.409.968a10.615,10.615,0,0,0,4.78-2.125,5.864,5.864,0,0,1,.03,1.679c-.092.655-.136,1.326-.255,1.981a8.787,8.787,0,0,1-1.634,3.631,20.393,20.393,0,0,1-6.872,5.462,45.184,45.184,0,0,1-4.319,2.1,9.965,9.965,0,0,0,.251-2.913,16.145,16.145,0,0,0-.423-2.67,8.321,8.321,0,0,0-.417-1.276c-.045-.107-.091-.216-.141-.321a9.946,9.946,0,0,0,1.052-.361,11.447,11.447,0,0,0,3.823-3.051,12.225,12.225,0,0,0,2.711-4.035c.75-2.049,0-3.937-1.244-5.589-.34-.452-.691-.894-1.043-1.336l-.084-.105-.027-.033-.046-.063c-.073-.1-.147-.2-.218-.3-.148-.211-.288-.426-.417-.649a6.9,6.9,0,0,1-.349-.672c-.007-.024-.083-.221-.1-.261-.04-.119-.075-.24-.116-.359-.071-.2-.125-.423-.182-.64a8.781,8.781,0,0,0,.908-1.365,9.517,9.517,0,0,0,.866-2.3,5.045,5.045,0,0,0,1.973-1.26,11.709,11.709,0,0,0,1.893-2.145,12.764,12.764,0,0,0,2.1-5.105,13.1,13.1,0,0,0-.207-5.474,8.714,8.714,0,0,0-.727-1.89,5.687,5.687,0,0,0-.339-1,6.706,6.706,0,0,0-2.326-2.5,4.387,4.387,0,0,0,.178-.711c.34.217.681.431,1.02.65M15.955,69.131A1.415,1.415,0,0,1,15.6,68.7a1.19,1.19,0,0,1,0-.82,18.468,18.468,0,0,1,1.1-2.426,5.379,5.379,0,0,0,.433-1.42c.069-.508,0-1.007.046-1.518a7.686,7.686,0,0,1,.862-3.13,4.784,4.784,0,0,1,1.117-1.352,7.144,7.144,0,0,1,.774-.493c.016.136.033.273.06.408a4.525,4.525,0,0,0,.444,1.223,6.722,6.722,0,0,0-.935,4.034,12.662,12.662,0,0,1-.14,2.359A4.347,4.347,0,0,1,19,66.658a3.309,3.309,0,0,1-.287.467,2.848,2.848,0,0,0-.3.609.393.393,0,0,0-.029.127c-.711.553-1.449,1.075-2.2,1.579a1.1,1.1,0,0,0-.228-.308m7.194,50.274a24.185,24.185,0,0,1-10.8-9.161,12.117,12.117,0,0,1-1.984-8.067,12.427,12.427,0,0,0,.6-2.565,4.405,4.405,0,0,0-1.274-2.758,18.97,18.97,0,0,1-1.516-2.325C7.724,93.8,7.3,93.062,6.9,92.308a24.08,24.08,0,0,1-1.672-3.853,17.127,17.127,0,0,1-.486-1.8,9.7,9.7,0,0,1-.218-1.481,11.254,11.254,0,0,1-.02-1.5c.013-.23.034-.461.062-.69v0c0-.009,0-.014,0-.027l.022-.14q.035-.209.078-.414a9.434,9.434,0,0,1,.356-1.25c.038-.105.079-.21.12-.314.023-.057.031-.081.034-.09s.014-.027.042-.087c.094-.2.189-.4.294-.6a11.182,11.182,0,0,1,.68-1.106c.057-.083.115-.164.175-.246l.142-.189c.133-.169.27-.336.41-.5a18.058,18.058,0,0,1,1.939-1.9,45.32,45.32,0,0,1,4.681-3.367c1.665-1.087,3.344-2.158,4.925-3.365a18.7,18.7,0,0,0,4.224-4.163,13.373,13.373,0,0,0,.707-1.157.494.494,0,0,0-.852-.5,16.411,16.411,0,0,1-2.192,2.593,9.062,9.062,0,0,0,.14-2.195c-.044-1.329-.232-2.868.419-4.069a3.438,3.438,0,0,0,1.626,1.141,5.879,5.879,0,0,0,1.115.213,2.134,2.134,0,0,0,1.282-.137.445.445,0,0,0-.1-.8,2.149,2.149,0,0,0-.64-.024,2.224,2.224,0,0,1-1.41-.506,4.053,4.053,0,0,1-1.288-1.342,3.186,3.186,0,0,1-.409-1.818,3.072,3.072,0,0,1,.227-.912,2.479,2.479,0,0,0,.345-1.138.277.277,0,0,0-.036-.114A17.842,17.842,0,0,1,22.909,49a11.1,11.1,0,0,1,3.329-3.96c3.1-2.352,6.912-3.635,10.413-5.253a31.755,31.755,0,0,0,3.4-1.825c-.453.723-.911,1.444-1.388,2.151a20.53,20.53,0,0,1-3.151,3.731,21.752,21.752,0,0,1-1.866,1.395,12.679,12.679,0,0,1-2.318,1.119c-.23.105-.106.462.125.46A8.156,8.156,0,0,0,35.7,45.352a14.153,14.153,0,0,0,3.251-3.109C40.871,39.79,42.268,37,44.01,34.431a18.759,18.759,0,0,1,2.817-3.367A13.144,13.144,0,0,1,50.851,28.6c3.2-1.277,6.661-1.7,10.006-2.444a24.559,24.559,0,0,0,5.257-1.7,10.8,10.8,0,0,0,4.074-3.485c.184-.252-.229-.572-.433-.335A11.746,11.746,0,0,1,65.892,23.4a20.938,20.938,0,0,1-4.626,1.511c-3.3.741-6.693,1.082-9.91,2.151a15.965,15.965,0,0,0-4.46,2.214,16.3,16.3,0,0,0-3.166,3.158c-.932,1.2-1.761,2.463-2.568,3.745a39.3,39.3,0,0,1-4.622,2.4c-1.863.864-3.771,1.624-5.636,2.483-3.4,1.565-6.942,3.533-8.815,6.917a10.106,10.106,0,0,0-1.206,6.524,2.51,2.51,0,0,0-.825,1.35c-.034.112-.054.227-.078.34a2.582,2.582,0,0,0-1.371.634,6.1,6.1,0,0,0-.523.444c-.1-.444-.219-.882-.364-1.323-.21-.634-.464-1.249-.65-1.892a13.989,13.989,0,0,1-.584-3.27A10.913,10.913,0,0,1,17.7,45.289c1.911-3.714,5.177-6.335,8.13-9.206q1.867-1.816,3.557-3.791a3.361,3.361,0,0,1,.1.345,2.907,2.907,0,0,0,.261.76.257.257,0,0,0,.464-.061,4.574,4.574,0,0,0,.136-.648c.038-.228.146-.4.2-.62.1-.407.128-.841.208-1.253a8.592,8.592,0,0,1,.759-2.224,12.127,12.127,0,0,1,3.011-3.636c2.662-2.291,5.828-3.9,8.649-5.98.516-.38,1.021-.775,1.507-1.191-.245.715-.464,1.44-.647,2.174a26.592,26.592,0,0,0-.551,2.937,17.371,17.371,0,0,0-.135,2.583c-.54.312-1.1.6-1.669.865C39.8,27.2,37.836,27.888,36,28.862a8.133,8.133,0,0,0-4.014,3.929,5.175,5.175,0,0,0-.324,1.318.256.256,0,0,0,.473.129c1.61-3.677,5.651-4.993,9.063-6.462a25.326,25.326,0,0,0,6.039-3.642c1.965-1.6,3.791-3.388,5.617-5.143C56,15.971,59.3,12.942,63.416,11.313a16.746,16.746,0,0,1,9.884-.7,34.519,34.519,0,0,1,6.106,2.052c1.166.5,2.315,1.039,3.452,1.6,1.261.622,2.537,1.2,3.81,1.8a.356.356,0,0,0,.359-.614A47.466,47.466,0,0,0,74.815,9.863a18.494,18.494,0,0,0-10.441-.032C60.3,11.11,56.816,13.8,53.723,16.67c-2.986,2.769-5.82,5.857-9.232,8.1a45.02,45.02,0,0,1,2.428-8.022,18.032,18.032,0,0,1,4.489-6.266,18.045,18.045,0,0,1,6.329-3.537,28.683,28.683,0,0,1,7.925-1.3,46.1,46.1,0,0,1,5.085.1q1.368.1,2.729.262c.454.054.909.093,1.365.136a5.838,5.838,0,0,0,1.444-.079.4.4,0,0,0,.325-.383,22.449,22.449,0,0,0,4.983-.861,7.933,7.933,0,0,1,2.87-.2,3.365,3.365,0,0,1,1.3.5c.455.3.758.849,1.277,1.024a.584.584,0,0,0,.732-.526c1.044.03,2.083.054,3.128-.016,1.2-.08,2.4-.238,3.594-.4,2.206-.305,4.405-.676,6.621-.908,4.17-.437,8.384-.246,12.077,1.942a17.945,17.945,0,0,1,3.254,2.5,47.47,47.47,0,0,0,3.517,3.526c.186.144.551.022.449-.261a6.638,6.638,0,0,0-.418-.917,57.932,57.932,0,0,0,14.055,6.984c4.581,1.615,9.6,3.09,13.294,6.409a12.221,12.221,0,0,1,2.422,2.935,14.483,14.483,0,0,1,.875,1.769c.143.346.343.664.475,1.015a5.756,5.756,0,0,0,.451,1.041.353.353,0,0,0,.637-.083,5.865,5.865,0,0,0-.145-2.025,5.943,5.943,0,0,0-.5-1.466,16.674,16.674,0,0,1,4.078,5.974c1.392,3.154,2.391,6.482,3.544,9.727.329.927.666,1.849,1.06,2.75.016.037.038.072.055.109a7.236,7.236,0,0,0,.527,1.449,16.993,16.993,0,0,0,2.607,3.778c1.013,1.155,2.088,2.258,3.072,3.438a8.647,8.647,0,0,1,1.91,3.3,3.106,3.106,0,0,1-.039,1.726,3.47,3.47,0,0,1-.429.883,3.01,3.01,0,0,1-.212.278,11.817,11.817,0,0,0-2-2.08,3.893,3.893,0,0,0,.17-1.488,4.459,4.459,0,0,0-.426-1.644,7.829,7.829,0,0,0-2.22-2.6c-2-1.628-4.367-2.764-6.319-4.447a8.651,8.651,0,0,1-1.225-1.311,24.985,24.985,0,0,0-.988-2.615,33.01,33.01,0,0,0-3.247-5.744c-2.529-3.5-6.039-6.3-10.406-6.972-3.354-.516-6.8.594-10.1-.358a.378.378,0,0,0-.2.728c2.819.939,5.8.426,8.708.546a12.735,12.735,0,0,1,6.228,1.965c3.57,2.237,5.928,5.968,7.676,9.707.375.8.75,1.6,1.117,2.408a3.766,3.766,0,0,0,.4.88c.222.5.464.992.709,1.482.264.529.441,1.094.73,1.61.1.17.316.045.292-.123a10.132,10.132,0,0,0-.31-1.3,16.769,16.769,0,0,0,2.079,1.624c1.079.723,2.193,1.4,3.254,2.146a8.859,8.859,0,0,1,2.45,2.3,3.632,3.632,0,0,1,.56,1.43,3.01,3.01,0,0,1-.058.969,11.017,11.017,0,0,0-2.162-1.073,4.642,4.642,0,0,0-3.282-.1c-.192.082-.354.2-.538.3a2.4,2.4,0,0,1-.838.221,2.352,2.352,0,0,1-1.368-.341,6.964,6.964,0,0,0-.795-.329c-.018-.007-.094-.039-.08-.032l-.1-.045c-.129-.062-.255-.127-.38-.2a11.242,11.242,0,0,1-1.241-.807l-.191-.151q-.161-.132-.319-.268c-.214-.184-.42-.378-.635-.561-.43-.365-.853-.737-1.277-1.109-1.85-1.622-3.88-3.27-6.464-3.3-.048,0-.061.077-.012.086,4.6.8,5.75,6.3,9.822,7.956a2.877,2.877,0,0,0,1.668.216c.478-.1.949-.231,1.423-.342a4.472,4.472,0,0,1,1.439-.269c.434.04.908.079,1.3.142a9.656,9.656,0,0,1,5.406,3.194,7.973,7.973,0,0,1,1.728,2.86,3.771,3.771,0,0,1,.179,1.875,8.318,8.318,0,0,0-1.021-.4,3.587,3.587,0,0,0-.445-1.179,7.436,7.436,0,0,0-.79-1.213,6.123,6.123,0,0,0-1.806-1.537,11.9,11.9,0,0,0-4.625-1.225c-3.036-.327-6.464-.164-9-2.162-1.84-1.45-3.474-3.475-5.714-4.324-.047-.018-.076.056-.034.079a7.9,7.9,0,0,1,2.476,2.363,29.273,29.273,0,0,0,2.068,2.5,7.969,7.969,0,0,0,4.18,2.39,31.934,31.934,0,0,0,4.844.55,13.546,13.546,0,0,1,4.256.789,5.492,5.492,0,0,1,1.917,1.331,5.227,5.227,0,0,1,.716.966c.058.1.109.2.159.3a3.7,3.7,0,0,0-2.218.308,6.965,6.965,0,0,0-1.339-.679c-2.643-1-5.121.25-7.6,1.085a14.005,14.005,0,0,1-3.617.67,9.419,9.419,0,0,0-5.3-3.575,9.2,9.2,0,0,0-1.286-.216.674.674,0,0,0-.066-.067,1.716,1.716,0,0,0-.318-.157.774.774,0,0,0-.135-.058c-.15-.092-.3-.207-.439-.307a2.53,2.53,0,0,0-.681-.3,13.267,13.267,0,0,1-1.8-.738,20.11,20.11,0,0,1-2.652-1.652,13.177,13.177,0,0,0-2.165-1.354,7.006,7.006,0,0,0-3.029-.62,15.53,15.53,0,0,0-4.34.831c-.463.145-.922.3-1.378.467a16.828,16.828,0,0,1-1.678.634,4.8,4.8,0,0,1-2.281-.086,28.2,28.2,0,0,1-4.464-2.051,8.092,8.092,0,0,0-4.376-.922c-1.548.189-3.054.63-4.6.823-1.454.182-2.892-.037-3.624-1.443a.314.314,0,0,0-.571.241c.924,3.2,4.635,2.621,7.162,2.129a7.8,7.8,0,0,1,3.867-.1,29.258,29.258,0,0,1,4.44,2.227,6.9,6.9,0,0,0,5.351.636,27.746,27.746,0,0,1,5.292-1.664,8.321,8.321,0,0,1,1.667-.126c.134,0,.267.014.4.025.044,0,.088.009.132.014l.07.011a5.458,5.458,0,0,1,.665.152c.109.032.217.069.324.109l.143.055h0l.005,0q.289.13.566.284a12.911,12.911,0,0,1,1.093.7,26.475,26.475,0,0,0,2.916,1.889c.42.219.853.412,1.292.592l-.109.02a6.109,6.109,0,0,0-1.507.657c-.351.177-.709.336-1.073.481-.063-.013-.127-.023-.189-.039a4.006,4.006,0,0,1-.695-.251c-1.223-.565-2.332-1.341-3.58-1.859a5.532,5.532,0,0,0-4.159-.213,5.626,5.626,0,0,0-1.041.529c-.475.311-1,.559-1.5.827a5.8,5.8,0,0,1-2.909,1.017,5.487,5.487,0,0,1-2.042-.808c-.518-.3-1-.66-1.486-1a4.912,4.912,0,0,0-3.293-1.083,8.7,8.7,0,0,0-2.625.7,3.936,3.936,0,0,1-2.682.447,7.469,7.469,0,0,1-2.1-1.281,5.086,5.086,0,0,0-2.159-.955,18.067,18.067,0,0,0-5.275.39c-1.831.232-3.744.083-4.891-1.551-.011-.015-.036,0-.025.014A4.239,4.239,0,0,0,100.8,60.98c1.67.064,3.334-.173,5.005-.1a4.882,4.882,0,0,1,2.148.536,13.573,13.573,0,0,1,2.009,1.774,3.942,3.942,0,0,0,2.459,1.046,8.56,8.56,0,0,0,3.213-.973,4.906,4.906,0,0,1,2.134-.384,3.085,3.085,0,0,1,1.284.489c.491.306.934.686,1.409,1.015a9.6,9.6,0,0,0,2,1.063,4,4,0,0,0,1.345.345,5.437,5.437,0,0,0,1.8-.328,16.709,16.709,0,0,0,3.138-1.547,4.476,4.476,0,0,1,1.9-.782,4.3,4.3,0,0,1,1.874.291,22.042,22.042,0,0,1,2.944,1.482c-.037,0-.077.012-.113.015a26.659,26.659,0,0,0-3.924.271,7.947,7.947,0,0,0-1.252.413,6.368,6.368,0,0,0-1.489.951c-.474.371-.927.77-1.427,1.106a17.222,17.222,0,0,1-1.565.869.453.453,0,0,0,.227.839c2.062-.029,3.26-2.167,5.08-2.817a5.154,5.154,0,0,1,1.785-.344,14.948,14.948,0,0,1,1.579.142,8.171,8.171,0,0,0,4.076-.616c.08-.032.157-.07.236-.1a2.322,2.322,0,0,0,.23-.1c.363-.161.723-.33,1.075-.514a3.873,3.873,0,0,1,1.25-.425,9.135,9.135,0,0,1,2.036-.1,7.219,7.219,0,0,1,3.375,1.076,8.646,8.646,0,0,1,2.363,2.282,10.324,10.324,0,0,1,.918,1.6,7.78,7.78,0,0,1,.3.745q.156.445.274.9a10.348,10.348,0,0,1,.3,3.647,6.89,6.89,0,0,1-.126.907c-.066.345-.149.686-.245,1.023a8.637,8.637,0,0,1-.793,1.934,9.2,9.2,0,0,1-1.944,2.4c.047-.437.078-.875.09-1.313a12.252,12.252,0,0,0-.767-4.863,6.21,6.21,0,0,0-3.554-3.8c-2.075-.649-4.157.517-6.244.146-2-.356-3.988-1.4-6.046-.756-1.765.556-3.541,1-5.346,1.387-.294.063-.588.122-.884.172l-.219.036-.16.024c-.065.008-.267.032-.352.04a8.688,8.688,0,0,1-1.574.015c-.122-.011-.245-.025-.367-.039.029,0-.235-.036-.289-.046-.281-.052-.559-.118-.834-.2a15.979,15.979,0,0,1-1.837-.661c-.693-.291-1.5-.651-2.241-.965-.433-.184-.868-.362-1.3-.54.313,0,.625.013.938.036a11.528,11.528,0,0,1,2.428.448c.4.117.785.259,1.17.411a6.124,6.124,0,0,0,1.341.475c.448.066,1.009-.13.85-.706-.135-.488-.733-.794-1.146-.989a11.338,11.338,0,0,0-2.586-.849c-3.161-.643-6.336-.087-9.516.018a10.775,10.775,0,0,1-4.944-.79,11.492,11.492,0,0,1-2.57-1.653,17.241,17.241,0,0,1-1.311-1.234A9,9,0,0,0,99.33,63.8c.495.042.988.083,1.476.134.657.068,1.309.153,1.961.259a5.894,5.894,0,0,0,1.149.141,3.192,3.192,0,0,0,.493-.048c.2-.041.311-.177.495-.241a.228.228,0,0,0,.1-.376c-.2-.225-.256-.427-.533-.589a3.062,3.062,0,0,0-.959-.364c-.6-.128-1.207-.2-1.813-.276-1.156-.141-2.318-.225-3.478-.338a17.311,17.311,0,0,1-6.46-1.636,10.437,10.437,0,0,1-1.7-1.115c-.57-.463-1.079-1.16-1.827-1.287a.111.111,0,0,0-.138.105,1.243,1.243,0,0,0,.005.127,15.517,15.517,0,0,0-1.764-.72,14.013,14.013,0,0,0-2.526-.634q.28-.157.56-.307a23.033,23.033,0,0,1,2.6-1.212,15.6,15.6,0,0,0,2.772-1.132c.177-.112.178-.451-.064-.491-1.678-.277-3.534.657-5,1.362a42.461,42.461,0,0,0-4.515,2.59c-2.875,1.841-5.7,3.937-8.918,5.155a14.094,14.094,0,0,1-4.871.958,12.15,12.15,0,0,0,.824-1.542c.283-.64-.65-1.205-.953-.557a10.538,10.538,0,0,1-6.47,5.951,14.134,14.134,0,0,1-4.328.483c-.763-.014-1.523-.08-2.282-.157s-1.531-.032-2.3-.131a26.087,26.087,0,0,1-5.125-1.2c-.03-.01-.053.04-.022.053,1.233.529,2.488,1.025,3.762,1.452a5.866,5.866,0,0,0-1.2.52,16.59,16.59,0,0,0-3.585,3.13c-.53.56-1.063,1.114-1.629,1.638a5.9,5.9,0,0,1-1.67,1.159l-.017.008c-.039.016-.077.031-.117.045-.073.026-.147.05-.221.075-.181.062-.36.13-.546.181a3.305,3.305,0,0,1-1,.135,4.492,4.492,0,0,1-.573-.039,1.321,1.321,0,0,0-.9-.208c-.017,0-.034.006-.051.008-.36-.1-.714-.223-1.054-.347-1.606-.585-4.566-1.99-5.359.4,0,.009.011.013.014,0,.9-2.41,3.854-.582,5.281.27a3.563,3.563,0,0,0-.407.229,6.624,6.624,0,0,0-2.049,2.2,9.462,9.462,0,0,1-1.475,2.134,2.646,2.646,0,0,1-.65.519c-.1.061-.206.113-.313.164l-.089.038c-.08.027-.159.055-.241.078-.1.027-.2.046-.3.064-.038,0-.213.018-.251.019-.128,0-.256,0-.384-.011-.058,0-.116-.011-.175-.016l-.035,0-.071-.015c-.537-.11-1.047-.3-1.577-.427a13.7,13.7,0,0,0-3.5-.609,5.1,5.1,0,0,0-3.838,1.763c-.081.093.029.266.141.183a4.326,4.326,0,0,1,3.537-1.043,7.839,7.839,0,0,1,1.734.665,6.284,6.284,0,0,0-.452.917,5.567,5.567,0,0,1-.841,1.2,12.842,12.842,0,0,1-2.465,1.981c-1.841,1.216-3.876,2.283-5.187,4.116-1.161,1.624-1.794,4.293-.645,6.09a3.994,3.994,0,0,0,4.447,1.409,6.446,6.446,0,0,0,2.716-1.458,4.452,4.452,0,0,0,.989-1.273,4.079,4.079,0,0,0,.359-.869c.048.7.106,1.4.181,2.093.021.563.047,1.126.075,1.691.051,1.05.119,2.1.243,3.149a4.042,4.042,0,0,1,.108,1.375c-.092.34-.231.662-.307,1.009a6.723,6.723,0,0,0,.269,4.1,3.826,3.826,0,0,0,1.342,1.628,3.074,3.074,0,0,0,2.426.563,19.381,19.381,0,0,0,1.465,4.8c.273.606.55,1.209.826,1.813-.262-.229-.531-.451-.806-.669a24.923,24.923,0,0,0-4.232-2.58,37.106,37.106,0,0,1-4.21-2.343c-.317-.22-.636-.436-.947-.665l-.023-.017-.133-.1c-.089-.068-.181-.135-.271-.2l-.015-.012c-.04-.031-.08-.063-.119-.1-.079-.067-.157-.133-.232-.205a7.472,7.472,0,0,1-1.4-1.785,11.409,11.409,0,0,1-1.11-6.739c.049-.581-.84-.568-.9,0a15.327,15.327,0,0,0,.5,6.464,9.266,9.266,0,0,0,1.14,2.306,9.818,9.818,0,0,0,1.6,1.886,14.361,14.361,0,0,0,3.21,2.1,20.961,20.961,0,0,0,1.116,6.212,15.431,15.431,0,0,0,.619,1.524c-1.047-.349-2.095-.715-3.107-1.138m8.217-25.867c.026,1.579.236,3.164.111,4.743a5.74,5.74,0,0,1-.359,1.777,7.22,7.22,0,0,1-.752,1.254,10.807,10.807,0,0,0-1.807,3.072,2.886,2.886,0,0,0,.295,2.281c.029.093.06.184.093.273.075.2.16.388.254.575a2.436,2.436,0,0,1-.731-.273,2.576,2.576,0,0,1-.988-1.155,5.739,5.739,0,0,1-.225-3.426c.054-.28.126-.551.2-.826a.087.087,0,0,0,.117-.077c.008-.358.1-.734.122-1.1a5.717,5.717,0,0,0-.075-1.1c-.046-.375-.012-.732-.027-1.1-.013-.315-.057-.634-.09-.948-.15-1.457-.433-2.884-.5-4.352a18.481,18.481,0,0,1,.218-4.218,15.137,15.137,0,0,1,.536-2.075,11.492,11.492,0,0,0,.581-1.545,9.575,9.575,0,0,1,1.173-1.5,3.469,3.469,0,0,1,.7-.553,4.066,4.066,0,0,0,.895-.513.5.5,0,0,0,.147-.266c.145-.007.29-.021.433-.043a5,5,0,0,0,3.245-2.35,21.127,21.127,0,0,1,1.619-2.614,3.388,3.388,0,0,1,1.175-.893,2.567,2.567,0,0,1,.668-.125,2.57,2.57,0,0,0,.76-.253,3.993,3.993,0,0,0,2.449-.057,5.666,5.666,0,0,0,.8-.39A13.51,13.51,0,0,1,41.1,78.351a22.078,22.078,0,0,1-2.233,2.709c-1.593,1.726-3.36,3.283-4.814,5.135a15.981,15.981,0,0,0-1.909,2.986,9.678,9.678,0,0,0-.782,4.357m2.863,23.27c.284.649.534,1.318.768,1.992-.261-.662-.52-1.324-.768-1.992M29.9,105.125c0,.061,0,.121,0,.182s0,.109,0,.164c-.008-.014-.019-.027-.027-.041a1.979,1.979,0,0,1,.03-.3M25.8,92.413a.254.254,0,0,0-.308.015,6.986,6.986,0,0,0-.786,1.056,9.065,9.065,0,0,1-.882.935A5.2,5.2,0,0,1,21.833,95.6a4.05,4.05,0,0,1-2.026.157,2.166,2.166,0,0,1-1.45-.96c-.917-1.5-.176-3.794.835-5.1a20.756,20.756,0,0,1,4.7-3.807,11.736,11.736,0,0,0,2.45-2.186,6.241,6.241,0,0,0,.852-1.388,2.424,2.424,0,0,0,.266-.9c.234.123.468.248.7.369a6.752,6.752,0,0,0,1.157.46c-.145.1-.281.2-.4.3a8.364,8.364,0,0,0-1.45,1.591A22.972,22.972,0,0,1,25,87.432a2.316,2.316,0,0,1-.521.386c-.08.044-.163.082-.246.121l-.045.019-.176.069c-.514.193-1.042.349-1.565.516a9.445,9.445,0,0,0-3.25,1.638,2.857,2.857,0,0,0-1,1.483,1.81,1.81,0,0,0,.059,1.013,1.933,1.933,0,0,0,.634.742.191.191,0,0,0,.322-.134c.005-.06.069-.346.015-.282a1.333,1.333,0,0,0,.156-.292,5.708,5.708,0,0,1,.172-.547,1.861,1.861,0,0,1,.7-.8,13.321,13.321,0,0,1,2.857-1.24,8.491,8.491,0,0,0,2.7-1.354c.066-.058.126-.122.189-.183a18.9,18.9,0,0,0-.206,3.829m-1.652-4.436h0m-2.317,20.9h0m12.94,21a13.289,13.289,0,0,0-1.416-2.522c-.48-.718-1-1.412-1.53-2.092-.814-1.035-1.716-1.994-2.54-3.02-.2-.248-.257-.32-.486-.641-.188-.262-.366-.531-.537-.8a15.429,15.429,0,0,1-1.006-1.87,39.369,39.369,0,0,1-1.67-5.6c1.483.692,2.958,1.381,4.4,2.15a10.684,10.684,0,0,1,2.2,1.522c.342.309.672.638.993.968.184.189.4.361.6.542.034.087.072.172.106.259.348.894.687,1.792,1.007,2.7.161.455.348.894.526,1.341s.411.871.566,1.329a24.948,24.948,0,0,1,.738,2.524c.246,1.861.411,3.735.571,5.6q.066.771.126,1.541c-1.436-.754-2.1-2.468-2.655-3.923m10.579,29.335a40.923,40.923,0,0,1-4.091-9.4c-.21-.788-.426-1.569-.65-2.353a24.174,24.174,0,0,1-.585-3.023c-.322-2.123-.524-4.268-.745-6.4-.432-4.187-.734-8.384-1.581-12.514a34.274,34.274,0,0,0-1.289-5.087,39,39,0,0,0-2.026-4.381,32.329,32.329,0,0,1-1.541-3.644q-.533-1.847-1.066-3.694a29.687,29.687,0,0,1-.7-3,13.484,13.484,0,0,1-.2-1.54,7.363,7.363,0,0,0-.049-.895c.311-.452.643-.893.933-1.345a6.9,6.9,0,0,0,1.078-3.08,21.937,21.937,0,0,0-.225-4.658A8.654,8.654,0,0,1,33,89.747,13.535,13.535,0,0,1,34.764,86.9c1.438-1.806,3.14-3.385,4.662-5.116a13.624,13.624,0,0,0,3.468-6.34c2-1.429,3.086-3.9,5.162-5.29a5.148,5.148,0,0,1,2.188-.838,7.521,7.521,0,0,1,1.419-.017,3.652,3.652,0,0,0,1.687.06.535.535,0,0,0,.113-.066c.532.058,1.075.071,1.6.075a14.291,14.291,0,0,0,8.66-2.6,10.693,10.693,0,0,0,1.81-1.739.676.676,0,0,0,.146.024c6.641.34,11.734-4.274,17.117-7.522a14.96,14.96,0,0,1,3.283.756,17.389,17.389,0,0,1,2.531,1.11c.118.142.245.279.368.413a11.793,11.793,0,0,0,1.52,1.374,11.407,11.407,0,0,0,3.263,1.691,20.347,20.347,0,0,0,4.791.852.3.3,0,0,0,0,.038,3.641,3.641,0,0,0,.729,1.524,16.373,16.373,0,0,0,1.176,1.346,11.3,11.3,0,0,0,2.229,1.778,11.614,11.614,0,0,0,4.708,1.515,37.208,37.208,0,0,0,6.472-.219,4.222,4.222,0,0,0,.955.791c.4.234.8.47,1.2.7.684.4,1.373.789,2.083,1.141a16.325,16.325,0,0,0,3.3,1.321c2.492.613,4.93-.169,7.322-.829.55-.152,1.1-.309,1.647-.466a7.434,7.434,0,0,0,3.729,5.214,35.709,35.709,0,0,0,3.169,1.683q.541.264,1.065.564a8.273,8.273,0,0,1,.15,4.089,18.864,18.864,0,0,0-.6,4.555c.2,3.137,2.472,5.51,4.036,8.06a8.207,8.207,0,0,1,1.374,3.788,11.647,11.647,0,0,1-.912,4.675c-1.12,3-2.826,6.015-2.44,9.331a19.629,19.629,0,0,0,1.533,5.057c.327.812.727,1.587,1.06,2.4.025.061.046.121.07.182a.255.255,0,0,0-.082.146c-.295,1.561-.7,3.113-.891,4.691q-.284,2.319-.7,4.62a78.7,78.7,0,0,1-2.241,9.217,84.62,84.62,0,0,1-7.251,17.186,68.919,68.919,0,0,1-11.175,14.738,62.975,62.975,0,0,1-14.9,11.064c-1.425.755-2.879,1.462-4.365,2.09-1.528.646-3.125,1.131-4.6,1.881a25.319,25.319,0,0,1-11.112,2.729,22.869,22.869,0,0,1-5.734-.675,24.43,24.43,0,0,1-4.9-1.907,59.212,59.212,0,0,1-8.724-5.288,74.472,74.472,0,0,1-14.791-14.55,70.954,70.954,0,0,1-5.789-8.7M169.011,228.4c-5.023,4.906-10.383,9.407-14.968,14.749A69.45,69.45,0,0,1,123.827,263.8a76.378,76.378,0,0,1-34.887,3.069,92.041,92.041,0,0,1-61.068-36.716c-.809-1.119-1.631-2.227-2.447-3.34a68.632,68.632,0,0,1,5-6.819,80.706,80.706,0,0,1,6.014-6.264c4.175-3.969,8.565-7.728,12.371-12.069a38.612,38.612,0,0,0,4.78-6.625,172.419,172.419,0,0,0,6.382,18.317q1.312,3.188,2.745,6.325A45.7,45.7,0,0,0,65.98,226c.259.391.964.156.8-.336-.68-1.99-1.591-3.867-2.445-5.785q-1.228-2.76-2.372-5.557-2.3-5.614-4.21-11.376a175.518,175.518,0,0,1-6-23.467q-.619-3.373-1.146-6.765c-.177-1.139-.31-2.287-.5-3.423-.057-.332-.12-.663-.182-.994a67.37,67.37,0,0,0,11.33,12.245,65.992,65.992,0,0,0,8.529,6.094q2.231,1.335,4.575,2.469a23.968,23.968,0,0,0,5.03,1.9,24.842,24.842,0,0,0,11.56-.2,30.187,30.187,0,0,0,5.391-1.965c.862-.4,1.692-.777,2.587-1.1q1.155-.417,2.293-.879a61.23,61.23,0,0,0,16.519-9.875,67.8,67.8,0,0,0,12.513-14.13,75.857,75.857,0,0,0,5.46-9.677c0,.056-.006.112-.008.168-.077,1.723-.088,3.447-.073,5.171.028,3.447.173,6.893.483,10.328a139.135,139.135,0,0,0,2.982,18.827.467.467,0,0,0,.033.139c.114.49.225.981.344,1.471q.7,2.847,1.533,5.655c.271.909.55,1.816.859,2.713a16.882,16.882,0,0,0,1.258,2.645c.072.13.316.081.3-.081a19.538,19.538,0,0,0-.34-2.452c-.209-.836-.432-1.668-.649-2.5-.428-1.64-.827-3.289-1.211-4.94-.105-.452-.2-.906-.3-1.359,5.022,2.8,10.375,4.994,15.573,7.443a107.8,107.8,0,0,1,16.368,9.122q2.115,1.493,4.089,3.172c.649.555,1.277,1.134,1.909,1.708a18.518,18.518,0,0,0,1.563,1.364c-2.059,6.56-6.553,11.9-11.4,16.635" transform="translate(-1.71 -1.705)"/>
        <path id="Path_3092" data-name="Path 3092" d="M273.822,496.7a77.84,77.84,0,0,0,5.618-12.8,132.512,132.512,0,0,0,4.069-13.448,63.33,63.33,0,0,0,1.531-7.765c.057-.494-.734-.581-.856-.116-.586,2.235-1.034,4.508-1.573,6.755-.547,2.278-1.154,4.541-1.8,6.792q-1.923,6.669-4.5,13.126c-.97,2.427-1.973,4.838-2.883,7.288-.087.235.277.377.4.168" transform="translate(-166.604 -281.684)"/>
        <path id="Path_3093" data-name="Path 3093" d="M284.028,568.973a20.081,20.081,0,0,0-4.475,1.625,24.04,24.04,0,0,0-4.053,2.617,28.151,28.151,0,0,0-8.949,12c-.221.561.738.971.982.414a30.425,30.425,0,0,1,4.99-7.825,33.578,33.578,0,0,1,7.053-5.947,47.353,47.353,0,0,1,4.569-2.611c.159-.08.045-.317-.118-.279" transform="translate(-162.404 -346.704)"/>
        <path id="Path_3094" data-name="Path 3094" d="M204.289,588.368a14.449,14.449,0,0,0-2.742-2.166,13.421,13.421,0,0,0-6.586-2.029c-.479-.017-.608.781-.116.856a15.91,15.91,0,0,1,6.078,2.238,14.644,14.644,0,0,1,2.481,1.985,13.692,13.692,0,0,1,1.111,1.245,3.231,3.231,0,0,0,1.132,1.092c.257.108.5-.159.514-.392a2.753,2.753,0,0,0-.771-1.576,14.54,14.54,0,0,0-1.1-1.254" transform="translate(-118.54 -355.968)"/>
        <path id="Path_3095" data-name="Path 3095" d="M63.948,123.173a5.124,5.124,0,0,1,1.082-3.444,14.444,14.444,0,0,1,3.255-2.813c3.368-2.3,6.92-4.276,9.916-7.086a23.5,23.5,0,0,0,4.858-6.492.371.371,0,0,0-.639-.374c-2.385,4.031-6.028,7.055-9.88,9.621-1.615,1.076-3.282,2.072-4.885,3.165a14.625,14.625,0,0,0-3.584,3.145,4.868,4.868,0,0,0-.893,4.381.394.394,0,0,0,.77-.1" transform="translate(-38.38 -62.631)"/>
        <path id="Path_3096" data-name="Path 3096" d="M252.2,77.942a20.549,20.549,0,0,0,7.136,2.912c2.676.634,5.4,1.018,8.1,1.526a31.063,31.063,0,0,1,7.586,2.185,14.025,14.025,0,0,1,3.453,2.246,16.185,16.185,0,0,1,2.9,3.412c.124.2.482.073.4-.168a9.576,9.576,0,0,0-1.961-3.526,12.611,12.611,0,0,0-2.99-2.353,25.113,25.113,0,0,0-7.5-2.539c-2.705-.545-5.447-.884-8.154-1.418a24.82,24.82,0,0,1-7.354-2.406,11.821,11.821,0,0,1-3.187-2.549,16.005,16.005,0,0,1-2.3-3.96c-.191-.411-.794-.11-.7.3a11.164,11.164,0,0,0,4.567,6.34" transform="translate(-150.889 -43.33)"/>
        <path id="Path_3097" data-name="Path 3097" d="M316.078,96.72c6.863.875,10.218,7.663,13.027,13.164.4.789.816,1.6,1.29,2.346.277.438.572.854.877,1.264-.443-.316-.889-.628-1.349-.921a14.765,14.765,0,0,0-2.17-1.122c-.373-.16-.752-.309-1.135-.443-.2-.068-.4-.148-.6-.2a3.842,3.842,0,0,0-.613-.048c-.077-.006-.091.1-.037.135a9.536,9.536,0,0,0,.982.6q.5.262.986.556c.635.386,1.233.824,1.848,1.241,1.191.807,2.316,1.71,3.45,2.594a22.292,22.292,0,0,0,7.531,4.328,7.91,7.91,0,0,0,5.485-.044.124.124,0,0,0-.03-.225c-1.588-.444-3.262-.411-4.858-.819a15,15,0,0,1-3.935-1.675,54.356,54.356,0,0,1-4.641-3.29c0-.005,0-.011,0-.017-.342-.749-.636-1.513-.968-2.268s-.708-1.476-1.068-2.21c-.755-1.54-1.555-3.065-2.408-4.553a20.359,20.359,0,0,0-6.357-7.336,11.492,11.492,0,0,0-5.3-1.669c-.4-.029-.379.562,0,.61" transform="translate(-192.426 -58.564)"/>
        <path id="Path_3098" data-name="Path 3098" d="M93.715,136.782c-.522.846-1.008,1.715-1.565,2.54s-1.272,1.5-1.855,2.3c-.221.3.191.574.457.457a5.192,5.192,0,0,0,1.892-1.826c.509-.7.949-1.454,1.391-2.2a11.06,11.06,0,0,1,3.276-4c2.779-1.749,6.355-.611,9.413-1.159a5.567,5.567,0,0,0,4.113-2.758c.051-.089-.08-.2-.148-.114-2.1,2.672-5.973,2.09-8.971,2.155a10,10,0,0,0-4.558.927,9.724,9.724,0,0,0-3.444,3.683" transform="translate(-54.983 -79.207)"/>
        <path id="Path_3099" data-name="Path 3099" d="M124.65,123.622a3.382,3.382,0,0,0,2.415-1.209,19.977,19.977,0,0,0,1.774-2.452,4.781,4.781,0,0,1,2.12-1.907,6.494,6.494,0,0,1,2.537-.407c3.689.124,6.888,2.567,10.6,2.614a8.069,8.069,0,0,0,6.1-2.779c.084-.092-.029-.264-.141-.182a9.108,9.108,0,0,1-5.752,1.986,18.024,18.024,0,0,1-5.23-1.272c-3.177-1.125-7.593-2.645-10.27.333a31.2,31.2,0,0,0-1.959,2.706,10.061,10.061,0,0,1-1.03,1.24,6.236,6.236,0,0,1-1.285.883.242.242,0,0,0,.121.447" transform="translate(-75.811 -71.057)"/>
        <path id="Path_3100" data-name="Path 3100" d="M179.177,106.154a10.834,10.834,0,0,0-5.049,2.77,16.32,16.32,0,0,0-1.978,2.119c-.623.8-1.165,1.639-1.865,2.379a11.308,11.308,0,0,1-4.766,3.042,13.572,13.572,0,0,1-6.757.295c-.572-.113-.821.751-.243.882a13.338,13.338,0,0,0,11.127-2.066,12,12,0,0,0,2.182-2.133c.58-.736,1.061-1.54,1.665-2.258a13.01,13.01,0,0,1,4.479-3.572,5.686,5.686,0,0,1,2.836-.541,5.069,5.069,0,0,1,2.837,1.4.421.421,0,0,0,.6-.6,5.2,5.2,0,0,0-5.063-1.718" transform="translate(-96.393 -64.623)"/>
        <path id="Path_3101" data-name="Path 3101" d="M143.611,468.831c-.791-2.278-1.347-4.659-2.243-6.9-.1-.239-.536-.243-.5.068a33.539,33.539,0,0,0,1.646,6.3c.666,2.042,1.4,4.061,2.231,6.041a87.611,87.611,0,0,0,5.909,11.555q1.931,3.174,4.155,6.142c.1.131.32.012.226-.132a103.778,103.778,0,0,1-11.425-23.074" transform="translate(-85.837 -281.377)"/>
        <path id="Path_3102" data-name="Path 3102" d="M135.254,69.758c1.309-.934,3.072-.864,4.61-.964a12.6,12.6,0,0,0,3.354-.648,20.836,20.836,0,0,0,5.762-3.347c1.833-1.416,3.56-2.962,5.391-4.379a18.463,18.463,0,0,1,5.576-3.2,9.071,9.071,0,0,1,3.351-.438,10.366,10.366,0,0,1,3.7,1.082c.712.341,1.339-.716.623-1.065a13.115,13.115,0,0,0-1.8-.73,9.761,9.761,0,0,0-1.753-.305,9.938,9.938,0,0,0-3.276.175,16.375,16.375,0,0,0-5.846,2.87c-3.781,2.686-7.037,6.275-11.32,8.2a11.668,11.668,0,0,1-3.692.963c-1.756.166-3.566.18-4.936,1.455-.172.16.057.471.255.33" transform="translate(-82.225 -33.942)"/>
      </g>
    </g>
    <g id="Group_238" data-name="Group 238" transform="matrix(0.985, 0.174, -0.174, 0.985, 247.503, 906.697)">
      <line id="Line_83" data-name="Line 83" y1="3.056" x2="14.377" transform="translate(53.818 21.877)" fill="none" stroke="#18181b" stroke-miterlimit="10" stroke-width="5.355"/>
      <g id="Group_237" data-name="Group 237" transform="translate(0 -0.001)">
        <g id="Group_236" data-name="Group 236" clip-path="url(#clip-path-2)">
          <line id="Line_84" data-name="Line 84" y1="0.897" x2="4.219" transform="translate(3.115 34.81)" fill="none" stroke="#18181b" stroke-linecap="round" stroke-linejoin="round" stroke-width="5.355"/>
          <line id="Line_85" data-name="Line 85" y1="0.896" x2="4.219" transform="translate(114.842 11.07)" fill="none" stroke="#18181b" stroke-linecap="round" stroke-linejoin="round" stroke-width="5.355"/>
          <path id="Path_3103" data-name="Path 3103" d="M53.277,24.454c2.308,10.863-5.569,27.083-22.653,28.91C18.579,54.649,10.1,45.688,7.8,34.826s6.292-17.649,18.142-20.167S50.969,13.589,53.277,24.454Z" transform="translate(1.213 2.222)" fill="#1ecece" stroke="#18181b" stroke-miterlimit="10" stroke-width="4.76"/>
          <line id="Line_86" data-name="Line 86" y1="8.633" x2="40.628" transform="translate(9.631 20.455)" fill="none" stroke="#18181b" stroke-miterlimit="10" stroke-width="3.57"/>
          <line id="Line_87" data-name="Line 87" y1="9.207" x2="43.336" transform="translate(9.858 27.609)" fill="none" stroke="#18181b" stroke-miterlimit="10" stroke-width="3.57"/>
          <line id="Line_88" data-name="Line 88" y1="8.633" x2="40.628" transform="translate(12.793 35.337)" fill="none" stroke="#18181b" stroke-miterlimit="10" stroke-width="3.57"/>
          <line id="Line_89" data-name="Line 89" y1="7.05" x2="33.182" transform="translate(18.098 43.569)" fill="none" stroke="#18181b" stroke-miterlimit="10" stroke-width="3.57"/>
          <path id="Path_3104" data-name="Path 3104" d="M58.879,23.32c2.306,10.862,16.1,22.479,32.449,17.2,11.53-3.722,15.626-15.354,13.318-26.218S91.723.735,79.871,3.254,56.571,12.455,58.879,23.32Z" transform="translate(9.574 0.39)" fill="#1ecece" stroke="#18181b" stroke-miterlimit="10" stroke-width="4.76"/>
          <line id="Line_90" data-name="Line 90" y1="8.633" x2="40.627" transform="translate(69.896 7.649)" fill="none" stroke="#18181b" stroke-miterlimit="10" stroke-width="3.57"/>
          <line id="Line_91" data-name="Line 91" y1="9.209" x2="43.336" transform="translate(70.123 14.802)" fill="none" stroke="#18181b" stroke-miterlimit="10" stroke-width="3.57"/>
          <line id="Line_92" data-name="Line 92" y1="8.634" x2="40.63" transform="translate(73.057 22.53)" fill="none" stroke="#18181b" stroke-miterlimit="10" stroke-width="3.57"/>
          <line id="Line_93" data-name="Line 93" y1="7.052" x2="33.18" transform="translate(78.363 30.762)" fill="none" stroke="#18181b" stroke-miterlimit="10" stroke-width="3.57"/>
        </g>
      </g>
    </g>
  </g>
</svg>
