<svg xmlns="http://www.w3.org/2000/svg" xmlns:xlink="http://www.w3.org/1999/xlink" width="210" height="60.287" viewBox="0 0 210 60.287">
  <defs>
    <clipPath id="clip-path">
      <rect id="Rectangle_93" data-name="Rectangle 93" width="160" height="60.234" fill="none"/>
    </clipPath>
    <clipPath id="clip-path-2">
      <rect id="Rectangle_93-2" data-name="Rectangle 93" width="158" height="60.234" fill="none"/>
    </clipPath>
  </defs>
  <g id="Group_263" data-name="Group 263" transform="translate(-23 -186.895)">
    <g id="Group_41" data-name="Group 41" transform="translate(23 186.947)">
      <g id="Group_40" data-name="Group 40" clip-path="url(#clip-path)">
        <path id="Path_3" data-name="Path 3" d="M144.53,13.384a21.5,21.5,0,0,1-14.456-5.391,17.65,17.65,0,0,0-23.119,0A21.5,21.5,0,0,1,92.5,13.384,21.5,21.5,0,0,1,78.045,7.993a17.65,17.65,0,0,0-23.119,0,21.5,21.5,0,0,1-14.456,5.391A21.5,21.5,0,0,1,26.015,7.993a17.193,17.193,0,0,0-11.56-4.312A17.193,17.193,0,0,0,2.9,7.993L0,5.391A21.5,21.5,0,0,1,14.456,0,21.5,21.5,0,0,1,28.911,5.391,17.193,17.193,0,0,0,40.471,9.7,17.194,17.194,0,0,0,52.03,5.391a22.075,22.075,0,0,1,28.911,0A17.194,17.194,0,0,0,92.5,9.7a17.2,17.2,0,0,0,11.56-4.312,22.075,22.075,0,0,1,28.911,0A17.194,17.194,0,0,0,144.53,9.7a17.194,17.194,0,0,0,11.559-4.312,22.075,22.075,0,0,1,28.911,0l-2.9,2.6a17.65,17.65,0,0,0-23.119,0,21.5,21.5,0,0,1-14.455,5.391" fill="#fff"/>
        <path id="Path_4" data-name="Path 4" d="M144.53,70.9a21.505,21.505,0,0,1-14.456-5.391,17.649,17.649,0,0,0-23.119,0,22.076,22.076,0,0,1-28.911,0,17.649,17.649,0,0,0-23.119,0A21.5,21.5,0,0,1,40.471,70.9a21.5,21.5,0,0,1-14.455-5.391A17.191,17.191,0,0,0,14.456,61.2,17.193,17.193,0,0,0,2.9,65.512L0,62.911A21.5,21.5,0,0,1,14.456,57.52a21.5,21.5,0,0,1,14.456,5.391,17.651,17.651,0,0,0,23.119,0,22.076,22.076,0,0,1,28.911,0,17.652,17.652,0,0,0,23.119,0,22.076,22.076,0,0,1,28.911,0,17.651,17.651,0,0,0,23.119,0,22.076,22.076,0,0,1,28.911,0l-2.9,2.6a17.65,17.65,0,0,0-23.119,0A21.5,21.5,0,0,1,144.53,70.9" transform="translate(0 -34.095)" fill="#1ecece"/>
        <path id="Path_5" data-name="Path 5" d="M144.53,128.423a21.5,21.5,0,0,1-14.456-5.391,17.65,17.65,0,0,0-23.119,0,22.074,22.074,0,0,1-28.911,0,17.65,17.65,0,0,0-23.119,0,21.5,21.5,0,0,1-14.456,5.392,21.5,21.5,0,0,1-14.455-5.391,17.193,17.193,0,0,0-11.56-4.312A17.194,17.194,0,0,0,2.9,123.031L0,120.43a21.5,21.5,0,0,1,14.456-5.391,21.5,21.5,0,0,1,14.456,5.391,17.651,17.651,0,0,0,23.119,0,22.075,22.075,0,0,1,28.911,0,17.652,17.652,0,0,0,23.119,0,22.075,22.075,0,0,1,28.911,0,17.651,17.651,0,0,0,23.119,0,22.075,22.075,0,0,1,28.911,0l-2.9,2.6a17.651,17.651,0,0,0-23.119,0,21.5,21.5,0,0,1-14.455,5.392" transform="translate(0 -68.189)" fill="#18181b"/>
      </g>
    </g>
    <g id="Group_262" data-name="Group 262" transform="translate(75 186.895)">
      <g id="Group_40-2" data-name="Group 40" clip-path="url(#clip-path-2)">
        <path id="Path_3-2" data-name="Path 3" d="M144.53,13.384a21.5,21.5,0,0,1-14.456-5.391,17.65,17.65,0,0,0-23.119,0A21.5,21.5,0,0,1,92.5,13.384,21.5,21.5,0,0,1,78.045,7.993a17.65,17.65,0,0,0-23.119,0,21.5,21.5,0,0,1-14.456,5.391A21.5,21.5,0,0,1,26.015,7.993a17.193,17.193,0,0,0-11.56-4.312A17.193,17.193,0,0,0,2.9,7.993L0,5.391A21.5,21.5,0,0,1,14.456,0,21.5,21.5,0,0,1,28.911,5.391,17.193,17.193,0,0,0,40.471,9.7,17.194,17.194,0,0,0,52.03,5.391a22.075,22.075,0,0,1,28.911,0A17.194,17.194,0,0,0,92.5,9.7a17.2,17.2,0,0,0,11.56-4.312,22.075,22.075,0,0,1,28.911,0A17.194,17.194,0,0,0,144.53,9.7a17.194,17.194,0,0,0,11.559-4.312,22.075,22.075,0,0,1,28.911,0l-2.9,2.6a17.65,17.65,0,0,0-23.119,0,21.5,21.5,0,0,1-14.455,5.391" fill="#fff"/>
        <path id="Path_4-2" data-name="Path 4" d="M144.53,70.9a21.505,21.505,0,0,1-14.456-5.391,17.649,17.649,0,0,0-23.119,0,22.076,22.076,0,0,1-28.911,0,17.649,17.649,0,0,0-23.119,0A21.5,21.5,0,0,1,40.471,70.9a21.5,21.5,0,0,1-14.455-5.391A17.191,17.191,0,0,0,14.456,61.2,17.193,17.193,0,0,0,2.9,65.512L0,62.911A21.5,21.5,0,0,1,14.456,57.52a21.5,21.5,0,0,1,14.456,5.391,17.651,17.651,0,0,0,23.119,0,22.076,22.076,0,0,1,28.911,0,17.652,17.652,0,0,0,23.119,0,22.076,22.076,0,0,1,28.911,0,17.651,17.651,0,0,0,23.119,0,22.076,22.076,0,0,1,28.911,0l-2.9,2.6a17.65,17.65,0,0,0-23.119,0A21.5,21.5,0,0,1,144.53,70.9" transform="translate(0 -34.095)" fill="#1ecece"/>
        <path id="Path_5-2" data-name="Path 5" d="M144.53,128.423a21.5,21.5,0,0,1-14.456-5.391,17.65,17.65,0,0,0-23.119,0,22.074,22.074,0,0,1-28.911,0,17.65,17.65,0,0,0-23.119,0,21.5,21.5,0,0,1-14.456,5.392,21.5,21.5,0,0,1-14.455-5.391,17.193,17.193,0,0,0-11.56-4.312A17.194,17.194,0,0,0,2.9,123.031L0,120.43a21.5,21.5,0,0,1,14.456-5.391,21.5,21.5,0,0,1,14.456,5.391,17.651,17.651,0,0,0,23.119,0,22.075,22.075,0,0,1,28.911,0,17.652,17.652,0,0,0,23.119,0,22.075,22.075,0,0,1,28.911,0,17.651,17.651,0,0,0,23.119,0,22.075,22.075,0,0,1,28.911,0l-2.9,2.6a17.651,17.651,0,0,0-23.119,0,21.5,21.5,0,0,1-14.455,5.392" transform="translate(0 -68.189)" fill="#18181b"/>
      </g>
    </g>
  </g>
</svg>
