<svg xmlns="http://www.w3.org/2000/svg" width="277.867" height="90.471" viewBox="0 0 277.867 90.471">
  <g id="Group_285" data-name="Group 285" transform="translate(-217 -1615.539)">
    <path id="Path_3144" data-name="Path 3144" d="M217.082,20.1a32.3,32.3,0,0,1-21.712-8.1,26.51,26.51,0,0,0-34.724,0,32.3,32.3,0,0,1-21.712,8.1,32.3,32.3,0,0,1-21.711-8.1,26.51,26.51,0,0,0-34.724,0,32.3,32.3,0,0,1-21.712,8.1,32.3,32.3,0,0,1-21.711-8.1A25.824,25.824,0,0,0,21.712,5.528,25.823,25.823,0,0,0,4.35,12.005L0,8.1A32.3,32.3,0,0,1,21.712,0,32.3,32.3,0,0,1,43.424,8.1a25.823,25.823,0,0,0,17.362,6.476A25.826,25.826,0,0,0,78.148,8.1a33.156,33.156,0,0,1,43.424,0,25.826,25.826,0,0,0,17.362,6.476A25.826,25.826,0,0,0,156.3,8.1a33.156,33.156,0,0,1,43.424,0,25.826,25.826,0,0,0,17.362,6.476A25.826,25.826,0,0,0,234.444,8.1a33.156,33.156,0,0,1,43.424,0l-4.35,3.907a26.51,26.51,0,0,0-34.725,0,32.3,32.3,0,0,1-21.711,8.1" transform="translate(217 1615.539)" fill="#fff"/>
    <path id="Path_3145" data-name="Path 3145" d="M217.082,77.622a32.3,32.3,0,0,1-21.712-8.1,26.509,26.509,0,0,0-34.724,0,33.157,33.157,0,0,1-43.424,0,26.509,26.509,0,0,0-34.724,0,32.3,32.3,0,0,1-21.712,8.1,32.3,32.3,0,0,1-21.711-8.1,25.821,25.821,0,0,0-17.363-6.477A25.823,25.823,0,0,0,4.35,69.524L0,65.617a32.3,32.3,0,0,1,21.712-8.1,32.3,32.3,0,0,1,21.712,8.1,26.511,26.511,0,0,0,34.724,0,33.158,33.158,0,0,1,43.424,0,26.512,26.512,0,0,0,34.725,0,33.158,33.158,0,0,1,43.424,0,26.511,26.511,0,0,0,34.724,0,33.158,33.158,0,0,1,43.424,0l-4.35,3.908a26.509,26.509,0,0,0-34.725,0,32.3,32.3,0,0,1-21.711,8.1" transform="translate(217 1593.204)" fill="#18181b"/>
    <path id="Path_3146" data-name="Path 3146" d="M217.082,135.142a32.3,32.3,0,0,1-21.712-8.1,26.511,26.511,0,0,0-34.724,0,33.155,33.155,0,0,1-43.424,0,26.51,26.51,0,0,0-34.724,0,32.3,32.3,0,0,1-21.712,8.1,32.3,32.3,0,0,1-21.711-8.1,25.824,25.824,0,0,0-17.363-6.477A25.826,25.826,0,0,0,4.35,127.043L0,123.137a32.3,32.3,0,0,1,21.712-8.1,32.3,32.3,0,0,1,21.712,8.1,26.511,26.511,0,0,0,34.724,0,33.156,33.156,0,0,1,43.424,0,26.512,26.512,0,0,0,34.725,0,33.156,33.156,0,0,1,43.424,0,26.511,26.511,0,0,0,34.724,0,33.156,33.156,0,0,1,43.424,0l-4.35,3.907a26.511,26.511,0,0,0-34.725,0,32.293,32.293,0,0,1-21.711,8.1" transform="translate(217 1570.869)" fill="#fff"/>
  </g>
</svg>
