<svg xmlns="http://www.w3.org/2000/svg" xmlns:xlink="http://www.w3.org/1999/xlink" width="505" height="60.234" viewBox="0 0 505 60.234">
  <defs>
    <clipPath id="clip-path">
      <rect id="Rectangle_93" data-name="Rectangle 93" width="197" height="60.234" fill="none"/>
    </clipPath>
    <clipPath id="clip-path-3">
      <rect id="Rectangle_93-3" data-name="Rectangle 93" width="153" height="60.234" fill="none"/>
    </clipPath>
    <clipPath id="clip-path-4">
      <rect id="Rectangle_93-4" data-name="Rectangle 93" width="61" height="60.234" fill="none"/>
    </clipPath>
  </defs>
  <g id="Group_317" data-name="Group 317" transform="translate(-220 -376)">
    <g id="Group_41" data-name="Group 41" transform="translate(220 376)">
      <g id="Group_40" data-name="Group 40" clip-path="url(#clip-path)">
        <path id="Path_3" data-name="Path 3" d="M153.9,13.384a23.78,23.78,0,0,1-15.393-5.391,19.725,19.725,0,0,0-24.618,0A23.779,23.779,0,0,1,98.5,13.384,23.778,23.778,0,0,1,83.107,7.993a19.725,19.725,0,0,0-24.618,0A23.781,23.781,0,0,1,43.1,13.384,23.777,23.777,0,0,1,27.7,7.993a19.013,19.013,0,0,0-12.31-4.312A19.012,19.012,0,0,0,3.084,7.993L0,5.391A23.777,23.777,0,0,1,15.393,0,23.777,23.777,0,0,1,30.787,5.391,19.012,19.012,0,0,0,43.1,9.7,19.014,19.014,0,0,0,55.4,5.391a24.671,24.671,0,0,1,30.786,0A19.014,19.014,0,0,0,98.5,9.7a19.014,19.014,0,0,0,12.31-4.312,24.671,24.671,0,0,1,30.786,0A19.014,19.014,0,0,0,153.9,9.7a19.014,19.014,0,0,0,12.309-4.312,24.671,24.671,0,0,1,30.786,0l-3.084,2.6a19.726,19.726,0,0,0-24.619,0A23.777,23.777,0,0,1,153.9,13.384" fill="#fff"/>
        <path id="Path_4" data-name="Path 4" d="M153.9,70.9a23.781,23.781,0,0,1-15.393-5.391,19.724,19.724,0,0,0-24.618,0,24.671,24.671,0,0,1-30.786,0,19.724,19.724,0,0,0-24.618,0A23.78,23.78,0,0,1,43.1,70.9,23.779,23.779,0,0,1,27.7,65.513,19.011,19.011,0,0,0,15.393,61.2,19.012,19.012,0,0,0,3.084,65.512L0,62.911A23.777,23.777,0,0,1,15.393,57.52a23.777,23.777,0,0,1,15.393,5.391A19.01,19.01,0,0,0,43.1,67.222,19.012,19.012,0,0,0,55.4,62.911a24.672,24.672,0,0,1,30.786,0,19.727,19.727,0,0,0,24.619,0,24.672,24.672,0,0,1,30.786,0,19.726,19.726,0,0,0,24.618,0,24.672,24.672,0,0,1,30.786,0l-3.084,2.6a19.725,19.725,0,0,0-24.619,0A23.777,23.777,0,0,1,153.9,70.9" transform="translate(0 -34.095)" fill="#1ecece"/>
        <path id="Path_5" data-name="Path 5" d="M153.9,128.423a23.78,23.78,0,0,1-15.393-5.391,19.726,19.726,0,0,0-24.618,0,24.67,24.67,0,0,1-30.786,0,19.726,19.726,0,0,0-24.618,0A23.778,23.778,0,0,1,43.1,128.423,23.777,23.777,0,0,1,27.7,123.032a19.013,19.013,0,0,0-12.31-4.312,19.014,19.014,0,0,0-12.309,4.312L0,120.43a23.777,23.777,0,0,1,15.393-5.391,23.777,23.777,0,0,1,15.393,5.391A19.012,19.012,0,0,0,43.1,124.742,19.014,19.014,0,0,0,55.4,120.43a24.671,24.671,0,0,1,30.786,0,19.727,19.727,0,0,0,24.619,0,24.671,24.671,0,0,1,30.786,0,19.726,19.726,0,0,0,24.618,0,24.671,24.671,0,0,1,30.786,0l-3.084,2.6a19.726,19.726,0,0,0-24.619,0,23.775,23.775,0,0,1-15.393,5.392" transform="translate(0 -68.189)" fill="#18181b"/>
      </g>
    </g>
    <g id="Group_78" data-name="Group 78" transform="translate(386 376)">
      <g id="Group_40-2" data-name="Group 40" clip-path="url(#clip-path)">
        <path id="Path_3-2" data-name="Path 3" d="M153.9,13.384a23.78,23.78,0,0,1-15.393-5.391,19.725,19.725,0,0,0-24.618,0A23.779,23.779,0,0,1,98.5,13.384,23.778,23.778,0,0,1,83.107,7.993a19.725,19.725,0,0,0-24.618,0A23.781,23.781,0,0,1,43.1,13.384,23.777,23.777,0,0,1,27.7,7.993a19.013,19.013,0,0,0-12.31-4.312A19.012,19.012,0,0,0,3.084,7.993L0,5.391A23.777,23.777,0,0,1,15.393,0,23.777,23.777,0,0,1,30.787,5.391,19.012,19.012,0,0,0,43.1,9.7,19.014,19.014,0,0,0,55.4,5.391a24.671,24.671,0,0,1,30.786,0A19.014,19.014,0,0,0,98.5,9.7a19.014,19.014,0,0,0,12.31-4.312,24.671,24.671,0,0,1,30.786,0A19.014,19.014,0,0,0,153.9,9.7a19.014,19.014,0,0,0,12.309-4.312,24.671,24.671,0,0,1,30.786,0l-3.084,2.6a19.726,19.726,0,0,0-24.619,0A23.777,23.777,0,0,1,153.9,13.384" fill="#fff"/>
        <path id="Path_4-2" data-name="Path 4" d="M153.9,70.9a23.781,23.781,0,0,1-15.393-5.391,19.724,19.724,0,0,0-24.618,0,24.671,24.671,0,0,1-30.786,0,19.724,19.724,0,0,0-24.618,0A23.78,23.78,0,0,1,43.1,70.9,23.779,23.779,0,0,1,27.7,65.513,19.011,19.011,0,0,0,15.393,61.2,19.012,19.012,0,0,0,3.084,65.512L0,62.911A23.777,23.777,0,0,1,15.393,57.52a23.777,23.777,0,0,1,15.393,5.391A19.01,19.01,0,0,0,43.1,67.222,19.012,19.012,0,0,0,55.4,62.911a24.672,24.672,0,0,1,30.786,0,19.727,19.727,0,0,0,24.619,0,24.672,24.672,0,0,1,30.786,0,19.726,19.726,0,0,0,24.618,0,24.672,24.672,0,0,1,30.786,0l-3.084,2.6a19.725,19.725,0,0,0-24.619,0A23.777,23.777,0,0,1,153.9,70.9" transform="translate(0 -34.095)" fill="#1ecece"/>
        <path id="Path_5-2" data-name="Path 5" d="M153.9,128.423a23.78,23.78,0,0,1-15.393-5.391,19.726,19.726,0,0,0-24.618,0,24.67,24.67,0,0,1-30.786,0,19.726,19.726,0,0,0-24.618,0A23.778,23.778,0,0,1,43.1,128.423,23.777,23.777,0,0,1,27.7,123.032a19.013,19.013,0,0,0-12.31-4.312,19.014,19.014,0,0,0-12.309,4.312L0,120.43a23.777,23.777,0,0,1,15.393-5.391,23.777,23.777,0,0,1,15.393,5.391A19.012,19.012,0,0,0,43.1,124.742,19.014,19.014,0,0,0,55.4,120.43a24.671,24.671,0,0,1,30.786,0,19.727,19.727,0,0,0,24.619,0,24.671,24.671,0,0,1,30.786,0,19.726,19.726,0,0,0,24.618,0,24.671,24.671,0,0,1,30.786,0l-3.084,2.6a19.726,19.726,0,0,0-24.619,0,23.775,23.775,0,0,1-15.393,5.392" transform="translate(0 -68.189)" fill="#18181b"/>
      </g>
    </g>
    <g id="Group_300" data-name="Group 300" transform="translate(553 376)">
      <g id="Group_40-3" data-name="Group 40" clip-path="url(#clip-path-3)">
        <path id="Path_3-3" data-name="Path 3" d="M153.9,13.384a23.78,23.78,0,0,1-15.393-5.391,19.725,19.725,0,0,0-24.618,0A23.779,23.779,0,0,1,98.5,13.384,23.778,23.778,0,0,1,83.107,7.993a19.725,19.725,0,0,0-24.618,0A23.781,23.781,0,0,1,43.1,13.384,23.777,23.777,0,0,1,27.7,7.993a19.013,19.013,0,0,0-12.31-4.312A19.012,19.012,0,0,0,3.084,7.993L0,5.391A23.777,23.777,0,0,1,15.393,0,23.777,23.777,0,0,1,30.787,5.391,19.012,19.012,0,0,0,43.1,9.7,19.014,19.014,0,0,0,55.4,5.391a24.671,24.671,0,0,1,30.786,0A19.014,19.014,0,0,0,98.5,9.7a19.014,19.014,0,0,0,12.31-4.312,24.671,24.671,0,0,1,30.786,0A19.014,19.014,0,0,0,153.9,9.7a19.014,19.014,0,0,0,12.309-4.312,24.671,24.671,0,0,1,30.786,0l-3.084,2.6a19.726,19.726,0,0,0-24.619,0A23.777,23.777,0,0,1,153.9,13.384" fill="#fff"/>
        <path id="Path_4-3" data-name="Path 4" d="M153.9,70.9a23.781,23.781,0,0,1-15.393-5.391,19.724,19.724,0,0,0-24.618,0,24.671,24.671,0,0,1-30.786,0,19.724,19.724,0,0,0-24.618,0A23.78,23.78,0,0,1,43.1,70.9,23.779,23.779,0,0,1,27.7,65.513,19.011,19.011,0,0,0,15.393,61.2,19.012,19.012,0,0,0,3.084,65.512L0,62.911A23.777,23.777,0,0,1,15.393,57.52a23.777,23.777,0,0,1,15.393,5.391A19.01,19.01,0,0,0,43.1,67.222,19.012,19.012,0,0,0,55.4,62.911a24.672,24.672,0,0,1,30.786,0,19.727,19.727,0,0,0,24.619,0,24.672,24.672,0,0,1,30.786,0,19.726,19.726,0,0,0,24.618,0,24.672,24.672,0,0,1,30.786,0l-3.084,2.6a19.725,19.725,0,0,0-24.619,0A23.777,23.777,0,0,1,153.9,70.9" transform="translate(0 -34.095)" fill="#1ecece"/>
        <path id="Path_5-3" data-name="Path 5" d="M153.9,128.423a23.78,23.78,0,0,1-15.393-5.391,19.726,19.726,0,0,0-24.618,0,24.67,24.67,0,0,1-30.786,0,19.726,19.726,0,0,0-24.618,0A23.778,23.778,0,0,1,43.1,128.423,23.777,23.777,0,0,1,27.7,123.032a19.013,19.013,0,0,0-12.31-4.312,19.014,19.014,0,0,0-12.309,4.312L0,120.43a23.777,23.777,0,0,1,15.393-5.391,23.777,23.777,0,0,1,15.393,5.391A19.012,19.012,0,0,0,43.1,124.742,19.014,19.014,0,0,0,55.4,120.43a24.671,24.671,0,0,1,30.786,0,19.727,19.727,0,0,0,24.619,0,24.671,24.671,0,0,1,30.786,0,19.726,19.726,0,0,0,24.618,0,24.671,24.671,0,0,1,30.786,0l-3.084,2.6a19.726,19.726,0,0,0-24.619,0,23.775,23.775,0,0,1-15.393,5.392" transform="translate(0 -68.189)" fill="#18181b"/>
      </g>
    </g>
    <g id="Group_302" data-name="Group 302" transform="translate(664 376)">
      <g id="Group_40-4" data-name="Group 40" clip-path="url(#clip-path-4)">
        <path id="Path_3-4" data-name="Path 3" d="M153.9,13.384a23.78,23.78,0,0,1-15.393-5.391,19.725,19.725,0,0,0-24.618,0A23.779,23.779,0,0,1,98.5,13.384,23.778,23.778,0,0,1,83.107,7.993a19.725,19.725,0,0,0-24.618,0A23.781,23.781,0,0,1,43.1,13.384,23.777,23.777,0,0,1,27.7,7.993a19.013,19.013,0,0,0-12.31-4.312A19.012,19.012,0,0,0,3.084,7.993L0,5.391A23.777,23.777,0,0,1,15.393,0,23.777,23.777,0,0,1,30.787,5.391,19.012,19.012,0,0,0,43.1,9.7,19.014,19.014,0,0,0,55.4,5.391a24.671,24.671,0,0,1,30.786,0A19.014,19.014,0,0,0,98.5,9.7a19.014,19.014,0,0,0,12.31-4.312,24.671,24.671,0,0,1,30.786,0A19.014,19.014,0,0,0,153.9,9.7a19.014,19.014,0,0,0,12.309-4.312,24.671,24.671,0,0,1,30.786,0l-3.084,2.6a19.726,19.726,0,0,0-24.619,0A23.777,23.777,0,0,1,153.9,13.384" fill="#fff"/>
        <path id="Path_4-4" data-name="Path 4" d="M153.9,70.9a23.781,23.781,0,0,1-15.393-5.391,19.724,19.724,0,0,0-24.618,0,24.671,24.671,0,0,1-30.786,0,19.724,19.724,0,0,0-24.618,0A23.78,23.78,0,0,1,43.1,70.9,23.779,23.779,0,0,1,27.7,65.513,19.011,19.011,0,0,0,15.393,61.2,19.012,19.012,0,0,0,3.084,65.512L0,62.911A23.777,23.777,0,0,1,15.393,57.52a23.777,23.777,0,0,1,15.393,5.391A19.01,19.01,0,0,0,43.1,67.222,19.012,19.012,0,0,0,55.4,62.911a24.672,24.672,0,0,1,30.786,0,19.727,19.727,0,0,0,24.619,0,24.672,24.672,0,0,1,30.786,0,19.726,19.726,0,0,0,24.618,0,24.672,24.672,0,0,1,30.786,0l-3.084,2.6a19.725,19.725,0,0,0-24.619,0A23.777,23.777,0,0,1,153.9,70.9" transform="translate(0 -34.095)" fill="#1ecece"/>
        <path id="Path_5-4" data-name="Path 5" d="M153.9,128.423a23.78,23.78,0,0,1-15.393-5.391,19.726,19.726,0,0,0-24.618,0,24.67,24.67,0,0,1-30.786,0,19.726,19.726,0,0,0-24.618,0A23.778,23.778,0,0,1,43.1,128.423,23.777,23.777,0,0,1,27.7,123.032a19.013,19.013,0,0,0-12.31-4.312,19.014,19.014,0,0,0-12.309,4.312L0,120.43a23.777,23.777,0,0,1,15.393-5.391,23.777,23.777,0,0,1,15.393,5.391A19.012,19.012,0,0,0,43.1,124.742,19.014,19.014,0,0,0,55.4,120.43a24.671,24.671,0,0,1,30.786,0,19.727,19.727,0,0,0,24.619,0,24.671,24.671,0,0,1,30.786,0,19.726,19.726,0,0,0,24.618,0,24.671,24.671,0,0,1,30.786,0l-3.084,2.6a19.726,19.726,0,0,0-24.619,0,23.775,23.775,0,0,1-15.393,5.392" transform="translate(0 -68.189)" fill="#18181b"/>
      </g>
    </g>
  </g>
</svg>
