<svg xmlns="http://www.w3.org/2000/svg" xmlns:xlink="http://www.w3.org/1999/xlink" width="2569.72" height="2576.143" viewBox="0 0 2569.72 2576.143">
  <defs>
    <clipPath id="clip-path">
      <rect id="Rectangle_155" data-name="Rectangle 155" width="2569.72" height="2576.143" fill="#1ecece"/>
    </clipPath>
  </defs>
  <g id="Group_160" data-name="Group 160" opacity="0.1">
    <g id="Group_159" data-name="Group 159" clip-path="url(#clip-path)">
      <path id="Path_2659" data-name="Path 2659" d="M954.26,64.322C928.1,47.089,901.424,30.8,874.2,15.7,632.24,33.8,393.548,121.474,223.342,307.642,110.943,433.26,64.671,631.6,190.279,763.82c125.618,119,297.508,158.671,429.74,277.674,244.611,238.006,264.445,621.464,92.555,912.358-129.692,223.184-321.294,378.92-540.919,477.313q42.879,2.571,86.152,2.349c272.955-129.54,497.026-338.527,593.6-651.552C990.248,1332.4,686.125,955.555,315.9,717.548c-138.837-92.565-99.169-277.674,0-390.073C478.853,139.059,716.335,68.4,954.26,64.322" transform="translate(1045.823 142.608)" fill="#1ecece"/>
      <path id="Path_2660" data-name="Path 2660" d="M728.305,1503.148c59.5-429.73-158.671-786.74-357.009-1150.364-46.282-85.95,52.887-158.671,132.222-198.339C628.057,95.63,763.456,83.953,897.453,101.5q-32.927-35.09-68.082-67.064C685.29,24.2,539.213,43.761,404.349,101.558c-119,52.887-257.84,185.109-178.5,310.727,185.119,297.508,462.794,528.9,482.627,879.3,29.352,447.6-218.253,775.013-563.042,987.438A1150.289,1150.289,0,0,0,273.286,2256.5c237.533-179.372,411.722-433.632,455.019-753.354" transform="translate(1320.984 289.2)" fill="#1ecece"/>
      <path id="Path_2661" data-name="Path 2661" d="M177.22,1990.965q37.495-15.851,73.931-34.1C615,1524.037,736.067,878.242,532.112,308.868,483.732,169.1,662.62,142.978,798.7,162.973c-17.142-31.117-35.392-61.871-55.035-92.111-1.462-2.259-3-4.427-4.487-6.675-72.549-12.725-148.174-14.066-226.9.061-72.721,13.229-152.056,59.5-132.222,132.232C512.278,639.429,657.73,1102.222,472.61,1551.787c-69.01,166.143-170.74,314.4-295.39,439.178" transform="translate(1609.743 491.786)" fill="#1ecece"/>
      <path id="Path_2662" data-name="Path 2662" d="M299.181,1408.805C483.3,1074.977,587.987,677.483,699.74,314.636a1335.511,1335.511,0,0,0-49.771-223.9,209.163,209.163,0,0,0-54.147,11.344c-39.668,13.229-72.721,52.9-66.106,85.95,39.224,458.982-72.862,929.59-323.846,1300.484q48.4-37.646,93.311-79.709" transform="translate(1869.979 824.183)" fill="#1ecece"/>
      <path id="Path_2663" data-name="Path 2663" d="M376.9,1988.7c-112.116,58.856-231.351,71.359-349.276,55.236q34.485,42.714,71.4,82.018c87.463,8.551,176.508,3.781,264.656-18.251,132.222-33.053,317.342-152.056,211.558-297.508C350.456,1486.237,191.785,1142.457,251.287,752.384c47.029-305.625,212.486-564.8,441.992-747.8q-46.706,13.068-92.464,29.675A1381.378,1381.378,0,0,0,416.572,236.7C39.729,745.779,198.4,1347.4,449.625,1863.08c19.834,39.668-19.834,99.169-72.721,125.618" transform="translate(250.963 41.656)" fill="#1ecece"/>
      <path id="Path_2664" data-name="Path 2664" d="M791.83,2003.905c52.877-105.784,13.209-218.172-79.346-284.289C414.976,1501.444,137.3,1237,183.595,846.927,224.916,475.034,468.014,171.739,784.146,0Q736.2,2.42,688.5,8.409C430.424,166.042,230.583,412.891,170.365,727.924c-85.94,442.96,152.056,826.417,469.4,1110.7,85.94,72.731,52.887,204.953-26.449,277.674-161.323,143.788-361.7,192.692-564.4,183.244q35.029,27.785,71.662,52.958c273.358,4.931,531.521-83.47,671.256-348.59" transform="translate(444.283)" fill="#1ecece"/>
      <path id="Path_2665" data-name="Path 2665" d="M842.193,10.063Q801.325,3.922,760.155.312C441.22,129.59,165.1,374.816,92.408,738.319c-85.95,429.73,277.674,667.737,595.016,866.075,238.006,145.452,125.608,469.408-72.731,621.464-163.319,127.7-350.667,193.993-543.369,214.18q42.985,21.189,87.7,39.052c174.512-29.161,343.286-96.82,495.332-213.564,231.4-178.5,390.072-548.733,112.4-747.072C575.025,1386.222,317.185,1353.169,204.8,1128.382-26.847,647.267,392.548,171.557,842.193,10.063" transform="translate(647.857 2.834)" fill="#1ecece"/>
      <path id="Path_2666" data-name="Path 2666" d="M918.165,37.451Q870.2,19.226,821,4.963C586,57.487,369.552,180.019,218.978,391.95c-132.233,191.724-171.9,423.126-66.116,628.069,92.555,171.9,290.893,204.953,462.793,257.84,231.392,79.336,284.279,363.624,224.777,588.411-46.272,152.057-125.608,284.279-244.611,396.677-139.412,121.978-295.713,190.513-460.394,227.52,4.2,1.039,8.379,2.127,12.594,3.126,20.036,5.021,40.273,9.378,60.611,13.391,128.2-38.125,251.78-96.286,367.355-184.535,224.777-171.9,376.843-423.126,350.395-707.414-33.053-323.946-363.624-423.116-608.235-561.953C53.693,907.63,133.028,550.621,311.533,358.9,478.865,185.989,693.246,83.663,918.165,37.451" transform="translate(838.629 45.08)" fill="#1ecece"/>
      <path id="Path_2667" data-name="Path 2667" d="M1.651,979.941A125.962,125.962,0,0,0,6.41,967.327C98.269,658.929,190.158,331.02,336.074,42.789,103.734,307.153-15.662,644.309,1.651,979.941" transform="translate(0.003 388.665)" fill="#1ecece"/>
      <path id="Path_2668" data-name="Path 2668" d="M310.634,1645.945C165.757,1101.537,239.648,452.253,578.043,16.846,560.609,26.99,543.407,37.678,526.4,48.719c-285.932,396.808-399.571,941.2-367.819,1445.169,3.1,86.747-64.947,108.163-150.584,96.084a1240.572,1240.572,0,0,0,60.2,133.513c86.525,11.182,169.954-7.25,242.443-77.541" transform="translate(72.612 153.017)" fill="#1ecece"/>
    </g>
  </g>
</svg>
