<svg xmlns="http://www.w3.org/2000/svg" width="430" height="28.07" viewBox="0 0 430 28.07">
  <g id="Group_189" data-name="Group 189" transform="translate(0 -698)">
    <path id="design-shape" d="M214.427,28.07a.565.565,0,0,1-.49-.3L199.151,1.806,184.364,27.774a.553.553,0,0,1-.979,0L168.6,1.806,153.815,27.774a.553.553,0,0,1-.979,0L138.051,1.806,123.265,27.774a.553.553,0,0,1-.979,0L107.5,1.806,92.714,27.774a.553.553,0,0,1-.979,0L76.952,1.806,62.165,27.774a.553.553,0,0,1-.979,0L46.4,1.806,31.615,27.774a.553.553,0,0,1-.979,0L15.85,1.806,1.066,27.774a.549.549,0,0,1-.79.2.651.651,0,0,1-.187-.855L15.363.3a.553.553,0,0,1,.979,0L31.129,26.264,45.911.3a.553.553,0,0,1,.979,0L61.677,26.264,76.462.3a.553.553,0,0,1,.979,0L92.228,26.264,107.013.3a.553.553,0,0,1,.979,0l14.787,25.968L137.562.3a.553.553,0,0,1,.979,0l14.787,25.968L168.112.3a.553.553,0,0,1,.979,0l14.787,25.968L198.663.3a.553.553,0,0,1,.979,0l15.274,26.827a.653.653,0,0,1-.187.855.54.54,0,0,1-.3.092Z" transform="translate(-0.002 698)" fill="#ea3397"/>
    <path id="design-shape-2" data-name="design-shape" d="M214.427,28.07a.565.565,0,0,1-.49-.3L199.151,1.806,184.364,27.774a.553.553,0,0,1-.979,0L168.6,1.806,153.815,27.774a.553.553,0,0,1-.979,0L138.051,1.806,123.265,27.774a.553.553,0,0,1-.979,0L107.5,1.806,92.714,27.774a.553.553,0,0,1-.979,0L76.952,1.806,62.165,27.774a.553.553,0,0,1-.979,0L46.4,1.806,31.615,27.774a.553.553,0,0,1-.979,0L15.85,1.806,1.066,27.774a.549.549,0,0,1-.79.2.651.651,0,0,1-.187-.855L15.363.3a.553.553,0,0,1,.979,0L31.129,26.264,45.911.3a.553.553,0,0,1,.979,0L61.677,26.264,76.462.3a.553.553,0,0,1,.979,0L92.228,26.264,107.013.3a.553.553,0,0,1,.979,0l14.787,25.968L137.562.3a.553.553,0,0,1,.979,0l14.787,25.968L168.112.3a.553.553,0,0,1,.979,0l14.787,25.968L198.663.3a.553.553,0,0,1,.979,0l15.274,26.827a.653.653,0,0,1-.187.855.54.54,0,0,1-.3.092Z" transform="translate(214.998 698)" fill="#ea3397"/>
  </g>
</svg>
